/* XPM */
static char * maximize_toggled_prelight_xpm[] = {
"20 24 2 1",
" 	c #87919B",
".	c #EEEEEE",
"                    ",
"                    ",
"                    ",
"                    ",
"                    ",
"                    ",
"                    ",
"     ..........     ",
"     ..........     ",
"     ..      ..     ",
"     ..      ..     ",
"     ..      ..     ",
"     ..      ..     ",
"     ..      ..     ",
"     ..      ..     ",
"     ..........     ",
"     ..........     ",
"                    ",
"                    ",
"                    ",
"                    ",
"                    ",
"                    ",
"                    "};
