/* XPM */
static char * menu_pressed_xpm[] = {
"20 24 4 1",
" 	c #87919B",
".	c #EAEBEE",
"+	c #E9EAED",
"@	c #EDEDED",
"                    ",
"                    ",
"                    ",
"                    ",
"                    ",
"                    ",
"                    ",
"                    ",
"      .++@+++.      ",
"      .++++++.      ",
"                    ",
"      .++++++.      ",
"      .+++@++.      ",
"                    ",
"      .++++++.      ",
"      .++++++.      ",
"                    ",
"                    ",
"                    ",
"                    ",
"                    ",
"                    ",
"                    ",
"                    "};
