/* XPM */
static char * shade_prelight_xpm[] = {
"20 24 3 1",
" 	c #87919B",
".	c #E9EAED",
"+	c #EDEDED",
"                    ",
"                    ",
"                    ",
"                    ",
"                    ",
"                    ",
"                    ",
"                    ",
"                    ",
"                    ",
"                    ",
"     .+++..+++.     ",
"     ..++++++..     ",
"                    ",
"                    ",
"                    ",
"                    ",
"                    ",
"                    ",
"                    ",
"                    ",
"                    ",
"                    ",
"                    "};
