/* XPM */
static char * shade_toggled_pressed_xpm[] = {
"20 24 3 1",
" 	c #87919B",
".	c #E9EAED",
"+	c #EDEDED",
"                    ",
"                    ",
"                    ",
"                    ",
"                    ",
"                    ",
"                    ",
"                    ",
"         ..         ",
"         ..         ",
"         ++         ",
"      ..++++..      ",
"      .++++++.      ",
"         ..         ",
"         ..         ",
"         ..         ",
"                    ",
"                    ",
"                    ",
"                    ",
"                    ",
"                    ",
"                    ",
"                    "};
