/* XPM */
static char * shade_active_xpm[] = {
"20 24 3 1",
" 	c #87919B",
".	c #EDEDED",
"+	c #E9EAED",
"                    ",
"                    ",
"                    ",
"                    ",
"                    ",
"                    ",
"                    ",
"                    ",
"                    ",
"                    ",
"                    ",
"      ...++...      ",
"      +......+      ",
"                    ",
"                    ",
"                    ",
"                    ",
"                    ",
"                    ",
"                    ",
"                    ",
"                    ",
"                    ",
"                    "};
