/* XPM */
static char * stick_toggled_active_xpm[] = {
"20 24 4 1",
" 	c #87919B",
".	c #EAEBEE",
"+	c #EEEEEE",
"@	c #EDEDED",
"                    ",
"                    ",
"                    ",
"                    ",
"                    ",
"                    ",
"                    ",
"                    ",
"      ........      ",
"      .      .      ",
"      . ..+. .      ",
"      . .@@. .      ",
"      . .@@. .      ",
"      . .... .      ",
"      .      .      ",
"      ........      ",
"                    ",
"                    ",
"                    ",
"                    ",
"                    ",
"                    ",
"                    ",
"                    "};
