/* XPM */
static char * stick_pressed_xpm[] = {
"20 24 3 1",
" 	c #87919B",
".	c #EEEEEE",
"+	c #EAEAEB",
"                    ",
"                    ",
"                    ",
"                    ",
"                    ",
"                    ",
"                    ",
"                    ",
"                    ",
"                    ",
"        ....        ",
"        .++.        ",
"        .++.        ",
"        ....        ",
"                    ",
"                    ",
"                    ",
"                    ",
"                    ",
"                    ",
"                    ",
"                    ",
"                    ",
"                    "};
