/* XPM */
static char * stick_toggled_inactive_xpm[] = {
"20 24 3 1",
" 	c #EDEDED",
".	c #87919B",
"+	c #EBEBEB",
"                    ",
"                    ",
"                    ",
"                    ",
"                    ",
"                    ",
"                    ",
"                    ",
"      ........      ",
"      .++++++.      ",
"      .+....+.      ",
"      .+....+.      ",
"      .+....+.      ",
"      .+....+.      ",
"      .++++++.      ",
"      ........      ",
"                    ",
"                    ",
"                    ",
"                    ",
"                    ",
"                    ",
"                    ",
"                    "};
