/* XPM */
static char * stick_prelight_xpm[] = {
"20 24 2 1",
" 	c #87919B",
".	c #EDEDED",
"                    ",
"                    ",
"                    ",
"                    ",
"                    ",
"                    ",
"                    ",
"                    ",
"                    ",
"       ......       ",
"       ......       ",
"       ......       ",
"       ......       ",
"       ......       ",
"       ......       ",
"                    ",
"                    ",
"                    ",
"                    ",
"                    ",
"                    ",
"                    ",
"                    ",
"                    "};
