/* XPM */
static char * top_left_active_xpm[] = {
"2 32 3 1",
" 	c None",
".	c #5F656B",
"+	c #87919B",
"  ",
" .",
".+",
".+",
".+",
".+",
".+",
".+",
".+",
".+",
".+",
".+",
".+",
".+",
".+",
".+",
".+",
".+",
".+",
".+",
".+",
".+",
".+",
".+",
".+",
".+",
".+",
".+",
".+",
".+",
".+",
".+"};
