#define close_width 14
#define close_height 14
static unsigned char close_bits[] = {
   0x07, 0x38, 0x0f, 0x3c, 0x1e, 0x1e, 0x3c, 0x0f,
   0xf8, 0x07, 0xf0, 0x03, 0xe0, 0x01, 0xe0, 0x01,
   0xf0, 0x03, 0xf8, 0x07, 0x3c, 0x0f, 0x1e, 0x1e,
   0x0f, 0x3c, 0x07, 0x38};
