#define max_toggled_width 14
#define max_toggled_height 14
static unsigned char max_toggled_bits[] = {
   0xe0, 0x3f, 0xe0, 0x3f, 0xe0, 0x3f, 0x60, 0x30,
   0x60, 0x30, 0xff, 0x31, 0xff, 0x31, 0x83, 0x3f,
   0x83, 0x3f, 0x83, 0x01, 0x83, 0x01, 0x83, 0x01,
   0xff, 0x01, 0xff, 0x01};
