#define max_toggled_hover_width 16
#define max_toggled_hover_height 16
static unsigned char max_toggled_hover_bits[] = {
   0xe0, 0xff, 0xe0, 0xff, 0xe0, 0xff, 0x60, 0xc0,
   0x60, 0xc0, 0xff, 0xc7, 0xff, 0xc7, 0x03, 0xc6,
   0x03, 0xc6, 0x03, 0xfe, 0x03, 0xfe, 0x03, 0x06,
   0x03, 0x06, 0x03, 0x06, 0xff, 0x07, 0xff, 0x07};
