#define max_toggled_hover_width 10
#define max_toggled_hover_height 10
static unsigned char max_toggled_hover_bits[] = {
   0xf8, 0x03, 0xf8, 0x03, 0x08, 0x02, 0x7f, 0x02, 0x41, 0x02, 0x41, 0x02,
   0xC1, 0x03, 0x41, 0x00, 0x41, 0x00, 0x7f, 0x00 };
