/* XPM */
static char * left_active_xpm[] = {
"2 12 2 1",
" 	c #2A69B7",
".	c #4D98F5",
" .",
" .",
" .",
" .",
" .",
" .",
" .",
" .",
" .",
" .",
" .",
" ."};
