/* XPM */
static char * maximize_toggled_inactive_xpm[] = {
"20 24 2 1",
" 	c #EDEDED",
".	c #87919B",
"                    ",
"                    ",
"                    ",
"                    ",
"                    ",
"                    ",
"                    ",
"                    ",
"        ......      ",
"        ......      ",
"        .    .      ",
"      .....  .      ",
"      .   .  .      ",
"      .   ....      ",
"      .   .         ",
"      .....         ",
"                    ",
"                    ",
"                    ",
"                    ",
"                    ",
"                    ",
"                    ",
"                    "};
