/* XPM */
static char * menu_prelight_xpm[] = {
"20 24 5 1",
" 	c #4D98F5",
".	c #EEEEEE",
"+	c #EAEBEE",
"@	c #EDEDED",
"#	c #E9EAED",
"                    ",
"                    ",
"                    ",
"                    ",
"                    ",
"                    ",
"                    ",
"     .+@#####++     ",
"     ++##@###++     ",
"                    ",
"                    ",
"     ++######++     ",
"     ++###@##++     ",
"                    ",
"                    ",
"     ++#####@++     ",
"     ++######++     ",
"                    ",
"                    ",
"                    ",
"                    ",
"                    ",
"                    ",
"                    "};
