/* XPM */
static char * top_right_active_xpm[] = {
"2 32 3 1",
" 	c None",
".	c #2A69B7",
"+	c #4D98F5",
"  ",
". ",
"+.",
"+.",
"+.",
"+.",
"+.",
"+.",
"+.",
"+.",
"+.",
"+.",
"+.",
"+.",
"+.",
"+.",
"+.",
"+.",
"+.",
"+.",
"+.",
"+.",
"+.",
"+.",
"+.",
"+.",
"+.",
"+.",
"+.",
"+.",
"+.",
"+."};
