<?xml version="1.0" encoding="UTF-8" standalone="no"?>
<!-- Created with Inkscape (http://www.inkscape.org/) -->

<svg
   width="48"
   height="48"
   viewBox="0 0 12.7 12.7"
   version="1.1"
   id="svg5"
   xml:space="preserve"
   inkscape:version="1.2.2 (b0a8486541, 2022-12-01)"
   sodipodi:docname="gnome-fs-regular.svg"
   xmlns:inkscape="http://www.inkscape.org/namespaces/inkscape"
   xmlns:sodipodi="http://sodipodi.sourceforge.net/DTD/sodipodi-0.dtd"
   xmlns="http://www.w3.org/2000/svg"
   xmlns:svg="http://www.w3.org/2000/svg"><sodipodi:namedview
     id="namedview7"
     pagecolor="#ffffff"
     bordercolor="#000000"
     borderopacity="0.25"
     inkscape:showpageshadow="2"
     inkscape:pageopacity="0.0"
     inkscape:pagecheckerboard="0"
     inkscape:deskcolor="#d1d1d1"
     inkscape:document-units="mm"
     showgrid="true"
     inkscape:zoom="16.145833"
     inkscape:cx="24"
     inkscape:cy="24"
     inkscape:window-width="1680"
     inkscape:window-height="986"
     inkscape:window-x="0"
     inkscape:window-y="36"
     inkscape:window-maximized="1"
     inkscape:current-layer="layer1"><inkscape:grid
       type="xygrid"
       id="grid132" /></sodipodi:namedview><defs
     id="defs2" /><g
     inkscape:label="Layer 1"
     inkscape:groupmode="layer"
     id="layer1"><g
       id="g4770"
       transform="matrix(0.99953788,0,0,0.99927065,0.00323816,0.00870797)"
       style="stroke-width:1.00059"><path
         style="color:#000000;fill:#f6f6f6;fill-opacity:1;stroke-width:0.264739;stroke-linejoin:bevel;-inkscape-stroke:none"
         d="M 3.7042829,0.14282749 3.7143984,0.132291 h 6.9973896 l 0.269777,0.28759792 -0.0014,1.9075e-4 V 12.310796 l -0.0012,0.0018 -0.250777,0.255089 H 1.7197911 V 2.1506894 Z"
         id="path1074"
         sodipodi:nodetypes="ccccccccccc" /><path
         id="path1521"
         style="fill:#ededed;fill-opacity:1;stroke-width:0.265157;stroke-linejoin:bevel;stroke-opacity:0.913725"
         inkscape:transform-center-x="0.19600869"
         inkscape:transform-center-y="-0.59317642"
         transform="translate(2.1235803,1.2864361)"
         d="m 8.8551115,11.044759 -0.1762112,0.190206 -9.03856721,0.02489 -0.0444572,-2.0953366 C 2.7334646,6.1942241 5.7784142,3.2338088 8.8631597,0.14410259 l 0.019395,5.98342411 -0.027817,4.9146543 z"
         sodipodi:nodetypes="cccccccc" /><path
         style="color:#000000;fill:#898988;fill-opacity:1;stroke-width:1.00059;stroke-linejoin:bevel;-inkscape-stroke:none"
         d="m 3.4372422,-0.00478036 -1.8519716,1.85108366 0.0028,-0.00284 -1.763e-4,0.5350226 v 0.2537679 l -0.0029,9.6653152 0.3921057,0.398816 8.732115,0.0017 0.405183,-0.395848 -1.55e-4,-11.91940565 -0.394962,-0.39154568 -6.4756212,8.9513e-4 -0.2785694,-3.2535e-4 -0.5271296,-1.8146e-4 z m 0.5305179,1.97781166 -4.17e-5,-7.625e-4 -0.0059,-1.71742084 0.2892106,3.7061e-4 6.332973,0.003548 0.268324,0.26301838 -0.003,-4.4831e-4 -2.49e-4,11.64422536 -2.33e-4,0.0014 -0.265752,0.267614 -8.4701489,5.93e-4 0.00177,0.0011 L 1.8508255,12.172344 1.8515625,2.6404 V 2.3816331 l 1.7173735,-0.00647 z"
         id="path1076"
         sodipodi:nodetypes="cccccccccccccccccccccccccccccccc" /><path
         id="path1419"
         style="fill:#f4f4f4;fill-opacity:1;stroke-width:0.265158;stroke-linejoin:bevel;stroke-dasharray:none;stroke-opacity:0.913725"
         inkscape:transform-center-x="0.14813814"
         inkscape:transform-center-y="-0.085356849"
         transform="translate(-2.2488617,-0.22769328)"
         d="M 5.9631641,2.0731276 5.6859139,2.345929 5.4162745,2.3457734 4.0979013,2.3471734 4.0990313,2.2037203 4.8928728,1.4103653 5.827421,0.49037312 5.9594339,0.48999533 5.960409,1.5684615 5.962459,2.0734944 Z"
         sodipodi:nodetypes="ccccccccccc" /></g></g></svg>
