<?xml version="1.0" encoding="UTF-8" standalone="no"?>
<svg
   width="48px"
   height="48px"
   id="svg2985"
   version="1.1"
   inkscape:version="1.2.2 (b0a8486541, 2022-12-01)"
   sodipodi:docname="filled-xterm.svg"
   sodipodi:version="0.32"
   inkscape:output_extension="org.inkscape.output.svg.inkscape"
   enable-background="new"
   xmlns:inkscape="http://www.inkscape.org/namespaces/inkscape"
   xmlns:sodipodi="http://sodipodi.sourceforge.net/DTD/sodipodi-0.dtd"
   xmlns="http://www.w3.org/2000/svg"
   xmlns:svg="http://www.w3.org/2000/svg"
   xmlns:rdf="http://www.w3.org/1999/02/22-rdf-syntax-ns#"
   xmlns:cc="http://creativecommons.org/ns#"
   xmlns:dc="http://purl.org/dc/elements/1.1/">
  <title
     id="title2983">xterm</title>
  <defs
     id="defs2987">
    <inkscape:perspective
       sodipodi:type="inkscape:persp3d"
       inkscape:vp_x="0 : 24 : 1"
       inkscape:vp_y="0 : 1000 : 0"
       inkscape:vp_z="48 : 24 : 1"
       inkscape:persp3d-origin="24 : 16 : 1"
       id="perspective11" />
  </defs>
  <sodipodi:namedview
     id="base"
     pagecolor="#ffffff"
     bordercolor="#666666"
     borderopacity="1.0"
     inkscape:pageopacity="0.0"
     inkscape:pageshadow="2"
     inkscape:zoom="11.343172"
     inkscape:cx="13.885005"
     inkscape:cy="29.797662"
     inkscape:current-layer="layer2"
     showgrid="true"
     inkscape:grid-bbox="true"
     inkscape:document-units="px"
     inkscape:window-width="1366"
     inkscape:window-height="703"
     inkscape:window-x="0"
     inkscape:window-y="36"
     inkscape:window-maximized="1"
     objecttolerance="2"
     inkscape:document-rotation="0"
     inkscape:showpageshadow="2"
     inkscape:pagecheckerboard="0"
     inkscape:deskcolor="#d1d1d1">
    <inkscape:grid
       type="xygrid"
       id="grid2988"
       empspacing="5"
       visible="true"
       enabled="false"
       snapvisiblegridlinesonly="true" />
  </sodipodi:namedview>
  <metadata
     id="metadata2990">
    <rdf:RDF>
      <cc:Work
         rdf:about="">
        <dc:format>image/svg+xml</dc:format>
        <dc:type
           rdf:resource="http://purl.org/dc/dcmitype/StillImage" />
        <dc:title>xterm</dc:title>
        <cc:license
           rdf:resource="http://creativecommons.org/licenses/by/4.0/" />
        <dc:creator>
          <cc:Agent>
            <dc:title>Thomas E. Dickey</dc:title>
          </cc:Agent>
        </dc:creator>
        <dc:rights>
          <cc:Agent>
            <dc:title>MIT-X11</dc:title>
          </cc:Agent>
        </dc:rights>
        <dc:description>XTerm icon, in SVG format.</dc:description>
        <dc:date>June 14, 2012</dc:date>
        <dc:source>https://invisible-island.net/xterm/xterm.icon.html</dc:source>
        <dc:identifier>https://invisible-island.net/xterm/images/icons-xterm_281.png</dc:identifier>
      </cc:Work>
      <cc:License
         rdf:about="http://creativecommons.org/licenses/by/4.0/">
        <cc:permits
           rdf:resource="http://creativecommons.org/ns#Reproduction" />
        <cc:permits
           rdf:resource="http://creativecommons.org/ns#Distribution" />
        <cc:requires
           rdf:resource="http://creativecommons.org/ns#Notice" />
        <cc:requires
           rdf:resource="http://creativecommons.org/ns#Attribution" />
        <cc:permits
           rdf:resource="http://creativecommons.org/ns#DerivativeWorks" />
      </cc:License>
    </rdf:RDF>
  </metadata>
  <g
     inkscape:groupmode="layer"
     id="layer2"
     inkscape:label="Layer"
     style="opacity:1;display:inline">
    <g
       id="g981"
       transform="matrix(0.93155745,0,0,0.9133456,2.1483575,2.0866603)"
       style="display:inline;stroke-width:1.00001">
      <path
         style="fill:none;fill-rule:evenodd;stroke:#000000;stroke-width:1.00001px;stroke-linecap:butt;stroke-linejoin:miter;stroke-opacity:1"
         d="M 6.3639611,36.585276 41.51727,36.484261 v 5.9599 l -4.04061,4.04061 H 1.4142136 v -1.010152 z"
         id="path2386" />
      <path
         style="fill:none;fill-rule:evenodd;stroke:#000000;stroke-width:1.00001px;stroke-linecap:butt;stroke-linejoin:miter;stroke-opacity:1"
         d="m 36.5,46.5 v -1 l 4.5,-9"
         id="path2388" />
      <path
         style="fill:none;fill-rule:evenodd;stroke:#000000;stroke-width:1.00001px;stroke-linecap:butt;stroke-linejoin:miter;stroke-opacity:1"
         d="m 4.5,44.5 h 1"
         id="path2398" />
      <path
         style="fill:none;fill-rule:evenodd;stroke:#000000;stroke-width:1.00001px;stroke-linecap:butt;stroke-linejoin:miter;stroke-opacity:1"
         d="m 7.5,44.5 h 25"
         id="path2400" />
      <path
         style="fill:none;fill-rule:evenodd;stroke:#000000;stroke-width:1.00001px;stroke-linecap:butt;stroke-linejoin:miter;stroke-opacity:1"
         d="m 34.5,44.5 h 1"
         id="path2402" />
      <path
         style="fill:none;fill-rule:evenodd;stroke:#000000;stroke-width:1.00001px;stroke-linecap:butt;stroke-linejoin:miter;stroke-opacity:1"
         d="m 7.5,5.5 v 24 l 2,2 h 27 l 2,-2 v -24 l -2,-2 h -27 z"
         id="path2406" />
      <path
         style="fill:none;fill-rule:evenodd;stroke:#000000;stroke-width:1.00001px;stroke-linecap:butt;stroke-linejoin:miter;stroke-opacity:1"
         d="m 5.5,32.5 1,1 h 33 l 1,-1 v -30 l -1,-1 h -33 l -1,1 z"
         id="path2408" />
      <path
         style="fill:none;fill-rule:evenodd;stroke:#000000;stroke-width:1.00001px;stroke-linecap:butt;stroke-linejoin:miter;stroke-opacity:1"
         d="m 40.5,32.5 h 1 l 4,-8 v -18 l -4,-4 h -1 z"
         id="path2410" />
      <path
         style="fill:none;fill-rule:evenodd;stroke:#000000;stroke-width:1.00001px;stroke-linecap:butt;stroke-linejoin:miter;stroke-opacity:1"
         d="M 7.5,38.5 Z"
         id="path2395" />
      <circle
         id="path2413"
         style="fill:#000000;stroke:none;stroke-width:1.00001"
         cx="7.5"
         cy="38.5"
         r="0.5" />
      <circle
         id="path2415"
         style="fill:#000000;stroke:none;stroke-width:1.00001"
         cx="9.5"
         cy="38.5"
         r="0.5" />
      <circle
         id="path2419"
         style="fill:#000000;stroke:none;stroke-width:1.00001"
         cx="11.5"
         cy="38.5"
         r="0.5" />
      <circle
         id="path2421"
         style="fill:#000000;stroke:none;stroke-width:1.00001"
         cx="13.5"
         cy="38.5"
         r="0.5" />
      <circle
         id="path2423"
         style="fill:#000000;stroke:none;stroke-width:1.00001"
         cx="15.5"
         cy="38.5"
         r="0.5" />
      <circle
         id="path2425"
         style="fill:#000000;stroke:none;stroke-width:1.00001"
         cx="17.5"
         cy="38.5"
         r="0.5" />
      <circle
         id="path2427"
         style="fill:#000000;stroke:none;stroke-width:1.00001"
         cx="19.5"
         cy="38.5"
         r="0.5" />
      <circle
         id="path2429"
         style="fill:#000000;stroke:none;stroke-width:1.00001"
         cx="21.5"
         cy="38.5"
         r="0.5" />
      <circle
         id="path2431"
         style="fill:#000000;stroke:none;stroke-width:1.00001"
         cx="23.5"
         cy="38.5"
         r="0.5" />
      <circle
         id="path2433"
         style="fill:#000000;stroke:none;stroke-width:1.00001"
         cx="25.5"
         cy="38.5"
         r="0.5" />
      <circle
         id="path2435"
         style="fill:#000000;stroke:none;stroke-width:1.00001"
         cx="27.5"
         cy="38.5"
         r="0.5" />
      <circle
         id="path2437"
         style="fill:#000000;stroke:none;stroke-width:1.00001"
         cx="29.5"
         cy="38.5"
         r="0.5" />
      <circle
         id="path2439"
         style="fill:#000000;stroke:none;stroke-width:1.00001"
         cx="31.5"
         cy="38.5"
         r="0.5" />
      <circle
         id="path2441"
         style="fill:#000000;stroke:none;stroke-width:1.00001"
         cx="33.5"
         cy="38.5"
         r="0.5" />
      <circle
         id="path2443"
         style="fill:#000000;stroke:none;stroke-width:1.00001"
         cx="35.5"
         cy="38.5"
         r="0.5" />
      <circle
         id="path2445"
         style="fill:#000000;stroke:none;stroke-width:1.00001"
         cx="37.5"
         cy="38.5"
         r="0.5" />
      <circle
         id="path2447"
         style="fill:#000000;stroke:none;stroke-width:1.00001"
         cx="6.5"
         cy="40.5"
         r="0.5" />
      <circle
         id="path2449"
         style="fill:#000000;stroke:none;stroke-width:1.00001"
         cx="8.5"
         cy="40.5"
         r="0.5" />
      <circle
         id="path2451"
         style="fill:#000000;stroke:none;stroke-width:1.00001"
         cx="10.5"
         cy="40.5"
         r="0.5" />
      <circle
         id="path2453"
         style="fill:#000000;stroke:none;stroke-width:1.00001"
         cx="12.5"
         cy="40.5"
         r="0.5" />
      <circle
         id="path2455"
         style="fill:#000000;stroke:none;stroke-width:1.00001"
         cx="14.5"
         cy="40.5"
         r="0.5" />
      <circle
         id="path2457"
         style="fill:#000000;stroke:none;stroke-width:1.00001"
         cx="16.5"
         cy="40.5"
         r="0.5" />
      <circle
         id="path2461"
         style="fill:#000000;stroke:none;stroke-width:1.00001"
         cx="18.5"
         cy="40.5"
         r="0.5" />
      <circle
         id="path2463"
         style="fill:#000000;stroke:none;stroke-width:1.00001"
         cx="20.5"
         cy="40.5"
         r="0.5" />
      <circle
         id="path2465"
         style="fill:#000000;stroke:none;stroke-width:1.00001"
         cx="22.5"
         cy="40.5"
         r="0.5" />
      <circle
         id="path2467"
         style="fill:#000000;stroke:none;stroke-width:1.00001"
         cx="24.5"
         cy="40.5"
         r="0.5" />
      <circle
         id="path2469"
         style="fill:#000000;stroke:none;stroke-width:1.00001"
         cx="26.5"
         cy="40.5"
         r="0.5" />
      <circle
         id="path2471"
         style="fill:#000000;stroke:none;stroke-width:1.00001"
         cx="28.5"
         cy="40.5"
         r="0.5" />
      <circle
         id="path2473"
         style="fill:#000000;stroke:none;stroke-width:1.00001"
         cx="30.5"
         cy="40.5"
         r="0.5" />
      <circle
         id="path2475"
         style="fill:#000000;stroke:none;stroke-width:1.00001"
         cx="32.5"
         cy="40.5"
         r="0.5" />
      <circle
         id="path2477"
         style="fill:#000000;stroke:none;stroke-width:1.00001"
         cx="34.5"
         cy="40.5"
         r="0.5" />
      <circle
         id="path2479"
         style="fill:#000000;stroke:none;stroke-width:1.00001"
         cx="36.5"
         cy="40.5"
         r="0.5" />
      <circle
         id="path2481"
         style="fill:#000000;stroke:none;stroke-width:1.00001"
         cx="5.5"
         cy="42.5"
         r="0.5" />
      <circle
         id="path2483"
         style="fill:#000000;stroke:none;stroke-width:1.00001"
         cx="7.5"
         cy="42.5"
         r="0.5" />
      <circle
         id="path2485"
         style="fill:#000000;stroke:none;stroke-width:1.00001"
         cx="9.5"
         cy="42.5"
         r="0.5" />
      <circle
         id="path2487"
         style="fill:#000000;stroke:none;stroke-width:1.00001"
         cx="11.5"
         cy="42.5"
         r="0.5" />
      <circle
         id="path2489"
         style="fill:#000000;stroke:none;stroke-width:1.00001"
         cx="13.5"
         cy="42.5"
         r="0.5" />
      <circle
         id="path2491"
         style="fill:#000000;stroke:none;stroke-width:1.00001"
         cx="15.5"
         cy="42.5"
         r="0.5" />
      <circle
         id="path2493"
         style="fill:#000000;stroke:none;stroke-width:1.00001"
         cx="17.5"
         cy="42.5"
         r="0.5" />
      <circle
         id="path2495"
         style="fill:#000000;stroke:none;stroke-width:1.00001"
         cx="19.5"
         cy="42.5"
         r="0.5" />
      <circle
         id="path2497"
         style="fill:#000000;stroke:none;stroke-width:1.00001"
         cx="21.5"
         cy="42.5"
         r="0.5" />
      <circle
         id="path2499"
         style="fill:#000000;stroke:none;stroke-width:1.00001"
         cx="23.5"
         cy="42.5"
         r="0.5" />
      <circle
         id="path2501"
         style="fill:#000000;stroke:none;stroke-width:1.00001"
         cx="25.5"
         cy="42.5"
         r="0.5" />
      <circle
         id="path2503"
         style="fill:#000000;stroke:none;stroke-width:1.00001"
         cx="27.5"
         cy="42.5"
         r="0.5" />
      <circle
         id="path2505"
         style="fill:#000000;stroke:none;stroke-width:1.00001"
         cx="29.5"
         cy="42.5"
         r="0.5" />
      <circle
         id="path2507"
         style="fill:#000000;stroke:none;stroke-width:1.00001"
         cx="31.5"
         cy="42.5"
         r="0.5" />
      <circle
         id="path2509"
         style="fill:#000000;stroke:none;stroke-width:1.00001"
         cx="33.5"
         cy="42.5"
         r="0.5" />
      <circle
         id="path2511"
         style="fill:#000000;stroke:none;stroke-width:1.00001"
         cx="35.5"
         cy="42.5"
         r="0.5" />
      <circle
         id="path2513"
         style="fill:#000000;stroke:none;stroke-width:1.00001"
         cx="4.5"
         cy="44.5"
         r="0.5" />
      <circle
         id="path2517"
         style="fill:#000000;stroke:none;stroke-width:1.00001"
         cx="5.5"
         cy="44.5"
         r="0.5" />
      <circle
         id="path2519"
         style="fill:#000000;stroke:none;stroke-width:1.00001"
         cx="34.5"
         cy="44.5"
         r="0.5" />
      <circle
         id="path2521"
         style="fill:#000000;stroke:none;stroke-width:1.00001"
         cx="35.5"
         cy="44.5"
         r="0.5" />
      <circle
         id="path2523"
         style="fill:#000000;stroke:none;stroke-width:1.00001"
         cx="7.5"
         cy="44.5"
         r="0.5" />
      <circle
         id="path2529"
         style="fill:#000000;stroke:none;stroke-width:1.00001"
         cx="32.5"
         cy="44.5"
         r="0.5" />
      <path
         style="fill:#ffffff;fill-opacity:1;fill-rule:nonzero;stroke:#ff0000;stroke-width:0.0606096;stroke-miterlimit:4;stroke-dasharray:none;stroke-opacity:1"
         d="M 6.4143258,32.603522 6.0402716,32.220455 V 17.471049 2.7216436 L 6.3733802,2.398782 6.7064889,2.0759204 H 23.021081 39.335674 l 0.322861,0.3331086 0.322862,0.3331086 v 14.7481714 14.74817 l -0.383066,0.374055 -0.383067,0.374054 H 23.001823 6.78838 Z M 37.883813,30.892101 39.07226,29.70675 V 17.483906 5.2610621 L 37.937486,4.1230599 36.802712,2.9850577 H 23.014063 9.2254133 L 8.0874111,4.1198315 6.9494089,5.2546054 V 17.477582 29.700558 l 1.1853501,1.188447 1.1853502,1.188446 H 23.007738 36.695367 Z"
         id="path2881" />
      <path
         style="fill:#ffffff;fill-opacity:1;fill-rule:nonzero;stroke:#ff0000;stroke-width:0.0606096;stroke-miterlimit:4;stroke-dasharray:none;stroke-opacity:1"
         d="M 8.8917223,30.130797 8.0605767,29.295311 V 17.526914 5.7585167 L 8.8960625,4.9273711 9.7315483,4.0962255 H 23.015175 36.298801 l 0.831146,0.8354858 0.831145,0.8354858 V 17.484963 29.202729 l -0.885881,0.881777 -0.885883,0.881777 H 22.956098 9.722868 Z"
         id="path2883"
         sodipodi:nodetypes="ccccccccccccccccc"
         sodipodi:insensitive="true" />
      <path
         style="fill:#ffffff;fill-opacity:1;fill-rule:nonzero;stroke:#ff0000;stroke-width:0.0606096;stroke-miterlimit:4;stroke-dasharray:none;stroke-opacity:1"
         d="M 6.4641484,32.552464 6.1412868,32.219356 V 17.481465 2.7435744 L 6.412724,2.460255 6.6841612,2.1769356 H 23.010834 39.337508 l 0.271437,0.2833194 0.271437,0.2833194 V 17.491712 32.23985 l -0.333109,0.322861 -0.333108,0.322862 H 23.000587 6.78701 Z M 37.93438,30.942546 39.173275,29.706624 V 17.48378 5.2609353 L 37.987925,4.0724889 36.802574,2.8840424 H 23.010834 9.219094 L 8.0337438,4.0724889 6.8483936,5.2609353 v 12.2198697 12.21987 l 1.2359211,1.238896 1.235921,1.238895 H 23.007859 36.695484 Z"
         id="path2887" />
      <path
         style="fill:#ffffff;fill-opacity:1;fill-rule:nonzero;stroke:#ff0000;stroke-width:0.0606096;stroke-miterlimit:4;stroke-dasharray:none;stroke-opacity:1"
         d="m 41.098057,17.556508 c -0.003,-7.9587392 0.02906,-14.4704351 0.07129,-14.4704351 0.04223,0 0.905913,0.8300366 1.91929,1.8445258 l 1.842505,1.8445259 -0.0055,8.8378374 -0.0055,8.837837 -1.908306,3.788072 -1.908306,3.788072 -0.0055,-14.470435 z"
         id="path2889" />
      <path
         style="fill:#ffffff;fill-opacity:1;fill-rule:nonzero;stroke:#ff0000;stroke-width:0.0606096;stroke-miterlimit:4;stroke-dasharray:none;stroke-opacity:1"
         d="m 37.05745,45.739764 c 0.003,-0.09723 0.886958,-1.926866 1.964302,-4.065864 l 1.958808,-3.889087 0.0055,2.172825 0.0055,2.172825 -1.895008,1.893039 c -1.042254,1.041171 -1.928663,1.893039 -1.969798,1.893039 -0.04113,0 -0.07232,-0.07955 -0.06929,-0.176777 z"
         id="path2891" />
      <path
         style="fill:#ffffff;fill-opacity:1;fill-rule:nonzero;stroke:#ff0000;stroke-width:0.0606096;stroke-miterlimit:4;stroke-dasharray:none;stroke-opacity:1"
         d="m 1.9996614,45.748431 c 0,-0.09246 1.05393,-2.062949 2.3420668,-4.378863 l 2.3420667,-4.210753 16.6575491,-0.0739 c 9.161652,-0.04064 16.678939,-0.05251 16.705082,-0.02636 0.02614,0.02614 -0.88693,1.916026 -2.029053,4.19974 -1.142122,2.283714 -2.076586,4.266065 -2.076586,4.405226 V 45.91654 H 18.970224 c -15.7618179,0 -16.9705626,-0.01197 -16.9705626,-0.168109 z m 3.9193919,-0.862246 c 0.1562623,-0.156262 0.1562623,-0.611453 0,-0.767716 -0.1327423,-0.132742 -1.5725881,-0.168768 -1.7549322,-0.04391 -0.209415,0.143396 -0.251268,0.453923 -0.09361,0.69454 0.1419104,0.216583 0.2277517,0.238305 0.9417335,0.238305 0.4763276,0 0.8333102,-0.04772 0.9068087,-0.121219 z m 26.9710727,0 c 0.06667,-0.06667 0.121219,-0.239406 0.121219,-0.383858 0,-0.144451 -0.05455,-0.317188 -0.121219,-0.383858 -0.09301,-0.09301 -3.102772,-0.121218 -12.932118,-0.121218 H 7.1471081 L 7.032044,44.249789 c -0.086075,0.188915 -0.086075,0.316162 0,0.505077 l 0.1150641,0.252538 H 19.958008 c 9.829346,0 12.839112,-0.02821 12.932118,-0.121219 z m 3.030458,0 c 0.06667,-0.06667 0.121218,-0.239406 0.121218,-0.383858 0,-0.144451 -0.05455,-0.317188 -0.121218,-0.383858 -0.132742,-0.132742 -1.572588,-0.168768 -1.754932,-0.04391 -0.209416,0.143396 -0.251268,0.453923 -0.09361,0.69454 0.14191,0.216583 0.227751,0.238305 0.941733,0.238305 0.476328,0 0.83331,-0.04772 0.906809,-0.121219 z M 5.8157646,42.930863 c 0.4168038,-0.291941 0.1929086,-0.953917 -0.3226362,-0.953917 -0.553373,0 -0.7390462,0.804379 -0.232703,1.008123 0.3057447,0.123026 0.301748,0.123416 0.5553392,-0.05421 v 0 z m 2.1555852,-0.167822 c 0.2463855,-0.460375 -0.1332794,-0.878917 -0.6741395,-0.74317 -0.4422249,0.110991 -0.4604677,0.793677 -0.025508,0.954579 0.3021238,0.111762 0.5700131,0.03082 0.6996475,-0.211409 z m 1.8172482,0.224058 c 0.05239,0 0.1407931,-0.119778 0.1964525,-0.266173 0.1399965,-0.36822 -0.1086912,-0.74398 -0.4923859,-0.74398 -0.3550986,0 -0.5229506,0.166761 -0.5229506,0.519551 0,0.301567 0.3574022,0.631136 0.5883352,0.542519 0.074412,-0.02855 0.1781592,-0.05192 0.2305488,-0.05192 z m 1.987067,-0.05624 c 0.247335,-0.173241 0.304213,-0.631775 0.103288,-0.832699 -0.06667,-0.06667 -0.239406,-0.121218 -0.383858,-0.121218 -0.337951,0 -0.505076,0.171915 -0.505076,0.519551 0,0.239989 0.300193,0.591617 0.505076,0.591617 0.03084,0 0.157091,-0.07076 0.28057,-0.157251 z m 2.020304,0 c 0.247336,-0.173241 0.304214,-0.631775 0.103289,-0.832699 -0.06667,-0.06667 -0.24745,-0.121218 -0.401732,-0.121218 -0.378809,0 -0.632255,0.376096 -0.495621,0.735468 0.08367,0.220073 0.184216,0.290959 0.516272,0.363982 0.02931,0.0064 0.154314,-0.05905 0.277792,-0.145533 z m 2.020305,0 c 0.416804,-0.291941 0.192909,-0.953917 -0.322635,-0.953917 -0.553373,0 -0.739046,0.804379 -0.232703,1.008123 0.305744,0.123026 0.301748,0.123416 0.555338,-0.05421 v 0 z m 2.155586,-0.167822 c 0.246385,-0.460375 -0.133279,-0.878917 -0.674139,-0.74317 -0.442226,0.110991 -0.460468,0.793677 -0.02551,0.954579 0.302124,0.111762 0.570013,0.03082 0.699648,-0.211409 v 0 z m 1.817248,0.224058 c 0.05239,0 0.140793,-0.119778 0.196453,-0.266173 0.139997,-0.36822 -0.108692,-0.74398 -0.492386,-0.74398 -0.355099,0 -0.522951,0.166761 -0.522951,0.519551 0,0.301567 0.357402,0.631136 0.588335,0.542519 0.07441,-0.02855 0.17816,-0.05192 0.230549,-0.05192 z m 1.987066,-0.05624 c 0.247336,-0.173241 0.304214,-0.631775 0.10329,-0.832699 -0.06667,-0.06667 -0.239407,-0.121218 -0.383858,-0.121218 -0.337952,0 -0.505077,0.171915 -0.505077,0.519551 0,0.239989 0.300193,0.591617 0.505077,0.591617 0.03083,0 0.15709,-0.07076 0.280568,-0.157251 z m 2.020306,0 c 0.247335,-0.173241 0.304213,-0.631775 0.103289,-0.832699 -0.06667,-0.06667 -0.24745,-0.121218 -0.401733,-0.121218 -0.378809,0 -0.632254,0.376096 -0.495621,0.735468 0.08367,0.220073 0.184216,0.290959 0.516273,0.363982 0.02931,0.0064 0.154314,-0.05905 0.277792,-0.145533 z m 2.020305,0 c 0.416804,-0.291941 0.192908,-0.953917 -0.322636,-0.953917 -0.553373,0 -0.739046,0.804379 -0.232703,1.008123 0.305744,0.123026 0.301748,0.123416 0.555339,-0.05421 v 0 z m 2.155585,-0.167822 c 0.246386,-0.460375 -0.133279,-0.878917 -0.674139,-0.74317 -0.442226,0.110991 -0.460468,0.793677 -0.02551,0.954579 0.302123,0.111762 0.570012,0.03082 0.699647,-0.211409 v 0 z m 1.817249,0.224058 c 0.05239,0 0.140793,-0.119778 0.196452,-0.266173 0.139997,-0.36822 -0.108691,-0.74398 -0.492386,-0.74398 -0.355099,0 -0.522951,0.166761 -0.522951,0.519551 0,0.301567 0.357402,0.631136 0.588335,0.542519 0.07441,-0.02855 0.17816,-0.05192 0.23055,-0.05192 z m 1.987066,-0.05624 c 0.247336,-0.173241 0.304213,-0.631775 0.103289,-0.832699 -0.06667,-0.06667 -0.239406,-0.121218 -0.383858,-0.121218 -0.337952,0 -0.505076,0.171915 -0.505076,0.519551 0,0.239989 0.300193,0.591617 0.505076,0.591617 0.03083,0 0.157091,-0.07076 0.280569,-0.157251 z m 2.020305,0 c 0.247336,-0.173241 0.304213,-0.631775 0.103289,-0.832699 -0.06667,-0.06667 -0.24745,-0.121218 -0.401733,-0.121218 -0.378809,0 -0.632254,0.376096 -0.495621,0.735468 0.08367,0.220073 0.184216,0.290959 0.516273,0.363982 0.02931,0.0064 0.154314,-0.05905 0.277792,-0.145533 z m 2.118543,-0.07283 c 0.175617,-0.135887 0.157809,-0.532072 -0.03247,-0.72235 -0.374702,-0.374702 -1.038792,-0.01151 -0.910872,0.498164 0.100776,0.401524 0.570029,0.513042 0.943341,0.224186 v 0 z M 6.8259171,40.910558 c 0.4085065,-0.286129 0.1949327,-0.953917 -0.3050844,-0.953917 -0.2888671,0 -0.5815764,0.284624 -0.5815764,0.565512 0,0.220901 0.3306639,0.545656 0.5555839,0.545656 0.058613,0 0.207598,-0.07076 0.3310769,-0.157251 z m 2.0427816,-0.04478 c 0.1111168,-0.111117 0.2020305,-0.260101 0.2020305,-0.331077 0,-0.248411 -0.315983,-0.57806 -0.5540964,-0.57806 -0.5243442,0 -0.7539984,0.658733 -0.3325644,0.953917 0.2967134,0.207826 0.4414943,0.198356 0.6846303,-0.04478 z m 1.9631173,0.06788 c 0.35644,-0.260635 0.16223,-0.977021 -0.264868,-0.977021 -0.359749,0 -0.5870815,0.19416 -0.5870815,0.501415 0,0.516837 0.4511375,0.768687 0.8519495,0.475606 z m 2.025225,-0.03005 c 0.264744,-0.264744 0.162243,-0.771018 -0.180347,-0.890764 -0.382908,-0.133838 -0.617411,0.02787 -0.659219,0.454595 -0.05182,0.528866 0.473801,0.801934 0.839566,0.436169 z m 1.988858,-0.003 c 0.369928,-0.33478 0.129636,-0.943988 -0.372341,-0.943988 -0.238114,0 -0.554097,0.329649 -0.554097,0.57806 0,0.185132 0.37394,0.533108 0.572884,0.533108 0.09285,0 0.251951,-0.07523 0.353554,-0.167179 z m 1.980528,0.0099 c 0.408507,-0.286128 0.194933,-0.953916 -0.305084,-0.953916 -0.288868,0 -0.581576,0.284624 -0.581576,0.565512 0,0.220901 0.330664,0.545656 0.555583,0.545656 0.05861,0 0.207599,-0.07076 0.331077,-0.157252 z m 2.042782,-0.04478 c 0.111117,-0.111117 0.20203,-0.260101 0.20203,-0.331077 0,-0.248411 -0.315982,-0.57806 -0.554097,-0.57806 -0.493057,0 -0.726442,0.554553 -0.389891,0.926437 0.217828,0.240698 0.490314,0.234345 0.741958,-0.0173 z m 1.963117,0.06788 c 0.356441,-0.260635 0.16223,-0.977021 -0.264868,-0.977021 -0.359749,0 -0.587081,0.19416 -0.587081,0.501415 0,0.516837 0.451137,0.768687 0.851949,0.475606 z m 2.025225,-0.03005 c 0.264745,-0.264744 0.162243,-0.771018 -0.180347,-0.890764 -0.382908,-0.133838 -0.617411,0.02787 -0.659219,0.454595 -0.05182,0.528866 0.473802,0.801934 0.839566,0.436169 z m 1.988858,-0.003 c 0.369928,-0.33478 0.129636,-0.943988 -0.37234,-0.943988 -0.238115,0 -0.554097,0.329649 -0.554097,0.57806 0,0.185132 0.373939,0.533108 0.572883,0.533108 0.09285,0 0.251952,-0.07523 0.353554,-0.167179 z m 1.980528,0.0099 c 0.408507,-0.286128 0.194933,-0.953916 -0.305084,-0.953916 -0.288867,0 -0.581576,0.284624 -0.581576,0.565512 0,0.220901 0.330664,0.545656 0.555584,0.545656 0.05861,0 0.207598,-0.07076 0.331076,-0.157252 z m 2.042782,-0.04478 c 0.111117,-0.111117 0.202031,-0.260101 0.202031,-0.331077 0,-0.248411 -0.315983,-0.57806 -0.554097,-0.57806 -0.493058,0 -0.726442,0.554553 -0.389892,0.926437 0.217828,0.240698 0.490314,0.234345 0.741958,-0.0173 z m 1.963118,0.06788 c 0.35644,-0.260635 0.162229,-0.977021 -0.264869,-0.977021 -0.359749,0 -0.587081,0.19416 -0.587081,0.501415 0,0.516837 0.451137,0.768687 0.85195,0.475606 z m 2.025224,-0.03005 c 0.264745,-0.264744 0.162244,-0.771018 -0.180347,-0.890764 -0.382908,-0.133838 -0.617411,0.02787 -0.659219,0.454595 -0.05182,0.528866 0.473802,0.801934 0.839566,0.436169 z m 1.988858,-0.003 c 0.369928,-0.33478 0.129636,-0.943988 -0.37234,-0.943988 -0.238114,0 -0.554097,0.329649 -0.554097,0.57806 0,0.185132 0.373939,0.533108 0.572884,0.533108 0.09285,0 0.251951,-0.07523 0.353553,-0.167179 z m 1.980528,0.0099 c 0.408507,-0.286128 0.194934,-0.953916 -0.305084,-0.953916 -0.288867,0 -0.581576,0.284624 -0.581576,0.565512 0,0.220901 0.330664,0.545656 0.555584,0.545656 0.05861,0 0.207598,-0.07076 0.331076,-0.157252 z M 7.8758459,38.880325 c 0.101602,-0.09195 0.1847308,-0.271199 0.1847308,-0.398333 0,-0.237795 -0.3359044,-0.545656 -0.5953603,-0.545656 -0.2305032,0 -0.5158075,0.311974 -0.5158075,0.564024 0,0.483979 0.5584272,0.713009 0.926437,0.379965 z m 2.0655134,-0.0895 c 0.2145647,-0.327467 0.062896,-0.718153 -0.3156812,-0.81317 -0.5087821,-0.127696 -0.8714619,0.536871 -0.4972258,0.911107 0.2420233,0.242024 0.6199929,0.196487 0.812907,-0.09794 z m 1.9375937,0.135457 c 0.197395,-0.197394 0.149802,-0.765513 -0.07417,-0.88538 -0.43198,-0.231188 -0.814763,0.0055 -0.814763,0.503718 0,0.430036 0.588073,0.682524 0.888934,0.381662 z m 1.982785,-0.03752 c 0.318123,-0.318121 0.09552,-0.952429 -0.334246,-0.952429 -0.458142,0 -0.717223,0.596876 -0.416411,0.959334 0.164094,0.197721 0.549577,0.194175 0.750657,-0.0069 z m 2.020305,0 c 0.374237,-0.374236 0.01156,-1.038803 -0.497225,-0.911107 -0.143024,0.0359 -0.310404,0.175793 -0.371953,0.31088 -0.239455,0.525545 0.460497,1.008909 0.869178,0.600227 z m 1.994313,-0.0084 c 0.101602,-0.09195 0.184731,-0.271199 0.184731,-0.398333 0,-0.237795 -0.335904,-0.545656 -0.595361,-0.545656 -0.230502,0 -0.515807,0.311974 -0.515807,0.564024 0,0.483979 0.558428,0.713009 0.926437,0.379965 z m 2.065514,-0.0895 c 0.214564,-0.327466 0.0629,-0.718152 -0.315682,-0.813169 -0.508782,-0.127697 -0.871462,0.536871 -0.497225,0.911107 0.242023,0.242024 0.619993,0.196486 0.812907,-0.09794 z m 1.937594,0.135458 c 0.197394,-0.197394 0.149801,-0.765513 -0.07417,-0.88538 -0.43198,-0.231188 -0.814763,0.0055 -0.814763,0.503718 0,0.430036 0.588073,0.682524 0.888935,0.381662 v 0 z m 1.982785,-0.03752 c 0.318122,-0.318121 0.09552,-0.952429 -0.334247,-0.952429 -0.458141,0 -0.717223,0.596876 -0.416411,0.959334 0.164094,0.197721 0.549578,0.194175 0.750658,-0.0069 v 0 z m 2.020305,0 c 0.374236,-0.374236 0.01156,-1.038803 -0.497226,-0.911107 -0.143024,0.0359 -0.310403,0.175793 -0.371953,0.31088 -0.239455,0.525545 0.460497,1.008909 0.869179,0.600227 z m 1.994312,-0.0084 c 0.101603,-0.09195 0.184731,-0.271199 0.184731,-0.398333 0,-0.237795 -0.335904,-0.545656 -0.595361,-0.545656 -0.230502,0 -0.515807,0.311974 -0.515807,0.564024 0,0.483979 0.558428,0.713009 0.926437,0.379965 z m 2.065514,-0.0895 c 0.214564,-0.327466 0.0629,-0.718152 -0.315682,-0.813169 -0.508781,-0.127697 -0.871461,0.536871 -0.497225,0.911107 0.242023,0.242024 0.619993,0.196486 0.812907,-0.09794 z m 1.937594,0.135458 c 0.197395,-0.197394 0.149801,-0.765513 -0.07417,-0.88538 -0.431979,-0.231188 -0.814762,0.0055 -0.814762,0.503718 0,0.430036 0.588072,0.682524 0.888934,0.381662 v 0 z m 1.982785,-0.03752 c 0.318122,-0.318121 0.09552,-0.952429 -0.334247,-0.952429 -0.458141,0 -0.717223,0.596876 -0.416411,0.959334 0.164095,0.197721 0.549578,0.194175 0.750658,-0.0069 z m 2.020305,0 c 0.374236,-0.374236 0.01156,-1.038803 -0.497226,-0.911107 -0.143024,0.0359 -0.310403,0.175793 -0.371953,0.31088 -0.239454,0.525545 0.460497,1.008909 0.869179,0.600227 z m 1.994313,-0.0084 c 0.101602,-0.09195 0.18473,-0.271199 0.18473,-0.398333 0,-0.237795 -0.335904,-0.545656 -0.59536,-0.545656 -0.230503,0 -0.515807,0.311974 -0.515807,0.564024 0,0.483979 0.558427,0.713009 0.926437,0.379965 z"
         id="path2893" />
      <g
         id="g8064"
         style="stroke-width:1.00001">
        <path
           style="color:#000000;font-size:11.9999px;font-family:serif;-inkscape-font-specification:Serif;fill:#000000;stroke:none;stroke-width:0.0650472;-inkscape-stroke:none"
           d="M 9.6472012,17.269485 V 16.68149 h 0.083999 q 0.5039968,0 0.7839948,-0.209999 0.293998,-0.223998 0.671995,-0.769994 L 13.525173,12.355521 11.21519,8.6035475 Q 10.963192,8.1975504 10.641194,8.0295516 10.333196,7.8615528 10.011199,7.8615528 H 9.8291999 V 7.273557 h 3.7939731 v 0.5879958 h -0.042 q -0.475997,0 -0.643995,0.1259991 -0.153999,0.1119992 -0.153999,0.279998 0,0.139999 0.056,0.3079978 0.056,0.1539989 0.279998,0.5179963 l 1.259991,2.043985 1.329991,-2.0159852 q 0.153999,-0.2379983 0.251998,-0.4479968 0.098,-0.2239984 0.098,-0.4059971 0,-0.2519982 -0.223998,-0.3219977 -0.209999,-0.083999 -0.531996,-0.083999 h -0.042 V 7.273557 h 3.065978 V 7.8615528 H 18.20114 q -0.405997,0 -0.699995,0.2239984 -0.279998,0.2099985 -0.685995,0.7839944 l -2.029986,2.9259794 2.575982,4.14397 q 0.307998,0.405997 0.573996,0.573996 0.279998,0.167999 0.545996,0.167999 h 0.181999 v 0.587995 H 14.883164 V 16.68149 h 0.07 q 0.839994,0 0.839994,-0.461997 0,-0.153999 -0.084,-0.321998 -0.084,-0.181998 -0.377997,-0.643995 l -1.385991,-2.225984 -1.553988,2.295983 q -0.112,0.181999 -0.237999,0.447997 -0.125999,0.251998 -0.125999,0.475997 0,0.433997 0.909994,0.433997 h 0.042 v 0.587995 z"
           id="path8025" />
        <path
           style="color:#000000;font-size:11.9999px;font-family:serif;-inkscape-font-specification:Serif;fill:#ff0000;stroke:none;stroke-width:0.0650472;-inkscape-stroke:none"
           d="m 9.796875,7.2402344 v 0.6542968 h 0.214844 c 0.209008,10e-8 0.412132,0.054345 0.613281,0.1640626 h 0.002 c 0.208224,0.1086385 0.394762,0.2954013 0.560547,0.5625 l 2.298828,3.7324222 -2.326172,3.330078 c -0.250936,0.362464 -0.472852,0.616035 -0.664062,0.761718 -0.179172,0.13438 -0.434145,0.203125 -0.7656252,0.203125 H 9.6152344 v 0.654297 h 0.03125 3.3652346 V 16.648437 H 12.9375 c -0.300746,0 -0.523907,-0.03676 -0.667969,-0.105468 -0.144061,-0.06871 -0.208984,-0.161622 -0.208984,-0.294922 0,-0.143235 0.03882,-0.29834 0.121094,-0.462891 0.08334,-0.175952 0.162733,-0.32363 0.236328,-0.443359 v -0.002 l 1.52539,-2.251953 1.359375,2.183593 h 0.002 c 0.195712,0.30755 0.320662,0.520941 0.375,0.638672 v 0.002 c 0.05422,0.108444 0.08008,0.209888 0.08008,0.306641 0,0.144143 -0.05943,0.245772 -0.191407,0.318359 -0.131976,0.07259 -0.338218,0.111328 -0.615234,0.111328 h -0.101562 v 0.654297 h 3.843749 v -0.654297 h -0.214843 c -0.16991,0 -0.345237,-0.05319 -0.527344,-0.162109 h -0.002 c -0.171292,-0.108421 -0.359742,-0.2976 -0.5625,-0.564453 l -0.002,-0.002 -2.5625,-4.123047 2.017578,-2.9082031 C 17.11146,8.5073125 17.340116,8.2472731 17.521438,8.1112811 17.711696,7.9663228 17.936443,7.8944843 18.201126,7.8944842 h 0.158203 V 7.2402344 H 15.22847 v 0.6542968 h 0.07422 c 0.211837,0 0.384854,0.028161 0.519532,0.082031 h 0.002 0.002 c 0.06936,0.021676 0.1176,0.05638 0.150391,0.1035156 0.03279,0.047136 0.05078,0.108319 0.05078,0.1875 0,0.1154948 -0.03167,0.2462094 -0.0957,0.3925782 -0.06456,0.1383495 -0.147995,0.2857151 -0.25,0.4433593 L 14.378906,11.078125 13.146484,9.0761719 C 12.997591,8.8342204 12.904527,8.6617646 12.869141,8.5644531 c -0.03648,-0.1094279 -0.05274,-0.2078789 -0.05274,-0.296875 0,-0.1020614 0.04421,-0.1837898 0.140625,-0.2539062 0.100204,-0.075153 0.310539,-0.1191406 0.625,-0.1191407 h 0.07422 V 7.2402344 Z m 0.064453,0.066406 h 3.728516 V 7.828125 h -0.0078 c -0.3202,0 -0.540268,0.039967 -0.664062,0.1328125 C 12.809047,8.0401532 12.75,8.1456413 12.75,8.2675781 c 0,0.097669 0.0204,0.2037891 0.05859,0.3183594 0.03928,0.1080202 0.133432,0.2820127 0.283203,0.5253906 l 1.287109,2.0859379 1.357422,-2.0585941 c 0.103331,-0.1596866 0.187808,-0.3095237 0.25391,-0.4511719 0.06663,-0.1522955 0.101563,-0.292752 0.101563,-0.4199219 0,-0.088818 -0.02062,-0.164413 -0.0625,-0.2246093 C 15.987929,7.9835025 15.926251,7.9411291 15.847656,7.9160156 15.702335,7.8578875 15.520227,7.828125 15.302734,7.828125 h -0.0098 V 7.3066406 h 3.001953 V 7.828125 h -0.09375 c -0.276646,0 -0.518964,0.078716 -0.720703,0.2324219 -0.191701,0.1442511 -0.420497,0.4080056 -0.691407,0.7910156 l -2.042968,2.9433595 2.58789,4.162109 0.002,0.002 c 0.206752,0.272536 0.399491,0.466742 0.582032,0.582032 0.190561,0.114337 0.378321,0.173828 0.5625,0.173828 h 0.15039 v 0.521484 h -3.714843 v -0.521484 h 0.03711 c 0.282979,0 0.498463,-0.03968 0.646484,-0.121094 0.148022,-0.08141 0.226563,-0.211146 0.226563,-0.375 0,-0.107988 -0.03073,-0.219093 -0.08789,-0.333984 v -0.002 c -0.05784,-0.125054 -0.183064,-0.338731 -0.378906,-0.646485 L 13.94728,12.96875 12.363295,15.306641 c -0.07552,0.122719 -0.155867,0.273064 -0.240234,0.451172 h 0.002 c -0.08572,0.171446 -0.130859,0.334803 -0.130859,0.490234 0,0.156031 0.08682,0.277556 0.246093,0.353515 0.15927,0.07596 0.39135,0.113282 0.697266,0.113282 h 0.0098 v 0.521484 H 9.6796875 v -0.521484 h 0.050781 c 0.3405145,0 0.6105295,-0.07118 0.8046875,-0.216797 0.200787,-0.15298 0.426629,-0.411814 0.679688,-0.777344 h -0.002 L 13.564453,12.357422 11.242188,8.5859375 C 11.072259,8.3121643 10.876902,8.1173891 10.65625,8.0019531 10.446735,7.8876725 10.232039,7.828125 10.011719,7.828125 H 9.8613281 Z"
           id="path8027" />
        <path
           style="color:#000000;font-size:11.9999px;font-family:Verdana;-inkscape-font-specification:Verdana;fill:#000000;stroke:none;stroke-width:0.0650472;-inkscape-stroke:none"
           d="M 12.664168,27.673992 H 11.764173 V 21.32403 H 9.5341863 v -0.789995 h 5.3499677 v 0.789995 h -2.219986 z"
           id="path8001" />
        <path
           style="color:#000000;font-size:11.9999px;font-family:Verdana;-inkscape-font-specification:Verdana;fill:#ff0000;stroke:none;stroke-width:0.0650472;-inkscape-stroke:none"
           d="m 9.5019531,20.501953 v 0.855469 h 2.2304689 v 6.349609 h 0.964844 v -0.0332 -6.316406 h 2.21875 v -0.855469 z m 0.064453,0.06445 h 5.2851569 v 0.72461 h -2.220704 v 6.349609 H 11.796875 V 21.291016 H 9.5664063 Z"
           id="path8003" />
        <path
           style="color:#000000;font-size:11.9999px;font-family:Verdana;-inkscape-font-specification:Verdana;fill:#000000;stroke:none;stroke-width:0.0650472;-inkscape-stroke:none"
           d="m 19.954121,27.673992 h -3.989976 v -7.139957 h 3.989976 V 21.32403 H 16.86414 v 2.229987 h 2.909982 v 0.779995 H 16.86414 v 2.549985 h 3.089981 z"
           id="path8007" />
        <path
           style="color:#000000;font-size:11.9999px;font-family:Verdana;-inkscape-font-specification:Verdana;fill:#ff0000;stroke:none;stroke-width:0.0650472;-inkscape-stroke:none"
           d="m 15.931641,20.501953 v 7.205078 h 4.054687 v -0.0332 -0.822266 H 16.896484 V 24.36719 h 2.910157 v -0.845703 h -2.910157 v -2.164062 h 3.089844 v -0.855469 z m 0.06445,0.06445 h 3.925781 v 0.72461 h -3.089844 v 2.294921 h 2.910156 v 0.714844 h -2.910156 v 2.615235 h 3.089844 v 0.724609 h -3.925781 z"
           id="path8009" />
        <path
           style="color:#000000;font-size:11.9999px;font-family:Verdana;-inkscape-font-specification:Verdana;fill:#000000;stroke:none;stroke-width:0.0650472;-inkscape-stroke:none"
           d="m 23.494098,20.534035 q 1.329992,0 1.959988,0.509997 0.639996,0.499997 0.639996,1.519991 0,0.569996 -0.209999,0.949994 -0.209998,0.379998 -0.539996,0.609996 -0.319999,0.219999 -0.679996,0.349998 l 1.959988,3.199981 H 25.574085 L 23.844096,24.72401 h -1.419992 v 2.949982 h -0.899995 v -7.139957 z m -0.05,0.779995 h -1.019994 v 2.649984 h 1.069994 q 0.869994,0 1.269992,-0.339998 0.399998,-0.349997 0.399998,-1.019993 0,-0.699996 -0.419998,-0.989994 -0.419997,-0.299999 -1.299992,-0.299999 z"
           id="path8013" />
        <path
           style="color:#000000;font-size:11.9999px;font-family:Verdana;-inkscape-font-specification:Verdana;fill:#ff0000;stroke:none;stroke-width:0.0650472;-inkscape-stroke:none"
           d="m 21.492187,20.501953 v 7.205078 h 0.964844 v -2.951172 h 1.369141 l 1.728515,2.951172 h 1.126954 l -1.972657,-3.220703 c 0.229585,-0.08616 0.449212,-0.194942 0.654297,-0.335937 0.224237,-0.156286 0.406685,-0.363881 0.548828,-0.621094 0.143329,-0.259357 0.214844,-0.580853 0.214844,-0.964844 0,-0.686061 -0.218158,-1.204966 -0.652344,-1.544922 -0.428696,-0.34704 -1.089651,-0.517578 -1.980468,-0.517578 z m 0.06445,0.06445 h 1.9375 c 0.882503,0 1.528155,0.168998 1.939453,0.501953 v 0.002 c 0.418208,0.326726 0.628906,0.820948 0.628906,1.494141 0,0.376003 -0.07036,0.686288 -0.207031,0.933594 -0.137854,0.249451 -0.313537,0.449231 -0.529297,0.599609 -0.211105,0.145135 -0.436448,0.259983 -0.673828,0.345703 l -0.03711,0.01367 1.949219,3.183594 h -0.972656 l -1.728516,-2.949219 h -1.472656 v 2.949219 h -0.833984 z m 0.833984,0.714844 v 2.714844 h 1.103516 c 0.584232,0 1.015484,-0.113456 1.291015,-0.347657 0.274405,-0.240103 0.41211,-0.591786 0.41211,-1.044921 0,-0.473169 -0.14548,-0.815342 -0.435547,-1.015625 -0.288758,-0.205656 -0.72883,-0.306641 -1.31836,-0.306641 z m 0.06641,0.06445 h 0.986328 c 0.582967,0 1.009995,0.101167 1.28125,0.294922 h 0.002 c 0.269931,0.18638 0.404297,0.502732 0.404297,0.962891 0,0.440191 -0.129746,0.769535 -0.388672,0.996093 -0.257799,0.21913 -0.672288,0.332032 -1.248046,0.332032 h -1.03711 z"
           id="path8015" />
        <path
           style="color:#000000;font-size:11.9999px;font-family:Verdana;-inkscape-font-specification:Verdana;fill:#000000;stroke:none;stroke-width:0.0650472;-inkscape-stroke:none"
           d="M 30.894052,27.673992 28.544066,21.41403 h -0.04 q 0.03,0.309998 0.05,0.839995 0.02,0.519997 0.02,1.089993 v 4.329974 h -0.829995 v -7.139957 h 1.329992 L 31.274049,26.384 h 0.04 l 2.239987,-5.849965 h 1.319992 v 7.139957 h -0.889995 v -4.389973 q 0,-0.519997 0.02,-1.029994 0.03,-0.509997 0.05,-0.829995 h -0.04 l -2.379986,6.249962 z"
           id="path8019" />
        <path
           style="color:#000000;font-size:11.9999px;font-family:Verdana;-inkscape-font-specification:Verdana;fill:#ff0000;stroke:none;stroke-width:0.0650472;-inkscape-stroke:none"
           d="m 27.710937,20.501953 v 7.205078 h 0.896485 V 23.34375 c 0,-0.380377 -0.0081,-0.744677 -0.02148,-1.091797 -0.01186,-0.314302 -0.02578,-0.549044 -0.04297,-0.748047 l 2.328125,6.203125 h 0.02344 0.761719 l 2.359375,-6.195312 c -0.01254,0.202515 -0.02709,0.437023 -0.04492,0.740234 -0.01335,0.34043 -0.01953,0.684169 -0.01953,1.03125 v 4.423828 h 0.955078 v -7.205078 h -1.375 l -2.236328,5.841797 -2.199219,-5.841797 z m 0.06641,0.06445 h 1.273437 l 2.201172,5.84961 h 0.08398 l 2.240235,-5.84961 h 1.265625 v 7.074219 H 34.015624 V 23.2832 c 0,-0.346247 0.0082,-0.687778 0.02148,-1.027344 0.02,-0.339972 0.0355,-0.616809 0.04883,-0.830078 l 0.002,-0.03516 h -0.0957 l -2.380859,6.25 h -0.695312 l -2.34961,-6.259766 h -0.09766 l 0.0039,0.03711 c 0.0199,0.205586 0.03551,0.484933 0.04883,0.83789 0.01332,0.346209 0.01953,0.708274 0.01953,1.087891 v 4.296875 h -0.763672 z"
           id="path8021" />
      </g>
    </g>
  </g>
</svg>
