<?xml version="1.0" encoding="UTF-8" standalone="no"?>
<svg
   width="48px"
   height="48px"
   id="svg2985"
   version="1.1"
   inkscape:version="1.2.2 (b0a8486541, 2022-12-01)"
   sodipodi:docname="roxterm.svg"
   sodipodi:version="0.32"
   inkscape:output_extension="org.inkscape.output.svg.inkscape"
   enable-background="new"
   xmlns:inkscape="http://www.inkscape.org/namespaces/inkscape"
   xmlns:sodipodi="http://sodipodi.sourceforge.net/DTD/sodipodi-0.dtd"
   xmlns="http://www.w3.org/2000/svg"
   xmlns:svg="http://www.w3.org/2000/svg"
   xmlns:rdf="http://www.w3.org/1999/02/22-rdf-syntax-ns#"
   xmlns:cc="http://creativecommons.org/ns#"
   xmlns:dc="http://purl.org/dc/elements/1.1/">
  <title
     id="title2983">xterm</title>
  <defs
     id="defs2987">
    <inkscape:perspective
       sodipodi:type="inkscape:persp3d"
       inkscape:vp_x="0 : 24 : 1"
       inkscape:vp_y="0 : 1000 : 0"
       inkscape:vp_z="48 : 24 : 1"
       inkscape:persp3d-origin="24 : 16 : 1"
       id="perspective11" />
  </defs>
  <sodipodi:namedview
     id="base"
     pagecolor="#ffffff"
     bordercolor="#666666"
     borderopacity="1.0"
     inkscape:pageopacity="0.0"
     inkscape:pageshadow="2"
     inkscape:zoom="11.343172"
     inkscape:cx="13.885005"
     inkscape:cy="29.709503"
     inkscape:current-layer="layer2"
     showgrid="true"
     inkscape:grid-bbox="true"
     inkscape:document-units="px"
     inkscape:window-width="1400"
     inkscape:window-height="985"
     inkscape:window-x="0"
     inkscape:window-y="36"
     inkscape:window-maximized="1"
     objecttolerance="2"
     inkscape:document-rotation="0"
     inkscape:showpageshadow="2"
     inkscape:pagecheckerboard="0"
     inkscape:deskcolor="#d1d1d1">
    <inkscape:grid
       type="xygrid"
       id="grid2988"
       empspacing="5"
       visible="true"
       enabled="false"
       snapvisiblegridlinesonly="true" />
  </sodipodi:namedview>
  <metadata
     id="metadata2990">
    <rdf:RDF>
      <cc:Work
         rdf:about="">
        <dc:format>image/svg+xml</dc:format>
        <dc:type
           rdf:resource="http://purl.org/dc/dcmitype/StillImage" />
        <dc:title>xterm</dc:title>
        <cc:license
           rdf:resource="http://creativecommons.org/licenses/by/4.0/" />
        <dc:creator>
          <cc:Agent>
            <dc:title>Thomas E. Dickey</dc:title>
          </cc:Agent>
        </dc:creator>
        <dc:rights>
          <cc:Agent>
            <dc:title>MIT-X11</dc:title>
          </cc:Agent>
        </dc:rights>
        <dc:description>XTerm icon, in SVG format.</dc:description>
        <dc:date>June 14, 2012</dc:date>
        <dc:source>https://invisible-island.net/xterm/xterm.icon.html</dc:source>
        <dc:identifier>https://invisible-island.net/xterm/images/icons-xterm_281.png</dc:identifier>
      </cc:Work>
      <cc:License
         rdf:about="http://creativecommons.org/licenses/by/4.0/">
        <cc:permits
           rdf:resource="http://creativecommons.org/ns#Reproduction" />
        <cc:permits
           rdf:resource="http://creativecommons.org/ns#Distribution" />
        <cc:requires
           rdf:resource="http://creativecommons.org/ns#Notice" />
        <cc:requires
           rdf:resource="http://creativecommons.org/ns#Attribution" />
        <cc:permits
           rdf:resource="http://creativecommons.org/ns#DerivativeWorks" />
      </cc:License>
    </rdf:RDF>
  </metadata>
  <g
     inkscape:groupmode="layer"
     id="layer2"
     inkscape:label="Layer"
     style="opacity:1;display:inline">
    <g
       id="g967"
       transform="matrix(0.93155758,0,0,0.91334573,2.1483574,2.0866543)">
      <path
         style="fill:none;fill-rule:evenodd;stroke:#000000;stroke-width:1px;stroke-linecap:butt;stroke-linejoin:miter;stroke-opacity:1"
         d="M 6.3639611,36.585276 41.51727,36.484261 v 5.9599 l -4.04061,4.04061 H 1.4142136 v -1.010152 z"
         id="path2386" />
      <path
         style="fill:none;fill-rule:evenodd;stroke:#000000;stroke-width:1px;stroke-linecap:butt;stroke-linejoin:miter;stroke-opacity:1"
         d="m 36.5,46.5 v -1 l 4.5,-9"
         id="path2388" />
      <path
         style="fill:none;fill-rule:evenodd;stroke:#000000;stroke-width:1px;stroke-linecap:butt;stroke-linejoin:miter;stroke-opacity:1"
         d="m 4.5,44.5 h 1"
         id="path2398" />
      <path
         style="fill:none;fill-rule:evenodd;stroke:#000000;stroke-width:1px;stroke-linecap:butt;stroke-linejoin:miter;stroke-opacity:1"
         d="m 7.5,44.5 h 25"
         id="path2400" />
      <path
         style="fill:none;fill-rule:evenodd;stroke:#000000;stroke-width:1px;stroke-linecap:butt;stroke-linejoin:miter;stroke-opacity:1"
         d="m 34.5,44.5 h 1"
         id="path2402" />
      <path
         style="fill:none;fill-rule:evenodd;stroke:#000000;stroke-width:1px;stroke-linecap:butt;stroke-linejoin:miter;stroke-opacity:1"
         d="m 7.5,5.5 v 24 l 2,2 h 27 l 2,-2 v -24 l -2,-2 h -27 z"
         id="path2406" />
      <path
         style="fill:none;fill-rule:evenodd;stroke:#000000;stroke-width:1px;stroke-linecap:butt;stroke-linejoin:miter;stroke-opacity:1"
         d="m 5.5,32.5 1,1 h 33 l 1,-1 v -30 l -1,-1 h -33 l -1,1 z"
         id="path2408" />
      <path
         style="fill:none;fill-rule:evenodd;stroke:#000000;stroke-width:1px;stroke-linecap:butt;stroke-linejoin:miter;stroke-opacity:1"
         d="m 40.5,32.5 h 1 l 4,-8 v -18 l -4,-4 h -1 z"
         id="path2410" />
      <path
         style="fill:none;fill-rule:evenodd;stroke:#000000;stroke-width:1px;stroke-linecap:butt;stroke-linejoin:miter;stroke-opacity:1"
         d="M 7.5,38.5 Z"
         id="path2395" />
      <circle
         id="path2413"
         style="fill:#000000;stroke:none"
         cx="7.5"
         cy="38.5"
         r="0.5" />
      <circle
         id="path2415"
         style="fill:#000000;stroke:none"
         cx="9.5"
         cy="38.5"
         r="0.5" />
      <circle
         id="path2419"
         style="fill:#000000;stroke:none"
         cx="11.5"
         cy="38.5"
         r="0.5" />
      <circle
         id="path2421"
         style="fill:#000000;stroke:none"
         cx="13.5"
         cy="38.5"
         r="0.5" />
      <circle
         id="path2423"
         style="fill:#000000;stroke:none"
         cx="15.5"
         cy="38.5"
         r="0.5" />
      <circle
         id="path2425"
         style="fill:#000000;stroke:none"
         cx="17.5"
         cy="38.5"
         r="0.5" />
      <circle
         id="path2427"
         style="fill:#000000;stroke:none"
         cx="19.5"
         cy="38.5"
         r="0.5" />
      <circle
         id="path2429"
         style="fill:#000000;stroke:none"
         cx="21.5"
         cy="38.5"
         r="0.5" />
      <circle
         id="path2431"
         style="fill:#000000;stroke:none"
         cx="23.5"
         cy="38.5"
         r="0.5" />
      <circle
         id="path2433"
         style="fill:#000000;stroke:none"
         cx="25.5"
         cy="38.5"
         r="0.5" />
      <circle
         id="path2435"
         style="fill:#000000;stroke:none"
         cx="27.5"
         cy="38.5"
         r="0.5" />
      <circle
         id="path2437"
         style="fill:#000000;stroke:none"
         cx="29.5"
         cy="38.5"
         r="0.5" />
      <circle
         id="path2439"
         style="fill:#000000;stroke:none"
         cx="31.5"
         cy="38.5"
         r="0.5" />
      <circle
         id="path2441"
         style="fill:#000000;stroke:none"
         cx="33.5"
         cy="38.5"
         r="0.5" />
      <circle
         id="path2443"
         style="fill:#000000;stroke:none"
         cx="35.5"
         cy="38.5"
         r="0.5" />
      <circle
         id="path2445"
         style="fill:#000000;stroke:none"
         cx="37.5"
         cy="38.5"
         r="0.5" />
      <circle
         id="path2447"
         style="fill:#000000;stroke:none"
         cx="6.5"
         cy="40.5"
         r="0.5" />
      <circle
         id="path2449"
         style="fill:#000000;stroke:none"
         cx="8.5"
         cy="40.5"
         r="0.5" />
      <circle
         id="path2451"
         style="fill:#000000;stroke:none"
         cx="10.5"
         cy="40.5"
         r="0.5" />
      <circle
         id="path2453"
         style="fill:#000000;stroke:none"
         cx="12.5"
         cy="40.5"
         r="0.5" />
      <circle
         id="path2455"
         style="fill:#000000;stroke:none"
         cx="14.5"
         cy="40.5"
         r="0.5" />
      <circle
         id="path2457"
         style="fill:#000000;stroke:none"
         cx="16.5"
         cy="40.5"
         r="0.5" />
      <circle
         id="path2461"
         style="fill:#000000;stroke:none"
         cx="18.5"
         cy="40.5"
         r="0.5" />
      <circle
         id="path2463"
         style="fill:#000000;stroke:none"
         cx="20.5"
         cy="40.5"
         r="0.5" />
      <circle
         id="path2465"
         style="fill:#000000;stroke:none"
         cx="22.5"
         cy="40.5"
         r="0.5" />
      <circle
         id="path2467"
         style="fill:#000000;stroke:none"
         cx="24.5"
         cy="40.5"
         r="0.5" />
      <circle
         id="path2469"
         style="fill:#000000;stroke:none"
         cx="26.5"
         cy="40.5"
         r="0.5" />
      <circle
         id="path2471"
         style="fill:#000000;stroke:none"
         cx="28.5"
         cy="40.5"
         r="0.5" />
      <circle
         id="path2473"
         style="fill:#000000;stroke:none"
         cx="30.5"
         cy="40.5"
         r="0.5" />
      <circle
         id="path2475"
         style="fill:#000000;stroke:none"
         cx="32.5"
         cy="40.5"
         r="0.5" />
      <circle
         id="path2477"
         style="fill:#000000;stroke:none"
         cx="34.5"
         cy="40.5"
         r="0.5" />
      <circle
         id="path2479"
         style="fill:#000000;stroke:none"
         cx="36.5"
         cy="40.5"
         r="0.5" />
      <circle
         id="path2481"
         style="fill:#000000;stroke:none"
         cx="5.5"
         cy="42.5"
         r="0.5" />
      <circle
         id="path2483"
         style="fill:#000000;stroke:none"
         cx="7.5"
         cy="42.5"
         r="0.5" />
      <circle
         id="path2485"
         style="fill:#000000;stroke:none"
         cx="9.5"
         cy="42.5"
         r="0.5" />
      <circle
         id="path2487"
         style="fill:#000000;stroke:none"
         cx="11.5"
         cy="42.5"
         r="0.5" />
      <circle
         id="path2489"
         style="fill:#000000;stroke:none"
         cx="13.5"
         cy="42.5"
         r="0.5" />
      <circle
         id="path2491"
         style="fill:#000000;stroke:none"
         cx="15.5"
         cy="42.5"
         r="0.5" />
      <circle
         id="path2493"
         style="fill:#000000;stroke:none"
         cx="17.5"
         cy="42.5"
         r="0.5" />
      <circle
         id="path2495"
         style="fill:#000000;stroke:none"
         cx="19.5"
         cy="42.5"
         r="0.5" />
      <circle
         id="path2497"
         style="fill:#000000;stroke:none"
         cx="21.5"
         cy="42.5"
         r="0.5" />
      <circle
         id="path2499"
         style="fill:#000000;stroke:none"
         cx="23.5"
         cy="42.5"
         r="0.5" />
      <circle
         id="path2501"
         style="fill:#000000;stroke:none"
         cx="25.5"
         cy="42.5"
         r="0.5" />
      <circle
         id="path2503"
         style="fill:#000000;stroke:none"
         cx="27.5"
         cy="42.5"
         r="0.5" />
      <circle
         id="path2505"
         style="fill:#000000;stroke:none"
         cx="29.5"
         cy="42.5"
         r="0.5" />
      <circle
         id="path2507"
         style="fill:#000000;stroke:none"
         cx="31.5"
         cy="42.5"
         r="0.5" />
      <circle
         id="path2509"
         style="fill:#000000;stroke:none"
         cx="33.5"
         cy="42.5"
         r="0.5" />
      <circle
         id="path2511"
         style="fill:#000000;stroke:none"
         cx="35.5"
         cy="42.5"
         r="0.5" />
      <circle
         id="path2513"
         style="fill:#000000;stroke:none"
         cx="4.5"
         cy="44.5"
         r="0.5" />
      <circle
         id="path2517"
         style="fill:#000000;stroke:none"
         cx="5.5"
         cy="44.5"
         r="0.5" />
      <circle
         id="path2519"
         style="fill:#000000;stroke:none"
         cx="34.5"
         cy="44.5"
         r="0.5" />
      <circle
         id="path2521"
         style="fill:#000000;stroke:none"
         cx="35.5"
         cy="44.5"
         r="0.5" />
      <circle
         id="path2523"
         style="fill:#000000;stroke:none"
         cx="7.5"
         cy="44.5"
         r="0.5" />
      <circle
         id="path2529"
         style="fill:#000000;stroke:none"
         cx="32.5"
         cy="44.5"
         r="0.5" />
      <g
         id="g4154"
         transform="translate(0.10857759,-0.15558473)">
        <path
           d="m 9.5064197,17.392376 v -0.588 h 0.084 q 0.5040003,0 0.7840003,-0.21 0.294,-0.224 0.672,-0.77 l 2.338,-3.346 -2.31,-3.7520001 q -0.252,-0.406 -0.574,-0.574 -0.308,-0.168 -0.6300003,-0.168 h -0.182 v -0.588 H 13.48242 v 0.588 h -0.042 q -0.476,0 -0.644,0.126 -0.154,0.112 -0.154,0.28 0,0.14 0.056,0.308 0.056,0.154 0.28,0.518 l 1.26,2.0440001 1.33,-2.0160001 q 0.154,-0.238 0.252,-0.448 0.098,-0.224 0.098,-0.406 0,-0.252 -0.224,-0.322 -0.21,-0.084 -0.532,-0.084 h -0.042 v -0.588 h 3.066 v 0.588 h -0.126 q -0.406,0 -0.7,0.224 -0.28,0.21 -0.686,0.784 l -2.03,2.9260001 2.576,4.144 q 0.308,0.406 0.574,0.574 0.28,0.168 0.546,0.168 h 0.182 v 0.588 h -3.78 v -0.588 h 0.07 q 0.84,0 0.84,-0.462 0,-0.154 -0.084,-0.322 -0.084,-0.182 -0.378,-0.644 l -1.386,-2.226 -1.554,2.296 q -0.112,0.182 -0.238,0.448 -0.126,0.252 -0.126,0.476 0,0.434 0.91,0.434 h 0.042 v 0.588 z"
           style="font-size:14px;line-height:1.25;font-family:serif;-inkscape-font-specification:Serif;stroke-width:1px"
           id="path4130" />
        <path
           d="m 12.523404,27.796949 h -0.9 v -6.35 H 9.3934036 v -0.79 h 5.3500004 v 0.79 h -2.22 z"
           style="font-size:10px;line-height:1.25;font-family:Verdana;-inkscape-font-specification:Verdana;stroke-width:1px"
           id="path4142" />
        <path
           d="m 19.813401,27.796949 h -3.99 v -7.14 h 3.99 v 0.79 h -3.09 v 2.23 h 2.91 v 0.78 h -2.91 v 2.55 h 3.09 z"
           style="font-size:10px;line-height:1.25;font-family:Verdana;-inkscape-font-specification:Verdana;stroke-width:1px"
           id="path4139" />
        <path
           d="m 23.353399,20.656949 q 1.33,0 1.96,0.51 0.64,0.5 0.64,1.52 0,0.57 -0.21,0.95 -0.21,0.38 -0.54,0.61 -0.32,0.22 -0.68,0.35 l 1.96,3.2 h -1.05 l -1.73,-2.95 h -1.42 v 2.95 h -0.9 v -7.14 z m -0.05,0.78 h -1.02 v 2.65 h 1.07 q 0.87,0 1.27,-0.34 0.4,-0.35 0.4,-1.02 0,-0.7 -0.42,-0.99 -0.42,-0.3 -1.3,-0.3 z"
           style="font-size:10px;line-height:1.25;font-family:Verdana;-inkscape-font-specification:Verdana;stroke-width:1px"
           id="path4136" />
        <path
           d="m 30.753396,27.796949 -2.35,-6.26 h -0.04 q 0.03,0.31 0.05,0.84 0.02,0.52 0.02,1.09 v 4.33 h -0.83 v -7.14 h 1.33 l 2.2,5.85 h 0.04 l 2.24,-5.85 h 1.32 v 7.14 h -0.89 v -4.39 q 0,-0.52 0.02,-1.03 0.03,-0.51 0.05,-0.83 h -0.04 l -2.38,6.25 z"
           style="font-size:10px;line-height:1.25;font-family:Verdana;-inkscape-font-specification:Verdana;stroke-width:1px"
           id="path4133" />
      </g>
    </g>
  </g>
</svg>
