<?xml version="1.0" encoding="UTF-8" standalone="no"?>
<svg
   xmlns:dc="http://purl.org/dc/elements/1.1/"
   xmlns:cc="http://creativecommons.org/ns#"
   xmlns:rdf="http://www.w3.org/1999/02/22-rdf-syntax-ns#"
   xmlns:svg="http://www.w3.org/2000/svg"
   xmlns="http://www.w3.org/2000/svg"
   xmlns:sodipodi="http://sodipodi.sourceforge.net/DTD/sodipodi-0.dtd"
   xmlns:inkscape="http://www.inkscape.org/namespaces/inkscape"
   width="48"
   height="48"
   viewBox="0 0 12.7 12.7"
   version="1.1"
   id="svg8"
   inkscape:version="1.0.2 (e86c870879, 2021-01-15)"
   sodipodi:docname="down.svg">
  <defs
     id="defs2" />
  <sodipodi:namedview
     id="base"
     pagecolor="#ffffff"
     bordercolor="#666666"
     borderopacity="1.0"
     inkscape:pageopacity="0.0"
     inkscape:pageshadow="2"
     inkscape:zoom="15.979167"
     inkscape:cx="24"
     inkscape:cy="24"
     inkscape:document-units="mm"
     inkscape:current-layer="layer1"
     inkscape:document-rotation="0"
     showgrid="true"
     units="px"
     inkscape:window-width="1680"
     inkscape:window-height="982"
     inkscape:window-x="0"
     inkscape:window-y="37"
     inkscape:window-maximized="1">
    <inkscape:grid
       type="xygrid"
       id="grid833"
       empspacing="1" />
  </sodipodi:namedview>
  <metadata
     id="metadata5">
    <rdf:RDF>
      <cc:Work
         rdf:about="">
        <dc:format>image/svg+xml</dc:format>
        <dc:type
           rdf:resource="http://purl.org/dc/dcmitype/StillImage" />
        <dc:title />
      </cc:Work>
    </rdf:RDF>
  </metadata>
  <g
     inkscape:label="Layer 1"
     inkscape:groupmode="layer"
     id="layer1">
    <path
       id="rect1173"
       style="fill:#959595;fill-opacity:1;stroke:none;stroke-width:1.11124;stroke-linecap:round;stroke-linejoin:round;stroke-miterlimit:4;stroke-dasharray:none;stroke-opacity:1"
       d="m 5.8056362,1 v 8.5121413 l -3.10472,-3.0768141 a 0.52916502,0.52916502 0 0 0 -0.3865395,-0.1545124 0.52916502,0.52916502 0 0 0 -0.361218,0.1560626 0.52916502,0.52916502 0 0 0 0.0036,0.7482747 l 3.9925221,3.9589319 a 0.52916502,0.52916502 0 0 0 0.011369,0.01085 0.52916502,0.52916502 0 0 0 0.058911,0.06925 0.52916502,0.52916502 0 0 0 0.7498249,-0.0078 L 10.740219,7.1675822 A 0.52916502,0.52916502 0 0 0 10.732468,6.4193075 0.52916502,0.52916502 0 0 0 10.345411,6.2689292 0.52916502,0.52916502 0 0 0 9.984193,6.4275757 L 6.9316658,9.5400463 V 1 Z" />
  </g>
</svg>
