<?xml version="1.0" encoding="UTF-8" standalone="no"?>
<svg
   xmlns:dc="http://purl.org/dc/elements/1.1/"
   xmlns:cc="http://creativecommons.org/ns#"
   xmlns:rdf="http://www.w3.org/1999/02/22-rdf-syntax-ns#"
   xmlns:svg="http://www.w3.org/2000/svg"
   xmlns="http://www.w3.org/2000/svg"
   xmlns:sodipodi="http://sodipodi.sourceforge.net/DTD/sodipodi-0.dtd"
   xmlns:inkscape="http://www.inkscape.org/namespaces/inkscape"
   width="48"
   height="48"
   viewBox="0 0 12.7 12.7"
   version="1.1"
   id="svg8"
   inkscape:version="1.0.2 (e86c870879, 2021-01-15)"
   sodipodi:docname="next-stop.svg">
  <defs
     id="defs2" />
  <sodipodi:namedview
     id="base"
     pagecolor="#ffffff"
     bordercolor="#666666"
     borderopacity="1.0"
     inkscape:pageopacity="0.0"
     inkscape:pageshadow="2"
     inkscape:zoom="15.979167"
     inkscape:cx="24"
     inkscape:cy="24"
     inkscape:document-units="mm"
     inkscape:current-layer="layer1"
     inkscape:document-rotation="0"
     showgrid="true"
     units="px"
     inkscape:window-width="1680"
     inkscape:window-height="982"
     inkscape:window-x="0"
     inkscape:window-y="37"
     inkscape:window-maximized="1">
    <inkscape:grid
       type="xygrid"
       id="grid833"
       empspacing="1" />
  </sodipodi:namedview>
  <metadata
     id="metadata5">
    <rdf:RDF>
      <cc:Work
         rdf:about="">
        <dc:format>image/svg+xml</dc:format>
        <dc:type
           rdf:resource="http://purl.org/dc/dcmitype/StillImage" />
        <dc:title />
      </cc:Work>
    </rdf:RDF>
  </metadata>
  <g
     inkscape:label="Layer 1"
     inkscape:groupmode="layer"
     id="layer1">
    <g
       id="g847">
      <path
         id="rect1173"
         style="opacity:1;fill:#959595;fill-opacity:1;stroke:none;stroke-width:1.11124;stroke-linecap:round;stroke-linejoin:round;stroke-miterlimit:4;stroke-dasharray:none;stroke-opacity:1"
         d="M 1.0129764,6.9241115 9.525,6.8791667 6.4646212,10.00009 a 0.52916502,0.52916502 0 0 0 -0.1524692,0.38735 0.52916502,0.52916502 0 0 0 0.1579677,0.360389 0.52916502,0.52916502 0 0 0 0.7482452,-0.0076 L 11.156161,6.7269066 a 0.52916502,0.52916502 0 0 0 0.01079,-0.011426 0.52916502,0.52916502 0 0 0 0.06894,-0.059275 0.52916502,0.52916502 0 0 0 -0.01178,-0.7497731 L 7.1544173,1.9570318 A 0.52916502,0.52916502 0 0 0 6.4061941,1.9687337 0.52916502,0.52916502 0 0 0 6.2578615,2.3565793 0.52916502,0.52916502 0 0 0 6.418413,2.7169546 L 9.546958,5.753005 1.0070308,5.798098 Z" />
      <path
         id="rect917"
         style="fill:#959595;fill-opacity:1;stroke:none;stroke-width:0.132292;stroke-linecap:round"
         d="m 10.246518,1.8520833 h 1.130565 v 8.9958337 h -1.130565 z" />
    </g>
  </g>
</svg>
