<?xml version="1.0" encoding="UTF-8" standalone="no"?>
<svg
   xmlns:dc="http://purl.org/dc/elements/1.1/"
   xmlns:cc="http://creativecommons.org/ns#"
   xmlns:rdf="http://www.w3.org/1999/02/22-rdf-syntax-ns#"
   xmlns:svg="http://www.w3.org/2000/svg"
   xmlns="http://www.w3.org/2000/svg"
   xmlns:sodipodi="http://sodipodi.sourceforge.net/DTD/sodipodi-0.dtd"
   xmlns:inkscape="http://www.inkscape.org/namespaces/inkscape"
   width="48"
   height="48"
   viewBox="0 0 12.7 12.7"
   version="1.1"
   id="svg8"
   inkscape:version="1.0.2 (e86c870879, 2021-01-15)"
   sodipodi:docname="prev.svg">
  <defs
     id="defs2" />
  <sodipodi:namedview
     id="base"
     pagecolor="#ffffff"
     bordercolor="#666666"
     borderopacity="1.0"
     inkscape:pageopacity="0.0"
     inkscape:pageshadow="2"
     inkscape:zoom="15.979167"
     inkscape:cx="24"
     inkscape:cy="24"
     inkscape:document-units="mm"
     inkscape:current-layer="layer1"
     inkscape:document-rotation="0"
     showgrid="true"
     units="px"
     inkscape:window-width="1680"
     inkscape:window-height="982"
     inkscape:window-x="0"
     inkscape:window-y="37"
     inkscape:window-maximized="1">
    <inkscape:grid
       type="xygrid"
       id="grid833"
       empspacing="1" />
  </sodipodi:namedview>
  <metadata
     id="metadata5">
    <rdf:RDF>
      <cc:Work
         rdf:about="">
        <dc:format>image/svg+xml</dc:format>
        <dc:type
           rdf:resource="http://purl.org/dc/dcmitype/StillImage" />
        <dc:title />
      </cc:Work>
    </rdf:RDF>
  </metadata>
  <g
     inkscape:label="Layer 1"
     inkscape:groupmode="layer"
     id="layer1">
    <path
       id="rect1173"
       style="opacity:1;fill:#959595;fill-opacity:1;stroke:none;stroke-width:1.11124;stroke-linecap:round;stroke-linejoin:round;stroke-miterlimit:4;stroke-dasharray:none;stroke-opacity:1"
       d="M 11.384967,5.8296971 2.8728854,5.7976433 5.9613698,2.7045308 A 0.52916502,0.52916502 0 0 0 6.1173365,2.3185759 0.52916502,0.52916502 0 0 0 5.9626353,1.9567726 0.52916502,0.52916502 0 0 0 5.2143519,1.957604 l -3.973938,3.9775382 a 0.52916502,0.52916502 0 0 0 -0.010893,0.011328 0.52916502,0.52916502 0 0 0 -0.069473,0.05865 0.52916502,0.52916502 0 0 0 0.005,0.749849 L 5.1988418,10.74102 A 0.52916502,0.52916502 0 0 0 5.9471396,10.73602 0.52916502,0.52916502 0 0 0 6.0989804,10.3496 0.52916502,0.52916502 0 0 0 5.9416953,9.9877862 L 2.8407414,6.9235603 11.380727,6.9557184 Z" />
  </g>
</svg>
