<?xml version="1.0" encoding="UTF-8" standalone="no"?>
<svg
   width="48"
   height="48"
   viewBox="0 0 12.699999 12.7"
   version="1.1"
   id="svg8"
   inkscape:version="1.2.2 (b0a8486541, 2022-12-01)"
   sodipodi:docname="error.svg"
   xmlns:inkscape="http://www.inkscape.org/namespaces/inkscape"
   xmlns:sodipodi="http://sodipodi.sourceforge.net/DTD/sodipodi-0.dtd"
   xmlns="http://www.w3.org/2000/svg"
   xmlns:svg="http://www.w3.org/2000/svg"
   xmlns:rdf="http://www.w3.org/1999/02/22-rdf-syntax-ns#"
   xmlns:cc="http://creativecommons.org/ns#"
   xmlns:dc="http://purl.org/dc/elements/1.1/">
  <defs
     id="defs2">
    <marker
       style="overflow:visible"
       id="Arrow1Lstart"
       refX="0"
       refY="0"
       orient="auto"
       inkscape:stockid="Arrow1Lstart"
       inkscape:isstock="true">
      <path
         transform="matrix(0.8,0,0,0.8,10,0)"
         style="fill-rule:evenodd;stroke:#000000;stroke-width:1pt"
         d="M 0,0 5,-5 -12.5,0 5,5 Z"
         id="path951" />
    </marker>
  </defs>
  <sodipodi:namedview
     id="base"
     pagecolor="#ffffff"
     bordercolor="#666666"
     borderopacity="1.0"
     inkscape:pageopacity="0.0"
     inkscape:pageshadow="2"
     inkscape:zoom="16.020833"
     inkscape:cx="24"
     inkscape:cy="23.968791"
     inkscape:document-units="mm"
     inkscape:current-layer="layer1"
     inkscape:document-rotation="0"
     showgrid="true"
     units="px"
     inkscape:window-width="1680"
     inkscape:window-height="985"
     inkscape:window-x="0"
     inkscape:window-y="36"
     inkscape:window-maximized="1"
     inkscape:showpageshadow="2"
     inkscape:pagecheckerboard="0"
     inkscape:deskcolor="#d1d1d1">
    <inkscape:grid
       type="xygrid"
       id="grid939" />
  </sodipodi:namedview>
  <metadata
     id="metadata5">
    <rdf:RDF>
      <cc:Work
         rdf:about="">
        <dc:format>image/svg+xml</dc:format>
        <dc:type
           rdf:resource="http://purl.org/dc/dcmitype/StillImage" />
      </cc:Work>
    </rdf:RDF>
  </metadata>
  <g
     inkscape:label="Layer 1"
     inkscape:groupmode="layer"
     id="layer1">
    <g
       id="g2113"
       style="stroke-width:0.26458333;stroke-dasharray:none">
      <circle
         style="fill:#ff0048;fill-opacity:1;stroke:#000000;stroke-width:0.26458333;stroke-miterlimit:4;stroke-dasharray:none;stroke-opacity:1"
         id="path833"
         cx="6.3500004"
         cy="6.3500004"
         r="5.953125" />
      <path
         id="path943"
         style="color:#000000;fill:#ffffff;stroke-width:0.26458333;stroke-linecap:round;stroke-dasharray:none"
         d="M 8.7392311,3.4395887 A 0.50167993,0.50317105 0 0 0 8.3854236,3.5862845 L 6.348584,5.6286615 4.3153494,3.5899003 a 0.50167993,0.50317105 0 0 0 -0.7086451,0 0.50167993,0.50317105 0 0 0 0,0.7107513 L 5.6394239,6.3399294 3.5871343,8.398319 a 0.50167993,0.50317105 0 0 0 0,0.7128175 0.50167993,0.50317105 0 0 0 0.7107051,0 L 6.349614,7.0527469 8.4029337,9.1126861 a 0.50167993,0.50317105 0 0 0 0.7101901,0 0.50167993,0.50317105 0 0 0 0,-0.7123009 L 7.059289,6.3409624 9.0956137,4.2985854 a 0.50167993,0.50317105 0 0 0 0,-0.7123009 0.50167993,0.50317105 0 0 0 -0.3563826,-0.1466958 z" />
    </g>
  </g>
</svg>
