<?xml version="1.0" encoding="UTF-8" standalone="no"?>
<svg
   width="48"
   height="48"
   viewBox="0 0 12.699999 12.7"
   version="1.1"
   id="svg8"
   inkscape:version="1.2.2 (b0a8486541, 2022-12-01)"
   sodipodi:docname="emblem-dialog-question.svg"
   xmlns:inkscape="http://www.inkscape.org/namespaces/inkscape"
   xmlns:sodipodi="http://sodipodi.sourceforge.net/DTD/sodipodi-0.dtd"
   xmlns="http://www.w3.org/2000/svg"
   xmlns:svg="http://www.w3.org/2000/svg"
   xmlns:rdf="http://www.w3.org/1999/02/22-rdf-syntax-ns#"
   xmlns:cc="http://creativecommons.org/ns#"
   xmlns:dc="http://purl.org/dc/elements/1.1/">
  <defs
     id="defs2">
    <marker
       style="overflow:visible"
       id="Arrow1Lstart"
       refX="0"
       refY="0"
       orient="auto"
       inkscape:stockid="Arrow1Lstart"
       inkscape:isstock="true">
      <path
         transform="matrix(0.8,0,0,0.8,10,0)"
         style="fill-rule:evenodd;stroke:#000000;stroke-width:1pt"
         d="M 0,0 5,-5 -12.5,0 5,5 Z"
         id="path951" />
    </marker>
  </defs>
  <sodipodi:namedview
     id="base"
     pagecolor="#ffffff"
     bordercolor="#666666"
     borderopacity="1.0"
     inkscape:pageopacity="0.0"
     inkscape:pageshadow="2"
     inkscape:zoom="16.020833"
     inkscape:cx="24"
     inkscape:cy="23.968791"
     inkscape:document-units="mm"
     inkscape:current-layer="layer1"
     inkscape:document-rotation="0"
     showgrid="true"
     units="px"
     inkscape:window-width="1680"
     inkscape:window-height="985"
     inkscape:window-x="0"
     inkscape:window-y="36"
     inkscape:window-maximized="1"
     inkscape:showpageshadow="2"
     inkscape:pagecheckerboard="0"
     inkscape:deskcolor="#d1d1d1">
    <inkscape:grid
       type="xygrid"
       id="grid939" />
  </sodipodi:namedview>
  <metadata
     id="metadata5">
    <rdf:RDF>
      <cc:Work
         rdf:about="">
        <dc:format>image/svg+xml</dc:format>
        <dc:type
           rdf:resource="http://purl.org/dc/dcmitype/StillImage" />
      </cc:Work>
    </rdf:RDF>
  </metadata>
  <g
     inkscape:label="Layer 1"
     inkscape:groupmode="layer"
     id="layer1">
    <g
       id="g851"
       transform="matrix(0.89804348,0,0,0.89804345,6.7464728,6.5104804)"
       style="stroke-width:1.11354">
      <g
         id="g852"
         transform="matrix(0.10222222,0,0,0.10222222,-7.3538134,-7.117891)"
         style="stroke-width:1.11354">
        <g
           id="g1225"
           transform="matrix(0.98039214,0,0,0.98039214,-31.098536,-96.461019)"
           style="stroke-width:2.93982;stroke-miterlimit:4;stroke-dasharray:none">
          <circle
             style="fill:#f4dc3a;fill-opacity:1;stroke:#000000;stroke-width:2.93982;stroke-miterlimit:4;stroke-dasharray:none;stroke-opacity:1"
             id="path833"
             cx="100.69353"
             cy="167.6313"
             r="66.145836" />
        </g>
        <g
           id="g1096"
           transform="translate(2.9634258,-2.9273227)"
           style="stroke-width:1.11354">
          <g
             aria-label="?"
             id="text1084"
             style="font-style:normal;font-weight:normal;font-size:10.5833px;line-height:1.25;font-family:sans-serif;fill:#ffffff;fill-opacity:1;stroke:none;stroke-width:0.274476"
             transform="matrix(1.0522413,0,0,1.0949862,-4.9528188,-6.0120043)">
            <path
               d="m 36.024165,51.30517 c 0.475422,-11.29127 4.417462,-19.294205 11.826119,-24.008805 4.674982,-3.011005 10.419663,-4.516508 17.234043,-4.516508 8.953779,0 16.382246,2.139398 22.285401,6.418195 5.942773,4.278797 8.91416,10.617756 8.91416,19.016875 0,5.150404 -1.287601,9.488629 -3.862803,13.014674 -1.505503,2.139399 -4.397652,4.873075 -8.676449,8.201028 l -4.219369,3.268525 c -2.297873,1.782832 -3.823185,3.862803 -4.575936,6.239912 -0.475422,1.505503 -0.732942,3.842994 -0.77256,7.012473 H 58.131282 c 0.237711,-6.695525 0.871607,-11.311079 1.901688,-13.846662 1.030081,-2.575202 3.684519,-5.52678 7.963316,-8.854733 l 4.338225,-3.387381 c 1.426265,-1.069699 2.575202,-2.238445 3.446809,-3.506236 1.584739,-2.179017 2.377109,-4.575935 2.377109,-7.190756 0,-3.011005 -0.891416,-5.744681 -2.674248,-8.201027 -1.743213,-2.495965 -4.952311,-3.743948 -9.627293,-3.743948 -4.595745,0 -7.86427,1.525312 -9.805576,4.575936 -1.901688,3.050624 -2.852532,6.220103 -2.852532,9.508438 z"
               style="font-style:normal;font-variant:normal;font-weight:bold;font-stretch:normal;font-size:121.708px;font-family:Helvetica;-inkscape-font-specification:'Helvetica Bold';fill:#ffffff;stroke-width:0.274476"
               id="path1088"
               sodipodi:nodetypes="ccscsccccccccccscsccc" />
          </g>
          <ellipse
             style="fill:#ffffff;fill-opacity:1;stroke-width:0.883866;stroke-linecap:round;stroke-miterlimit:4;stroke-dasharray:none"
             id="path1091"
             cx="64.657181"
             cy="108.27895"
             rx="14.410857"
             ry="14.410858" />
        </g>
      </g>
    </g>
  </g>
</svg>
