<?xml version="1.0" encoding="UTF-8" standalone="no"?>
<svg
   xmlns:dc="http://purl.org/dc/elements/1.1/"
   xmlns:cc="http://creativecommons.org/ns#"
   xmlns:rdf="http://www.w3.org/1999/02/22-rdf-syntax-ns#"
   xmlns:svg="http://www.w3.org/2000/svg"
   xmlns="http://www.w3.org/2000/svg"
   xmlns:sodipodi="http://sodipodi.sourceforge.net/DTD/sodipodi-0.dtd"
   xmlns:inkscape="http://www.inkscape.org/namespaces/inkscape"
   width="512"
   height="512"
   viewBox="0 0 135.46666 135.46667"
   version="1.1"
   id="svg8"
   inkscape:version="1.0.2 (e86c870879, 2021-01-15)"
   sodipodi:docname="emblem-nowrite.svg">
  <defs
     id="defs2">
    <marker
       style="overflow:visible"
       id="Arrow1Lstart"
       refX="0"
       refY="0"
       orient="auto"
       inkscape:stockid="Arrow1Lstart"
       inkscape:isstock="true">
      <path
         transform="matrix(0.8,0,0,0.8,10,0)"
         style="fill-rule:evenodd;stroke:#000000;stroke-width:1pt"
         d="M 0,0 5,-5 -12.5,0 5,5 Z"
         id="path951" />
    </marker>
  </defs>
  <sodipodi:namedview
     id="base"
     pagecolor="#ffffff"
     bordercolor="#666666"
     borderopacity="1.0"
     inkscape:pageopacity="0.0"
     inkscape:pageshadow="2"
     inkscape:zoom="1.4980469"
     inkscape:cx="206.5956"
     inkscape:cy="256"
     inkscape:document-units="mm"
     inkscape:current-layer="layer1"
     inkscape:document-rotation="0"
     showgrid="true"
     units="px"
     inkscape:window-width="1680"
     inkscape:window-height="982"
     inkscape:window-x="0"
     inkscape:window-y="37"
     inkscape:window-maximized="1">
    <inkscape:grid
       type="xygrid"
       id="grid939" />
  </sodipodi:namedview>
  <metadata
     id="metadata5">
    <rdf:RDF>
      <cc:Work
         rdf:about="">
        <dc:format>image/svg+xml</dc:format>
        <dc:type
           rdf:resource="http://purl.org/dc/dcmitype/StillImage" />
        <dc:title />
      </cc:Work>
    </rdf:RDF>
  </metadata>
  <g
     inkscape:label="Layer 1"
     inkscape:groupmode="layer"
     id="layer1">
    <g
       id="g888"
       transform="matrix(0.90575998,0,0,0.90575998,6.7498794,6.5118591)"
       style="stroke-width:1.10405">
      <g
         id="g1225"
         transform="matrix(0.98039214,0,0,0.98039214,-31.098536,-96.461019)"
         style="stroke-width:1.78773;stroke-miterlimit:4;stroke-dasharray:none">
        <circle
           style="fill:#f3a300;fill-opacity:1;stroke:#000000;stroke-width:1.78773;stroke-miterlimit:4;stroke-dasharray:none;stroke-opacity:1"
           id="path833"
           cx="100.69353"
           cy="167.6313"
           r="66.145836" />
      </g>
      <g
         id="g881"
         style="stroke-width:1.10405">
        <path
           id="rect996"
           style="fill:#ffffff;fill-opacity:1;stroke:none;stroke-width:16.5607;stroke-linecap:round;stroke-miterlimit:4;stroke-dasharray:none"
           d="m 260.25586,104.31445 c -48.45523,1e-5 -87.16603,40.87175 -88.06641,88.76563 -0.14302,7.60858 -0.58522,14.47706 -0.59765,21.12109 v 0.006 c -0.0138,7.71195 -0.0916,14.08388 0.21093,19.79297 H 149 V 384 H 369 V 234 h -22.50195 c 0.32221,-10.36117 -4.6e-4,-23.02816 0.32617,-39.75391 0.9413,-48.2012 -37.9784,-89.93163 -86.56836,-89.93164 z m 0,25.00196 c 34.12915,0 62.24406,30.03478 61.57226,64.43554 -0.34713,17.77625 -0.0384,31.10375 -0.3457,40.24805 H 196.92773 c -0.28146,-4.70485 -0.35494,-11.31118 -0.33984,-19.74805 0.0102,-5.47411 0.44247,-12.45135 0.59766,-20.70703 0.65179,-34.67075 28.80642,-64.22851 63.07031,-64.22851 z"
           transform="scale(0.26458333)" />
        <path
           id="rect998"
           style="fill:#f3a300;fill-opacity:1;stroke:none;stroke-width:4.38169;stroke-linecap:round;stroke-miterlimit:4;stroke-dasharray:none"
           d="m 63.235417,72.495829 h 11.90625 v 18.520838 h -11.90625 z" />
      </g>
    </g>
  </g>
</svg>
