<?xml version="1.0" encoding="UTF-8" standalone="no"?>
<svg
   xmlns:dc="http://purl.org/dc/elements/1.1/"
   xmlns:cc="http://creativecommons.org/ns#"
   xmlns:rdf="http://www.w3.org/1999/02/22-rdf-syntax-ns#"
   xmlns:svg="http://www.w3.org/2000/svg"
   xmlns="http://www.w3.org/2000/svg"
   xmlns:sodipodi="http://sodipodi.sourceforge.net/DTD/sodipodi-0.dtd"
   xmlns:inkscape="http://www.inkscape.org/namespaces/inkscape"
   width="48"
   height="48"
   viewBox="0 0 12.7 12.7"
   version="1.1"
   id="svg8"
   sodipodi:docname="lock.svg"
   inkscape:version="1.0.2 (e86c870879, 2021-01-15)">
  <defs
     id="defs2" />
  <sodipodi:namedview
     id="base"
     pagecolor="#ffffff"
     bordercolor="#666666"
     borderopacity="1.0"
     inkscape:pageopacity="0.0"
     inkscape:pageshadow="2"
     inkscape:zoom="15.3125"
     inkscape:cx="24"
     inkscape:cy="24"
     inkscape:document-units="mm"
     inkscape:current-layer="layer1"
     inkscape:document-rotation="0"
     showgrid="true"
     units="px"
     inkscape:window-width="1455"
     inkscape:window-height="950"
     inkscape:window-x="0"
     inkscape:window-y="37"
     inkscape:window-maximized="0">
    <inkscape:grid
       type="xygrid"
       id="grid833"
       empspacing="1" />
  </sodipodi:namedview>
  <metadata
     id="metadata5">
    <rdf:RDF>
      <cc:Work
         rdf:about="">
        <dc:format>image/svg+xml</dc:format>
        <dc:type
           rdf:resource="http://purl.org/dc/dcmitype/StillImage" />
        <dc:title></dc:title>
      </cc:Work>
    </rdf:RDF>
  </metadata>
  <g
     inkscape:label="Layer 1"
     inkscape:groupmode="layer"
     id="layer1">
    <path
       id="rect996"
       style="fill:#f3a300;fill-opacity:1;stroke:none;stroke-width:5.08003;stroke-linecap:round;stroke-miterlimit:4;stroke-dasharray:none"
       d="m 5.895578,2.0068645 c -1.4668411,4e-7 -2.6384205,1.2376574 -2.6656771,2.6875053 -0.00433,0.2303275 -0.017483,0.4378401 -0.017859,0.6389688 V 5.334 c -4.179e-4,0.2334569 -0.00321,0.4257938 0.00595,0.5986198 H 2.5280938 V 10.473531 H 9.1876561 V 5.9326198 H 8.5063543 c 0.00975,-0.3136541 3.39e-5,-0.6968693 0.00992,-1.2031926 C 8.544771,3.2702761 7.3664978,2.0068649 5.895578,2.0068645 Z m 0,0.7567084 c 1.0331606,0 1.8843265,0.9092577 1.8639895,1.9506407 -0.010509,0.5381244 -0.00128,0.9415892 -0.010583,1.2184062 H 3.9786719 C 3.9701514,5.7901942 3.9682928,5.5907246 3.96875,5.3353229 3.9690588,5.1696102 3.9819112,4.9581772 3.9866092,4.7082605 4.0063403,3.6587044 4.8583386,2.7635729 5.895578,2.7635729 Z M 5.2526407,7.14375 H 6.6145833 V 9.2630627 H 5.2526407 Z" />
  </g>
</svg>
