<?xml version="1.0" encoding="UTF-8" standalone="no"?>
<!-- Created with Inkscape (http://www.inkscape.org/) -->

<svg
   width="48"
   height="48"
   viewBox="0 0 12.7 12.7"
   version="1.1"
   id="svg5"
   xml:space="preserve"
   inkscape:version="1.2.2 (b0a8486541, 2022-12-01)"
   sodipodi:docname="input-mouse.svg"
   xmlns:inkscape="http://www.inkscape.org/namespaces/inkscape"
   xmlns:sodipodi="http://sodipodi.sourceforge.net/DTD/sodipodi-0.dtd"
   xmlns="http://www.w3.org/2000/svg"
   xmlns:svg="http://www.w3.org/2000/svg"><sodipodi:namedview
     id="namedview7"
     pagecolor="#ffffff"
     bordercolor="#000000"
     borderopacity="0.25"
     inkscape:showpageshadow="2"
     inkscape:pageopacity="0.0"
     inkscape:pagecheckerboard="0"
     inkscape:deskcolor="#d1d1d1"
     inkscape:document-units="mm"
     showgrid="true"
     showguides="false"
     inkscape:zoom="16.125"
     inkscape:cx="23.968992"
     inkscape:cy="24"
     inkscape:window-width="1680"
     inkscape:window-height="985"
     inkscape:window-x="0"
     inkscape:window-y="36"
     inkscape:window-maximized="1"
     inkscape:current-layer="layer1"><inkscape:grid
       type="xygrid"
       id="grid132" /></sodipodi:namedview><defs
     id="defs2" /><g
     inkscape:label="Layer 1"
     inkscape:groupmode="layer"
     id="layer1"><g
       id="g2793"
       style="opacity:1"><path
         style="color:#000000;fill:#dadada;stroke-width:0.264999;stroke-linejoin:bevel;-inkscape-stroke:none"
         d="m 5.7989351,0.39716293 h 1.1040631 c 2.2591948,0 4.0779688,1.81877417 4.0779688,4.07796897 V 8.225028 c 0,2.259195 -1.818774,4.077969 -4.0779688,4.077969 H 5.7989351 c -2.2591948,0 -4.077969,-1.818774 -4.077969,-4.077969 V 4.4751319 c 0,-2.2591948 1.8187742,-4.07796897 4.077969,-4.07796897 z"
         id="path2781" /><path
         id="path1129"
         style="fill:#c4c4c4;stroke-width:0.306905;stroke-linejoin:bevel;fill-opacity:1"
         d="M -2.3737151,8.8154416 C -4.2739044,5.01849 -7.989528,-2.0179528 -9.2847079,-4.4799461 c 0.5016017,-0.3949792 0.9312557,-0.9340727 1.7274775,-0.8288638 1.0385167,0.1372245 2.228031,0.4112459 3.3625481,0.8275312 1.5991132,0.5867584 2.6744561,1.150058 3.58319236,2.2885281 0.45930475,0.4008149 0.60394769,1.1559437 0.90158504,2.02411961 C 0.78223015,1.2668738 0.65805877,2.2881586 0.57160383,3.49052 0.47905223,4.7776699 0.36439972,5.6977276 0.10010181,6.4286151 -0.53276594,8.1787429 -1.2610517,8.8659712 -2.3737151,8.8154416 Z"
         sodipodi:nodetypes="ccsscsssc"
         transform="matrix(0.24685123,1.0210627,-0.70938377,0.08601248,8.876869,11.399878)" /><path
         style="fill:none;stroke:#676766;stroke-width:0.264999;stroke-linejoin:bevel"
         d="M 10.919653,4.896949 1.6848714,4.8837378"
         id="path413" /><path
         style="fill:none;stroke:#676766;stroke-width:0.264999;stroke-linejoin:bevel"
         d="M 6.357496,0.38332595 6.363476,4.9318226"
         id="path415"
         sodipodi:nodetypes="cc" /><rect
         style="opacity:1;fill:#999999;fill-opacity:1;stroke:none;stroke-width:0.264999;stroke-linejoin:bevel;stroke-opacity:1"
         id="rect4157"
         width="1.8127742"
         height="2.3565242"
         x="5.4704757"
         y="1.4522177"
         ry="0.95056373" /><rect
         style="fill:none;stroke:#5d5d5d;stroke-width:0.264999;stroke-linejoin:bevel;stroke-opacity:1"
         id="rect513"
         width="1.8516676"
         height="2.3808343"
         x="5.4296312"
         y="1.4499861"
         ry="0.82713419" /><path
         style="color:#000000;fill:#676766;stroke-linejoin:bevel;-inkscape-stroke:none"
         d="M 5.7984375,0.26458333 C 3.4681322,0.26458333 1.5875,2.1452155 1.5875,4.4755208 v 3.75 c 0,2.3303052 1.8806322,4.2109372 4.2109375,4.2109372 h 1.1054688 c 2.3303053,0 4.2089837,-1.880632 4.2089837,-4.2109372 v -3.75 c 0,-2.3303053 -1.8786784,-4.21093747 -4.2089837,-4.21093747 z m 0,0.265625 h 1.1054688 c 2.1880798,0 3.9453127,1.75723267 3.9453127,3.94531247 v 3.75 c 0,2.1880802 -1.7572329,3.9453122 -3.9453127,3.9453122 H 5.7984375 c -2.1880797,0 -3.9453125,-1.757232 -3.9453125,-3.9453122 v -3.75 c 0,-2.1880798 1.7572328,-3.94531247 3.9453125,-3.94531247 z"
         id="path2783" /></g></g></svg>
