<?xml version="1.0" encoding="UTF-8" standalone="no"?>
<svg
   xmlns:dc="http://purl.org/dc/elements/1.1/"
   xmlns:cc="http://creativecommons.org/ns#"
   xmlns:rdf="http://www.w3.org/1999/02/22-rdf-syntax-ns#"
   xmlns:svg="http://www.w3.org/2000/svg"
   xmlns="http://www.w3.org/2000/svg"
   xmlns:sodipodi="http://sodipodi.sourceforge.net/DTD/sodipodi-0.dtd"
   xmlns:inkscape="http://www.inkscape.org/namespaces/inkscape"
   width="48"
   height="48"
   viewBox="0 0 12.699999 12.7"
   version="1.1"
   id="svg8"
   inkscape:version="1.0.2 (e86c870879, 2021-01-15)"
   sodipodi:docname="emblem-dropbox-syncing2.svg">
  <defs
     id="defs2">
    <marker
       style="overflow:visible"
       id="Arrow2Lstart"
       refX="0"
       refY="0"
       orient="auto"
       inkscape:stockid="Arrow2Lstart"
       inkscape:isstock="true">
      <path
         transform="matrix(1.1,0,0,1.1,1.1,0)"
         d="M 8.7185878,4.0337352 -2.2072895,0.01601326 8.7185884,-4.0017078 c -1.7454984,2.3720609 -1.7354408,5.6174519 -6e-7,8.035443 z"
         style="fill:#000000;fill-opacity:1;fill-rule:evenodd;stroke:#000000;stroke-width:0.625;stroke-linejoin:round;stroke-opacity:1"
         id="path1018" />
    </marker>
    <marker
       style="overflow:visible"
       id="Arrow1Lstart"
       refX="0"
       refY="0"
       orient="auto"
       inkscape:stockid="Arrow1Lstart"
       inkscape:isstock="true">
      <path
         transform="matrix(0.8,0,0,0.8,10,0)"
         style="fill-rule:evenodd;stroke:#000000;stroke-width:1pt"
         d="M 0,0 5,-5 -12.5,0 5,5 Z"
         id="path951" />
    </marker>
  </defs>
  <sodipodi:namedview
     id="base"
     pagecolor="#ffffff"
     bordercolor="#666666"
     borderopacity="1.0"
     inkscape:pageopacity="0.0"
     inkscape:pageshadow="2"
     inkscape:zoom="16.020833"
     inkscape:cx="24"
     inkscape:cy="24"
     inkscape:document-units="mm"
     inkscape:current-layer="layer1"
     inkscape:document-rotation="0"
     showgrid="true"
     units="px"
     inkscape:window-width="1680"
     inkscape:window-height="984"
     inkscape:window-x="0"
     inkscape:window-y="36"
     inkscape:window-maximized="1">
    <inkscape:grid
       type="xygrid"
       id="grid939" />
  </sodipodi:namedview>
  <metadata
     id="metadata5">
    <rdf:RDF>
      <cc:Work
         rdf:about="">
        <dc:format>image/svg+xml</dc:format>
        <dc:type
           rdf:resource="http://purl.org/dc/dcmitype/StillImage" />
        <dc:title></dc:title>
      </cc:Work>
    </rdf:RDF>
  </metadata>
  <g
     inkscape:label="Layer 1"
     inkscape:groupmode="layer"
     id="layer1">
    <g
       id="g855"
       transform="matrix(0.09258879,0,0,0.09258879,0.08908954,0.06475858)"
       style="stroke-width:1.10405">
      <g
         id="g1225"
         transform="matrix(0.98039214,0,0,0.98039214,-31.098536,-96.461019)"
         style="stroke-width:1.78773;stroke-miterlimit:4;stroke-dasharray:none">
        <circle
           style="fill:#5cc9ff;fill-opacity:1;stroke:#000000;stroke-width:1.78773;stroke-miterlimit:4;stroke-dasharray:none;stroke-opacity:1"
           id="path833"
           cx="100.69353"
           cy="167.6313"
           r="66.145836" />
      </g>
      <g
         fill="#808080"
         id="g4"
         transform="matrix(5.4280463,0,0,5.4280463,24.274672,25.152321)"
         style="stroke-width:0.0538152">
        <path
           d="M 1.451,10.455 A 6.996,6.996 0 0 0 8,15 7,7 0 0 0 14.303,11.031 l 1.199,0.768 c 0.094,-0.662 0.168,-1.352 0.219,-2.069 0.047,-0.711 0.073,-1.41 0.078,-2.095 a 34.483,34.483 0 0 0 -3.664,2.004 v 0.002 l 1.318,0.845 A 6,6 0 0 1 8,14 5.997,5.997 0 0 1 2.387,10.105 Z M 0.201,8.365 A 34.483,34.483 0 0 0 3.865,6.361 V 6.36 L 2.547,5.515 A 6,6 0 0 1 8,2 c 2.572,0 4.76,1.62 5.613,3.894 l 0.936,-0.35 A 6.996,6.996 0 0 0 8,1 7,7 0 0 0 1.697,4.969 L 0.498,4.2 A 29.564,29.564 0 0 0 0.28,6.27 C 0.232,6.98 0.206,7.68 0.201,8.365 Z"
           id="path2"
           style="fill:#ffffff;stroke-width:0.0538152" />
      </g>
    </g>
  </g>
</svg>
