<?xml version="1.0" encoding="UTF-8" standalone="no"?>
<!-- Created with Inkscape (http://www.inkscape.org/) -->

<svg
   width="48"
   height="48"
   viewBox="0 0 12.7 12.7"
   version="1.1"
   id="svg5"
   xml:space="preserve"
   sodipodi:docname="org.xfce.mousepad.svg"
   inkscape:version="1.2.2 (b0a8486541, 2022-12-01)"
   xmlns:inkscape="http://www.inkscape.org/namespaces/inkscape"
   xmlns:sodipodi="http://sodipodi.sourceforge.net/DTD/sodipodi-0.dtd"
   xmlns:xlink="http://www.w3.org/1999/xlink"
   xmlns="http://www.w3.org/2000/svg"
   xmlns:svg="http://www.w3.org/2000/svg"><sodipodi:namedview
     id="namedview7"
     pagecolor="#ffffff"
     bordercolor="#000000"
     borderopacity="0.25"
     inkscape:showpageshadow="2"
     inkscape:pageopacity="0.0"
     inkscape:pagecheckerboard="0"
     inkscape:deskcolor="#d1d1d1"
     inkscape:document-units="mm"
     showgrid="true"
     inkscape:zoom="10.333333"
     inkscape:cx="23.951613"
     inkscape:cy="24"
     inkscape:window-width="1366"
     inkscape:window-height="703"
     inkscape:window-x="0"
     inkscape:window-y="36"
     inkscape:window-maximized="1"
     inkscape:current-layer="layer1"><inkscape:grid
       type="xygrid"
       id="grid132" /></sodipodi:namedview><defs
     id="defs2"><linearGradient
       inkscape:collect="always"
       xlink:href="#linearGradient2775"
       id="linearGradient2777"
       x1="5.3396664"
       y1="4.875329"
       x2="5.3658104"
       y2="8.357111"
       gradientUnits="userSpaceOnUse"
       gradientTransform="matrix(0.55693487,-0.83332073,0.82502599,0.56253423,-1.6545039,6.7947431)" /><linearGradient
       inkscape:collect="always"
       id="linearGradient2775"><stop
         style="stop-color:#f6b640;stop-opacity:1;"
         offset="0"
         id="stop2771" /><stop
         style="stop-color:#f8c566;stop-opacity:1;"
         offset="1"
         id="stop2773" /></linearGradient></defs><g
     inkscape:label="Layer 1"
     inkscape:groupmode="layer"
     id="layer1"><path
       style="fill:none;fill-opacity:0.960784;stroke:#575656;stroke-width:0.264583;stroke-linecap:square;stroke-dasharray:none;stroke-opacity:1"
       d="M 0.39687699,12.303235 7.0114481,12.303127"
       id="path21676" /><path
       style="color:#000000;fill:#ffeddd;stroke-width:0.264584;stroke-linecap:square;-inkscape-stroke:none"
       d="m 6.0812387,10.360904 -1.4652932,0.93595 -1.5590996,0.907803 -0.00801,-1.834338 -0.00801,-1.8343375 1.5671083,0.926535 z"
       id="path21152"
       sodipodi:nodetypes="ccccccc" /><path
       id="path21154"
       style="color:#000000;fill:#4a4a49;stroke-width:0.91211;stroke-linecap:square;-inkscape-stroke:none;fill-opacity:1"
       d="m 3.0153529,8.3677433 -0.1049363,0.1459978 0.00669,1.8558859 0.00977,2.06579 1.7540809,-1.021984 1.2350581,-0.719598 0.2834307,-0.439552 0.00257,-0.0036 -1.5287767,-0.9024837 z m 0.158433,0.3995454 1.368286,0.8105212 1.3708579,0.8089621 -1.3626276,0.793896 -1.3636565,0.792856 -0.0072,-1.602338 z"
       sodipodi:nodetypes="ccccccccccccccccc" /><path
       style="color:#000000;fill:#4a4a49;stroke-width:0.264583;stroke-linecap:square;-inkscape-stroke:none"
       d="M 4.2917256,11.484948 3.7044864,11.80546 3.1172473,12.125972 3.1295829,11.451291 3.1419185,10.77661 3.716822,11.130779 Z"
       id="path1047" /><path
       style="color:#000000;fill:#2a2827;stroke-width:0.3375;stroke-linecap:square;-inkscape-stroke:none"
       d="M 3.0141692,10.543227 2.9977601,11.44756 2.981351,12.351894 3.7683977,11.92257 4.5557472,11.492663 4.3599546,11.372056 3.7851096,11.017653 Z m 0.2553266,0.466583 0.3790524,0.233797 0.3790524,0.233796 -0.3871469,0.210982 -0.3874496,0.211564 0.00809,-0.444778 z"
       id="path1049" /><path
       style="color:#000000;fill:url(#linearGradient2777);fill-opacity:1;stroke-width:0.264584;stroke-linecap:square;-inkscape-stroke:none"
       d="M 3.0476153,8.556528 7.3209303,2.1625273 10.158676,4.0974107 5.885361,10.491411 Z"
       id="path1206" /><path
       style="color:#000000;fill:#343433;stroke-width:0.261828;stroke-linecap:square;-inkscape-stroke:none"
       d="M 4.0611741,9.3412923 8.4429914,2.7505101 9.1010102,3.5121547 4.8273934,9.8904994 Z"
       id="path1009"
       sodipodi:nodetypes="ccccc" /><path
       style="color:#000000;fill:#4b463a;stroke-width:0.981602;stroke-linecap:square;-inkscape-stroke:none"
       d="M 3.9811174,9.2870014 4.1283769,9.3796711 4.9572532,9.9527883 9.263125,3.5020614 8.4306108,2.5384415 Z M 4.1966142,9.3594738 8.4559714,2.9621691 9.0156443,3.4282173 4.7230731,9.8299321 Z"
       id="path1011"
       sodipodi:nodetypes="ccccccccccc" /><path
       id="path1208"
       style="color:#000000;fill:#504a3f;fill-opacity:0.960784;stroke-width:0.99999;stroke-linecap:square;-inkscape-stroke:none"
       d="M 3.0111622,8.3737024 2.9880327,8.675753 5.7925235,10.587962 6.0674946,10.455119 10.341097,4.0606879 7.2859161,1.9775487 Z M 3.2298873,8.5209573 7.3555588,2.3478699 9.9754427,4.1342068 5.8497714,10.307294 Z"
       sodipodi:nodetypes="cccccccccccc" /><path
       style="color:#000000;fill:#da75ba;fill-opacity:1;stroke-width:0.264584;stroke-linecap:square;-inkscape-stroke:none"
       d="M 7.3214538,2.1617435 8.2648162,0.75022576 8.8788191,0.72598807 9.3656778,0.66697399 11.485401,2.112282 10.1592,4.096627 Z"
       id="path987"
       sodipodi:nodetypes="ccccccc" /><path
       id="path1199"
       style="fill:#ae5e95;fill-opacity:1;stroke-width:0.264584;stroke-linecap:square;stroke-opacity:0.960784"
       d="M 8.7724238,3.117802 10.29436,1.2928401 11.471136,2.1157721 10.181227,4.0977865 Z"
       sodipodi:nodetypes="ccccc" /><path
       style="color:#000000;fill:#504a3e;fill-opacity:0.960784;stroke-width:0.99999;stroke-linecap:square;-inkscape-stroke:none"
       d="M 7.13742,2.1978807 7.2469937,2.2725923 10.194206,4.282114 11.668125,2.076744 9.3839314,0.52916677 8.8690305,0.5899992 8.1611687,0.66608391 Z M 7.5045033,2.1259531 8.3128573,0.94170728 8.6274578,0.9074141 9.3460599,0.81860793 11.302153,2.1470092 10.122994,3.91134 Z"
       id="path989"
       sodipodi:nodetypes="ccccccccccccccc" /><path
       style="color:#000000;fill:#ff0000;stroke-width:0.0529168;stroke-linecap:square;-inkscape-stroke:none"
       d="m 5.7857126,10.621123 0.3827575,-0.18565"
       id="path1434" /><path
       style="color:#000000;fill:#ff0000;stroke-width:0.0529168;stroke-linecap:square;-inkscape-stroke:none"
       d="M 2.9560933,8.7522838 2.9913645,8.2895966"
       id="path1506" /></g></svg>
