<?xml version="1.0" encoding="UTF-8" standalone="no"?>
<svg
   xmlns:dc="http://purl.org/dc/elements/1.1/"
   xmlns:cc="http://creativecommons.org/ns#"
   xmlns:rdf="http://www.w3.org/1999/02/22-rdf-syntax-ns#"
   xmlns:svg="http://www.w3.org/2000/svg"
   xmlns="http://www.w3.org/2000/svg"
   xmlns:sodipodi="http://sodipodi.sourceforge.net/DTD/sodipodi-0.dtd"
   xmlns:inkscape="http://www.inkscape.org/namespaces/inkscape"
   width="32"
   height="32"
   viewBox="0 0 8.4666667 8.4666667"
   version="1.1"
   id="svg2242"
   sodipodi:docname="battery-raw-path-backup.svg"
   inkscape:version="1.0.2 (e86c870879, 2021-01-15)">
  <sodipodi:namedview
     pagecolor="#ffffff"
     bordercolor="#666666"
     borderopacity="1"
     objecttolerance="10"
     gridtolerance="10"
     guidetolerance="10"
     inkscape:pageopacity="0"
     inkscape:pageshadow="2"
     inkscape:window-width="1680"
     inkscape:window-height="990"
     id="namedview13"
     showgrid="true"
     inkscape:zoom="24.21875"
     inkscape:cx="16"
     inkscape:cy="12.696774"
     inkscape:window-x="0"
     inkscape:window-y="37"
     inkscape:window-maximized="1"
     inkscape:current-layer="svg2242"
     inkscape:document-rotation="0">
    <inkscape:grid
       type="xygrid"
       id="grid844"
       empspacing="1" />
  </sodipodi:namedview>
  <defs
     id="defs2236">
    <marker
       style="overflow:visible"
       id="Arrow1Lstart"
       refX="0"
       refY="0"
       orient="auto">
      <path
         transform="matrix(0.8,0,0,0.8,10,0)"
         style="fill-rule:evenodd;stroke:#000000;stroke-width:1pt"
         d="M 0,0 5,-5 -12.5,0 5,5 Z"
         id="path1628" />
    </marker>
  </defs>
  <metadata
     id="metadata2239">
    <rdf:RDF>
      <cc:Work
         rdf:about="">
        <dc:format>image/svg+xml</dc:format>
        <dc:type
           rdf:resource="http://purl.org/dc/dcmitype/StillImage" />
        <dc:title></dc:title>
      </cc:Work>
    </rdf:RDF>
  </metadata>
  <rect
     style="fill:none;stroke:#00d900;stroke-width:9.53401;stroke-linejoin:miter;stroke-miterlimit:4;stroke-dasharray:none"
     id="rect3152"
     width="0"
     height="0"
     x="43.729687"
     y="-54.709492"
     ry="0" />
  <path
     style="color:#000000;font-style:normal;font-variant:normal;font-weight:normal;font-stretch:normal;font-size:medium;line-height:normal;font-family:sans-serif;font-variant-ligatures:normal;font-variant-position:normal;font-variant-caps:normal;font-variant-numeric:normal;font-variant-alternates:normal;font-variant-east-asian:normal;font-feature-settings:normal;font-variation-settings:normal;text-indent:0;text-align:start;text-decoration:none;text-decoration-line:none;text-decoration-style:solid;text-decoration-color:#000000;letter-spacing:normal;word-spacing:normal;text-transform:none;writing-mode:lr-tb;direction:ltr;text-orientation:mixed;dominant-baseline:auto;baseline-shift:baseline;text-anchor:start;white-space:normal;shape-padding:0;shape-margin:0;inline-size:0;clip-rule:nonzero;display:inline;overflow:visible;visibility:visible;isolation:auto;mix-blend-mode:normal;color-interpolation:sRGB;color-interpolation-filters:linearRGB;solid-color:#000000;solid-opacity:1;vector-effect:none;fill:#00d900;fill-opacity:1;fill-rule:nonzero;stroke:none;stroke-linecap:butt;stroke-linejoin:round;stroke-miterlimit:4;stroke-dasharray:none;stroke-dashoffset:0;stroke-opacity:1;color-rendering:auto;image-rendering:auto;shape-rendering:auto;text-rendering:auto;enable-background:accumulate;stop-color:#000000;stop-opacity:1;opacity:1"
     d="M 1.265625 0.26953125 C 1.006243 0.26953125 0.79492188 0.48280547 0.79492188 0.7421875 L 0.79492188 3.6289062 C 0.79492188 3.8882883 1.006243 4.1015625 1.265625 4.1015625 L 6.6738281 4.1015625 C 6.9332101 4.1015625 7.1464844 3.8882883 7.1464844 3.6289062 L 7.1464844 0.7421875 C 7.1464844 0.48280546 6.9332101 0.26953125 6.6738281 0.26953125 L 1.265625 0.26953125 z M 1.265625 0.53320312 L 6.6738281 0.53320312 C 6.7912077 0.53320312 6.8828125 0.62480794 6.8828125 0.7421875 L 6.8828125 3.6289062 C 6.8828125 3.746286 6.7912077 3.8359375 6.6738281 3.8359375 L 1.265625 3.8359375 C 1.1482454 3.8359375 1.0585937 3.746286 1.0585938 3.6289062 L 1.0585938 0.7421875 C 1.0585938 0.62480793 1.1482454 0.53320312 1.265625 0.53320312 z "
     id="rect1435" />
  <path
     id="rect1486"
     style="fill:#00d900;fill-opacity:1;stroke:none;stroke-width:0.264583;stroke-linejoin:round;stroke-miterlimit:4;stroke-dasharray:none;stroke-opacity:1"
     d="m 1.3229166,0.80877024 h 5.2916665 c 0,0 0,1e-8 0,1e-8 V 3.5559733 c 0,0 0,1e-7 0,1e-7 H 1.3229166 c 0,0 0,-1e-7 0,-1e-7 V 0.80877025 c 0,0 0,-1e-8 0,-1e-8 z" />
  <path
     id="rect1490"
     style="fill:#00d900;fill-opacity:1;stroke:none;stroke-width:0.454878;stroke-linejoin:round;stroke-miterlimit:4;stroke-dasharray:none;stroke-opacity:1"
     d="M 6.8791666,1.5084038 H 7.5497431 V 2.8610429 H 6.8791666 Z" />
</svg>
