#define iconify_hover_width 10
#define iconify_hover_height 10
static unsigned char iconify_hover_bits[] = {
   0x00, 0x00, 0x00, 0x00, 0x00, 0x00, 0x03, 0x03, 0x87, 0x03, 0xce, 0x01, 0xfc, 0x00, 0x78, 0x00, 0x30, 0x00, 0x00, 0x00, };
