#define max_toggled_hover_width 16
#define max_toggled_hover_height 16
static unsigned char max_toggled_hover_bits[] = {
   0xff, 0xff, 0xff, 0xff, 0xff, 0xff, 0x07, 0xe0,
   0x07, 0xe0, 0x07, 0xe0, 0x07, 0xe0, 0x07, 0xe0,
   0x07, 0xe0, 0x07, 0xe0, 0x07, 0xe0, 0x07, 0xe0,
   0x07, 0xe0, 0xff, 0xff, 0xff, 0xff, 0xff, 0xff};
