<?xml version="1.0" encoding="UTF-8" standalone="no"?>
<svg
   xmlns:dc="http://purl.org/dc/elements/1.1/"
   xmlns:cc="http://creativecommons.org/ns#"
   xmlns:rdf="http://www.w3.org/1999/02/22-rdf-syntax-ns#"
   xmlns:svg="http://www.w3.org/2000/svg"
   xmlns="http://www.w3.org/2000/svg"
   xmlns:xlink="http://www.w3.org/1999/xlink"
   xmlns:sodipodi="http://sodipodi.sourceforge.net/DTD/sodipodi-0.dtd"
   xmlns:inkscape="http://www.inkscape.org/namespaces/inkscape"
   width="128"
   height="128"
   style="enable-background:new 0 0 128 128;"
   version="1.1"
   id="svg325"
   sodipodi:docname="wine0.svg"
   inkscape:version="1.0.2 (e86c870879, 2021-01-15)">
  <metadata
     id="metadata331">
    <rdf:RDF>
      <cc:Work
         rdf:about="">
        <dc:format>image/svg+xml</dc:format>
        <dc:type
           rdf:resource="http://purl.org/dc/dcmitype/StillImage" />
        <dc:title></dc:title>
      </cc:Work>
    </rdf:RDF>
  </metadata>
  <defs
     id="defs329" />
  <sodipodi:namedview
     pagecolor="#ffffff"
     bordercolor="#666666"
     borderopacity="1"
     objecttolerance="10"
     gridtolerance="10"
     guidetolerance="10"
     inkscape:pageopacity="0"
     inkscape:pageshadow="2"
     inkscape:window-width="1680"
     inkscape:window-height="984"
     id="namedview327"
     showgrid="false"
     inkscape:zoom="5.7421875"
     inkscape:cx="64"
     inkscape:cy="64"
     inkscape:window-x="0"
     inkscape:window-y="36"
     inkscape:window-maximized="1"
     inkscape:current-layer="svg325" />
  <g
     id="Layer_1"
     transform="matrix(1.2645214,-0.38641537,0.30797871,1.0078421,-37.834999,25.122492)">
    <linearGradient
       id="SVGID_1_"
       gradientUnits="userSpaceOnUse"
       x1="64.897301"
       x2="65.87587"
       y1="102.8446"
       y2="122.45846">
      <stop
         offset="0.1429"
         style="stop-color:#ECEFF1"
         id="stop2" />
      <stop
         offset="0.4477"
         style="stop-color:#EAEDEF"
         id="stop4" />
      <stop
         offset="0.54089838"
         style="stop-color:#E2E5E7"
         id="stop6" />
      <stop
         offset="0.63491124"
         style="stop-color:#D4D8DB"
         id="stop8" />
      <stop
         offset="0.63491124"
         style="stop-color:#C1C5C8"
         id="stop10" />
      <stop
         offset="0.92409509"
         style="stop-color:#A8ADB1"
         id="stop12" />
      <stop
         offset="0.9995"
         style="stop-color:#9CA2A6"
         id="stop14" />
    </linearGradient>
    <ellipse
       cx="64.900002"
       cy="113.56"
       rx="20.92"
       ry="10.72"
       style="fill:url(#SVGID_1_)"
       id="ellipse17" />
    <linearGradient
       id="SVGID_3_"
       gradientUnits="userSpaceOnUse"
       x1="64.596397"
       x2="64.596397"
       y1="62.336201"
       y2="110.8563">
      <stop
         offset="5.381058e-04"
         style="stop-color:#9CA2A6"
         id="stop19" />
      <stop
         offset="0.3607"
         style="stop-color:#C4C9CC"
         id="stop21" />
      <stop
         offset="0.6764"
         style="stop-color:#E1E5E7"
         id="stop23" />
      <stop
         offset="0.8571"
         style="stop-color:#ECEFF1"
         id="stop25" />
    </linearGradient>
    <path
       d="m 67.42,76.66 c 0.14,-13.12 2.72,-14.53 2.72,-14.53 0,0.11 -3.47,-0.3 -4.93,-0.48 -0.43,-0.05 -0.86,-0.05 -1.28,0 -1.45,0.18 -4.86,0.59 -4.86,0.48 0,0 2.61,1.41 2.75,14.53 0.11,10.18 0.54,25.59 -0.92,31.79 -0.92,3.92 8.61,3.17 7.54,-0.17 -1.91,-6.02 -1.13,-21.4 -1.02,-31.62 z"
       style="fill:url(#SVGID_3_)"
       id="path28" />
    <radialGradient
       id="SVGID_4_"
       cx="54.105202"
       cy="20.9687"
       gradientUnits="userSpaceOnUse"
       r="30.2924">
      <stop
         offset="0"
         style="stop-color:#ECEFF1"
         id="stop30" />
      <stop
         offset="0.1982"
         style="stop-color:#E6EAEC"
         id="stop32" />
      <stop
         offset="0.4529"
         style="stop-color:#D6DADD"
         id="stop34" />
      <stop
         offset="0.7373"
         style="stop-color:#BCC2C4"
         id="stop36" />
      <stop
         offset="0.9943"
         style="stop-color:#9EA5A8"
         id="stop38" />
    </radialGradient>
    <path
       d="m 84.31,8.53 c 0.11,-0.11 -2.44,-4.51 -20.5,-4.51 -17.96,0 -20.23,4.31 -20.12,4.42 0,0 -4.44,17.04 -2.19,31.29 2.25,14.25 13.05,23.62 22.5,23.62 9.45,0 20.25,-9.38 22.51,-23.63 2.26,-14.25 -2.2,-31.19 -2.2,-31.19 z"
       style="fill:url(#SVGID_4_)"
       id="path41" />
    <path
       d="m 63.87,5.93 c 9.68,0 16.23,1.63 18.08,2.79 -1.78,1.11 -7.99,2.77 -18.08,2.77 -10.02,0 -16.14,-1.67 -17.84,-2.78 1.7,-1.11 7.81,-2.78 17.84,-2.78 m 0,-2 c -11.14,0 -20.17,2.14 -20.17,4.78 0,2.64 9.03,4.78 20.17,4.78 11.14,0 20.44,-2.13 20.44,-4.76 0,-2.63 -9.3,-4.8 -20.44,-4.8 z"
       style="fill:#919191"
       id="path43" />
    <g
       id="g52">
      <linearGradient
         id="SVGID_5_"
         gradientUnits="userSpaceOnUse"
         x1="44.6637"
         x2="79.6063"
         y1="25.4608"
         y2="52.699501">
        <stop
           offset="0"
           style="stop-color:#D32F2F"
           id="stop45" />
        <stop
           offset="1"
           style="stop-color:#910000"
           id="stop47" />
      </linearGradient>
      <path
         d="m 66.75174,29.164717 c -6.835914,2.656355 -18.831909,8.131101 -23.553816,8.896411 0.03,2.36 -0.006,1.875474 -0.006,1.875474 C 45.281963,53.146602 55.23,61.48 64,61.48 c 8.76,0 18.78,-8.7 20.87,-21.91 1.208081,-4.069885 -0.263113,-17.945317 -0.586087,-19.859741 0,0 -7.075662,5.391184 -17.532173,9.454458 z"
         style="fill:url(#SVGID_5_)"
         id="path50"
         sodipodi:nodetypes="sccsccs" />
    </g>
    <g
       style="opacity:0.2"
       id="g67">
      <path
         d="m 63.81,6.02 c 14.08,0 17.94,2.71 18.65,3.34 0.58,2.37 4.07,17.43 2.07,30.05 -1.53,9.67 -7.5,17.86 -15.21,20.87 -0.41,0.16 -0.74,0.44 -0.96,0.79 -1.26,1.48 -2.83,5.38 -2.94,15.56 -0.02,1.87 -0.06,3.91 -0.11,6.04 -0.14,6.9 -0.31,14.71 0.22,20.44 0.09,0.98 0.88,1.75 1.86,1.81 9.06,0.58 16.42,4.46 16.42,8.64 0,4.65 -8.84,8.72 -18.92,8.72 -10.08,0 -18.92,-4.07 -18.92,-8.72 0,-4.1 6.94,-7.88 15.8,-8.59 0.98,-0.08 1.76,-0.86 1.83,-1.85 0.47,-6.35 0.35,-15.33 0.25,-22.54 C 63.83,79.2 63.81,77.88 63.8,76.63 63.72,69.22 62.83,64.02 61.23,61.59 60.97,61.19 60.57,60.9 60.12,60.77 56.37,59.68 52.68,57.13 49.73,53.57 46.48,49.64 44.31,44.74 43.47,39.41 41.46,26.75 44.99,11.52 45.54,9.23 46.21,8.63 49.91,6.02 63.81,6.02 m 0,-2 c -17.96,0 -20.23,4.31 -20.12,4.42 0,0 -4.44,17.04 -2.19,31.29 1.91,12.05 9.93,20.62 18.07,22.97 0.77,1.16 2.14,4.54 2.24,13.96 0.08,7.87 0.36,18.87 -0.19,26.32 -9.99,0.81 -17.64,5.24 -17.64,10.59 0,5.92 9.36,10.72 20.92,10.72 11.55,0 20.92,-4.8 20.92,-10.72 0,-5.46 -7.98,-9.97 -18.29,-10.63 -0.67,-7.36 -0.19,-18.36 -0.1,-26.28 0.13,-12.54 2.49,-14.38 2.7,-14.52 -0.02,0 -0.04,0.01 -0.08,0.01 C 77.62,59.19 83.09,50.82 84.87,39.57 87.13,25.32 84.32,8.53 84.32,8.53 84.41,8.42 81.86,4.02 63.81,4.02 Z m 6.32,58.11 c 0,0 -0.01,0 -0.01,0.01 0.01,0 0.01,-0.01 0.01,-0.01 z"
         style="fill:#424242"
         id="path65"
         sodipodi:nodetypes="cccccccccsssccccccccccscccccsssccccccsccc" />
    </g>
    <path
       d="m 70.73,111.55 c -1.53,0.69 -2.89,1.01 -4.17,1.18 -1.27,0.16 -2.47,0.16 -3.75,0 -1.27,-0.16 -2.63,-0.49 -4.17,-1.18 -1.04,-0.47 -1.47,-1.58 -1.02,-2.29 v 0 c 0.45,-0.72 1.46,-0.89 2.28,-0.52 1.82,0.82 3.31,1.02 4.77,1.02 1.47,0 2.95,-0.2 4.77,-1.02 0.82,-0.37 1.83,-0.2 2.28,0.52 v 0 c 0.48,0.72 0.05,1.83 -0.99,2.29 z"
       style="fill:#bfbfbf"
       id="path69" />
    <path
       d="m 70.73,111.64 c -1.53,0.69 -2.89,1.01 -4.17,1.18 -1.27,0.16 -2.47,0.16 -3.75,0 -1.27,-0.16 -2.63,-0.49 -4.17,-1.18 -1.04,-0.47 -1.47,-1.58 -1.02,-2.29 v 0 c 0.45,-0.72 1.46,-0.89 2.28,-0.52 1.82,0.82 3.31,1.02 4.77,1.02 1.47,0 2.95,-0.2 4.77,-1.02 0.82,-0.37 1.83,-0.2 2.28,0.52 v 0 c 0.48,0.71 0.05,1.82 -0.99,2.29 z"
       style="fill:#bfbfbf"
       id="path71" />
    <path
       style="color:#000000;font-style:normal;font-variant:normal;font-weight:normal;font-stretch:normal;font-size:medium;line-height:normal;font-family:sans-serif;font-variant-ligatures:normal;font-variant-position:normal;font-variant-caps:normal;font-variant-numeric:normal;font-variant-alternates:normal;font-variant-east-asian:normal;font-feature-settings:normal;font-variation-settings:normal;text-indent:0;text-align:start;text-decoration:none;text-decoration-line:none;text-decoration-style:solid;text-decoration-color:#000000;letter-spacing:normal;word-spacing:normal;text-transform:none;writing-mode:lr-tb;direction:ltr;text-orientation:mixed;dominant-baseline:auto;baseline-shift:baseline;text-anchor:start;white-space:normal;shape-padding:0;shape-margin:0;inline-size:0;clip-rule:nonzero;display:inline;overflow:visible;visibility:visible;opacity:0.24496;isolation:auto;mix-blend-mode:normal;color-interpolation:sRGB;color-interpolation-filters:linearRGB;solid-color:#000000;solid-opacity:1;vector-effect:none;fill:#000000;fill-opacity:1;fill-rule:nonzero;stroke:none;stroke-width:1;stroke-linecap:butt;stroke-linejoin:miter;stroke-miterlimit:4;stroke-dasharray:none;stroke-dashoffset:0;stroke-opacity:1;color-rendering:auto;image-rendering:auto;shape-rendering:auto;text-rendering:auto;enable-background:accumulate;stop-color:#000000;stop-opacity:1"
       d="M 54.226828,50.147544 52.695894,35.051547 50.248421,15.505808 58.966274,9.6533406 C 62.903189,5.810607 66.753708,3.0154799 69.506457,-0.79749374 73.186382,5.8858644 78.989687,13.06351 74.697153,30.651545 71.122889,41.102713 63.286465,46.369124 54.226828,50.147544 Z"
       id="path1156"
       transform="matrix(0.72327337,0.27730926,-0.22101954,0.90747812,33.835482,1.159183)"
       sodipodi:nodetypes="ccccccc" />
  </g>
  <g
     id="Layer_2"
     style="display:none;">
    <g
       style="display:inline;"
       id="g322">
      <g
         style="opacity:0.6;"
         id="g104">
        <circle
           cx="64"
           cy="64"
           r="28"
           style="opacity:0.61;fill:none;stroke:#000000;stroke-width:0.2625;stroke-miterlimit:10;"
           id="circle76" />
        <line
           style="opacity:0.61;fill:none;stroke:#000000;stroke-miterlimit:10;"
           x1="83.5"
           x2="83.5"
           y1="0"
           y2="128"
           id="line78" />
        <line
           style="opacity:0.61;fill:none;stroke:#000000;stroke-miterlimit:10;"
           x1="43.5"
           x2="43.5"
           y1="0"
           y2="128"
           id="line80" />
        <line
           style="opacity:0.61;fill:none;stroke:#000000;stroke-miterlimit:10;"
           x1="63.5"
           x2="63.5"
           y1="0"
           y2="128"
           id="line82" />
        <line
           style="opacity:0.61;fill:none;stroke:#000000;stroke-miterlimit:10;"
           x1="128"
           x2="0"
           y1="64.5"
           y2="64.5"
           id="line84" />
        <line
           style="opacity:0.61;fill:none;stroke:#000000;stroke-miterlimit:10;"
           x1="128"
           x2="0"
           y1="44.5"
           y2="44.5"
           id="line86" />
        <line
           style="opacity:0.61;fill:none;stroke:#000000;stroke-miterlimit:10;"
           x1="128"
           x2="0"
           y1="83.5"
           y2="83.5"
           id="line88" />
        <line
           style="opacity:0.61;fill:none;stroke:#000000;stroke-width:0.25;stroke-miterlimit:10;"
           x1="128"
           x2="0"
           y1="128"
           y2="0"
           id="line90" />
        <line
           style="opacity:0.61;fill:none;stroke:#000000;stroke-width:0.25;stroke-miterlimit:10;"
           x1="0"
           x2="128"
           y1="128"
           y2="0"
           id="line92" />
        <g
           style="opacity:0.61;"
           id="g96">
          <path
             d="M64,4.26c32.94,0,59.74,26.8,59.74,59.74S96.94,123.74,64,123.74S4.26,96.94,4.26,64S31.06,4.26,64,4.26 M64,4 C30.86,4,4,30.86,4,64s26.86,60,60,60s60-26.86,60-60S97.14,4,64,4L64,4z"
             id="path94" />
        </g>
        <path
           d="M115.5,108.47c0,4.43-3.59,8.03-8.03,8.03H19.53 c-4.43,0-8.03-3.59-8.03-8.03V20.53c0-4.43,3.59-8.03,8.03-8.03h87.94c4.43,0,8.03,3.59,8.03,8.03V108.47z"
           style="opacity:0.61;fill:none;stroke:#000000;stroke-miterlimit:10;"
           id="path98" />
        <path
           d="M107.5,116.5c0,4.42-3.58,8-8,8h-72 c-4.42,0-8-3.58-8-8v-104c0-4.42,3.58-8,8-8h72c4.42,0,8,3.58,8,8V116.5z"
           style="opacity:0.61;fill:none;stroke:#000000;stroke-miterlimit:10;"
           id="path100" />
        <path
           d="M123.5,98.27c0,5.65-4.58,10.23-10.23,10.23H13.73 c-5.65,0-10.23-4.58-10.23-10.23V30.73c0-5.65,4.58-10.23,10.23-10.23h99.54c5.65,0,10.23,4.58,10.23,10.23V98.27z"
           style="opacity:0.61;fill:none;stroke:#000000;stroke-miterlimit:10;"
           id="path102" />
      </g>
      <g
         id="g320">
        <g
           style="opacity:0.2;"
           id="g308">
          <defs
             id="defs107">
            <rect
               id="SVGID_2_"
               height="128"
               style="opacity:0.2;"
               width="128"
               x="0" />
          </defs>
          <clipPath
             id="SVGID_7_">
            <use
               style="overflow:visible;"
               xlink:href="#SVGID_2_"
               id="use109" />
          </clipPath>
          <g
             style="clip-path:url(#SVGID_7_);"
             clip-path="url(#SVGID_7_)"
             id="g306">
            <g
               id="g206">
              <line
                 style="fill:none;stroke:#000000;stroke-miterlimit:10;"
                 x1="-28.5"
                 x2="-28.5"
                 y1="160"
                 y2="-32"
                 id="line112" />
              <line
                 style="fill:none;stroke:#000000;stroke-miterlimit:10;"
                 x1="-24.5"
                 x2="-24.5"
                 y1="160"
                 y2="-32"
                 id="line114" />
              <line
                 style="fill:none;stroke:#000000;stroke-miterlimit:10;"
                 x1="-20.5"
                 x2="-20.5"
                 y1="160"
                 y2="-32"
                 id="line116" />
              <line
                 style="fill:none;stroke:#000000;stroke-miterlimit:10;"
                 x1="-16.5"
                 x2="-16.5"
                 y1="160"
                 y2="-32"
                 id="line118" />
              <line
                 style="fill:none;stroke:#000000;stroke-miterlimit:10;"
                 x1="-12.5"
                 x2="-12.5"
                 y1="160"
                 y2="-32"
                 id="line120" />
              <line
                 style="fill:none;stroke:#000000;stroke-miterlimit:10;"
                 x1="-8.5"
                 x2="-8.5"
                 y1="160"
                 y2="-32"
                 id="line122" />
              <line
                 style="fill:none;stroke:#000000;stroke-miterlimit:10;"
                 x1="-4.5"
                 x2="-4.5"
                 y1="160"
                 y2="-32"
                 id="line124" />
              <line
                 style="fill:none;stroke:#000000;stroke-miterlimit:10;"
                 x1="-0.5"
                 x2="-0.5"
                 y1="160"
                 y2="-32"
                 id="line126" />
              <line
                 style="fill:none;stroke:#000000;stroke-miterlimit:10;"
                 x1="3.5"
                 x2="3.5"
                 y1="160"
                 y2="-32"
                 id="line128" />
              <line
                 style="fill:none;stroke:#000000;stroke-miterlimit:10;"
                 x1="7.5"
                 x2="7.5"
                 y1="160"
                 y2="-32"
                 id="line130" />
              <line
                 style="fill:none;stroke:#000000;stroke-miterlimit:10;"
                 x1="11.5"
                 x2="11.5"
                 y1="160"
                 y2="-32"
                 id="line132" />
              <line
                 style="fill:none;stroke:#000000;stroke-miterlimit:10;"
                 x1="15.5"
                 x2="15.5"
                 y1="160"
                 y2="-32"
                 id="line134" />
              <line
                 style="fill:none;stroke:#000000;stroke-miterlimit:10;"
                 x1="19.5"
                 x2="19.5"
                 y1="160"
                 y2="-32"
                 id="line136" />
              <line
                 style="fill:none;stroke:#000000;stroke-miterlimit:10;"
                 x1="23.5"
                 x2="23.5"
                 y1="160"
                 y2="-32"
                 id="line138" />
              <line
                 style="fill:none;stroke:#000000;stroke-miterlimit:10;"
                 x1="27.5"
                 x2="27.5"
                 y1="160"
                 y2="-32"
                 id="line140" />
              <line
                 style="fill:none;stroke:#000000;stroke-miterlimit:10;"
                 x1="31.5"
                 x2="31.5"
                 y1="160"
                 y2="-32"
                 id="line142" />
              <line
                 style="fill:none;stroke:#000000;stroke-miterlimit:10;"
                 x1="35.5"
                 x2="35.5"
                 y1="160"
                 y2="-32"
                 id="line144" />
              <line
                 style="fill:none;stroke:#000000;stroke-miterlimit:10;"
                 x1="39.5"
                 x2="39.5"
                 y1="160"
                 y2="-32"
                 id="line146" />
              <line
                 style="fill:none;stroke:#000000;stroke-miterlimit:10;"
                 x1="43.5"
                 x2="43.5"
                 y1="160"
                 y2="-32"
                 id="line148" />
              <line
                 style="fill:none;stroke:#000000;stroke-miterlimit:10;"
                 x1="47.5"
                 x2="47.5"
                 y1="160"
                 y2="-32"
                 id="line150" />
              <line
                 style="fill:none;stroke:#000000;stroke-miterlimit:10;"
                 x1="51.5"
                 x2="51.5"
                 y1="160"
                 y2="-32"
                 id="line152" />
              <line
                 style="fill:none;stroke:#000000;stroke-miterlimit:10;"
                 x1="55.5"
                 x2="55.5"
                 y1="160"
                 y2="-32"
                 id="line154" />
              <line
                 style="fill:none;stroke:#000000;stroke-miterlimit:10;"
                 x1="59.5"
                 x2="59.5"
                 y1="160"
                 y2="-32"
                 id="line156" />
              <line
                 style="fill:none;stroke:#000000;stroke-miterlimit:10;"
                 x1="63.5"
                 x2="63.5"
                 y1="160"
                 y2="-32"
                 id="line158" />
              <line
                 style="fill:none;stroke:#000000;stroke-miterlimit:10;"
                 x1="67.5"
                 x2="67.5"
                 y1="160"
                 y2="-32"
                 id="line160" />
              <line
                 style="fill:none;stroke:#000000;stroke-miterlimit:10;"
                 x1="71.5"
                 x2="71.5"
                 y1="160"
                 y2="-32"
                 id="line162" />
              <line
                 style="fill:none;stroke:#000000;stroke-miterlimit:10;"
                 x1="75.5"
                 x2="75.5"
                 y1="160"
                 y2="-32"
                 id="line164" />
              <line
                 style="fill:none;stroke:#000000;stroke-miterlimit:10;"
                 x1="79.5"
                 x2="79.5"
                 y1="160"
                 y2="-32"
                 id="line166" />
              <line
                 style="fill:none;stroke:#000000;stroke-miterlimit:10;"
                 x1="83.5"
                 x2="83.5"
                 y1="160"
                 y2="-32"
                 id="line168" />
              <line
                 style="fill:none;stroke:#000000;stroke-miterlimit:10;"
                 x1="87.5"
                 x2="87.5"
                 y1="160"
                 y2="-32"
                 id="line170" />
              <line
                 style="fill:none;stroke:#000000;stroke-miterlimit:10;"
                 x1="91.5"
                 x2="91.5"
                 y1="160"
                 y2="-32"
                 id="line172" />
              <line
                 style="fill:none;stroke:#000000;stroke-miterlimit:10;"
                 x1="95.5"
                 x2="95.5"
                 y1="160"
                 y2="-32"
                 id="line174" />
              <line
                 style="fill:none;stroke:#000000;stroke-miterlimit:10;"
                 x1="99.5"
                 x2="99.5"
                 y1="160"
                 y2="-32"
                 id="line176" />
              <line
                 style="fill:none;stroke:#000000;stroke-miterlimit:10;"
                 x1="103.5"
                 x2="103.5"
                 y1="160"
                 y2="-32"
                 id="line178" />
              <line
                 style="fill:none;stroke:#000000;stroke-miterlimit:10;"
                 x1="107.5"
                 x2="107.5"
                 y1="160"
                 y2="-32"
                 id="line180" />
              <line
                 style="fill:none;stroke:#000000;stroke-miterlimit:10;"
                 x1="111.5"
                 x2="111.5"
                 y1="160"
                 y2="-32"
                 id="line182" />
              <line
                 style="fill:none;stroke:#000000;stroke-miterlimit:10;"
                 x1="115.5"
                 x2="115.5"
                 y1="160"
                 y2="-32"
                 id="line184" />
              <line
                 style="fill:none;stroke:#000000;stroke-miterlimit:10;"
                 x1="119.5"
                 x2="119.5"
                 y1="160"
                 y2="-32"
                 id="line186" />
              <line
                 style="fill:none;stroke:#000000;stroke-miterlimit:10;"
                 x1="123.5"
                 x2="123.5"
                 y1="160"
                 y2="-32"
                 id="line188" />
              <line
                 style="fill:none;stroke:#000000;stroke-miterlimit:10;"
                 x1="127.5"
                 x2="127.5"
                 y1="160"
                 y2="-32"
                 id="line190" />
              <line
                 style="fill:none;stroke:#000000;stroke-miterlimit:10;"
                 x1="131.5"
                 x2="131.5"
                 y1="160"
                 y2="-32"
                 id="line192" />
              <line
                 style="fill:none;stroke:#000000;stroke-miterlimit:10;"
                 x1="135.5"
                 x2="135.5"
                 y1="160"
                 y2="-32"
                 id="line194" />
              <line
                 style="fill:none;stroke:#000000;stroke-miterlimit:10;"
                 x1="136.5"
                 x2="136.5"
                 y1="166"
                 y2="-26"
                 id="line196" />
              <line
                 style="fill:none;stroke:#000000;stroke-miterlimit:10;"
                 x1="143.5"
                 x2="143.5"
                 y1="160"
                 y2="-32"
                 id="line198" />
              <line
                 style="fill:none;stroke:#000000;stroke-miterlimit:10;"
                 x1="147.5"
                 x2="147.5"
                 y1="160"
                 y2="-32"
                 id="line200" />
              <line
                 style="fill:none;stroke:#000000;stroke-miterlimit:10;"
                 x1="151.5"
                 x2="151.5"
                 y1="160"
                 y2="-32"
                 id="line202" />
              <line
                 style="fill:none;stroke:#000000;stroke-miterlimit:10;"
                 x1="155.5"
                 x2="155.5"
                 y1="160"
                 y2="-32"
                 id="line204" />
            </g>
            <g
               id="g302">
              <line
                 style="fill:none;stroke:#000000;stroke-miterlimit:10;"
                 x1="-32"
                 x2="160"
                 y1="-27.5"
                 y2="-27.5"
                 id="line208" />
              <line
                 style="fill:none;stroke:#000000;stroke-miterlimit:10;"
                 x1="-32"
                 x2="160"
                 y1="-23.5"
                 y2="-23.5"
                 id="line210" />
              <line
                 style="fill:none;stroke:#000000;stroke-miterlimit:10;"
                 x1="-32"
                 x2="160"
                 y1="-19.5"
                 y2="-19.5"
                 id="line212" />
              <line
                 style="fill:none;stroke:#000000;stroke-miterlimit:10;"
                 x1="-32"
                 x2="160"
                 y1="-15.5"
                 y2="-15.5"
                 id="line214" />
              <line
                 style="fill:none;stroke:#000000;stroke-miterlimit:10;"
                 x1="-32"
                 x2="160"
                 y1="-11.5"
                 y2="-11.5"
                 id="line216" />
              <line
                 style="fill:none;stroke:#000000;stroke-miterlimit:10;"
                 x1="-32"
                 x2="160"
                 y1="-7.5"
                 y2="-7.5"
                 id="line218" />
              <line
                 style="fill:none;stroke:#000000;stroke-miterlimit:10;"
                 x1="-32"
                 x2="160"
                 y1="-3.5"
                 y2="-3.5"
                 id="line220" />
              <line
                 style="fill:none;stroke:#000000;stroke-miterlimit:10;"
                 x1="-32"
                 x2="160"
                 y1="0.5"
                 y2="0.5"
                 id="line222" />
              <line
                 style="fill:none;stroke:#000000;stroke-miterlimit:10;"
                 x1="-32"
                 x2="160"
                 y1="4.5"
                 y2="4.5"
                 id="line224" />
              <line
                 style="fill:none;stroke:#000000;stroke-miterlimit:10;"
                 x1="-32"
                 x2="160"
                 y1="8.5"
                 y2="8.5"
                 id="line226" />
              <line
                 style="fill:none;stroke:#000000;stroke-miterlimit:10;"
                 x1="-32"
                 x2="160"
                 y1="12.5"
                 y2="12.5"
                 id="line228" />
              <line
                 style="fill:none;stroke:#000000;stroke-miterlimit:10;"
                 x1="-32"
                 x2="160"
                 y1="16.5"
                 y2="16.5"
                 id="line230" />
              <line
                 style="fill:none;stroke:#000000;stroke-miterlimit:10;"
                 x1="-32"
                 x2="160"
                 y1="20.5"
                 y2="20.5"
                 id="line232" />
              <line
                 style="fill:none;stroke:#000000;stroke-miterlimit:10;"
                 x1="-32"
                 x2="160"
                 y1="24.5"
                 y2="24.5"
                 id="line234" />
              <line
                 style="fill:none;stroke:#000000;stroke-miterlimit:10;"
                 x1="-32"
                 x2="160"
                 y1="28.5"
                 y2="28.5"
                 id="line236" />
              <line
                 style="fill:none;stroke:#000000;stroke-miterlimit:10;"
                 x1="-32"
                 x2="160"
                 y1="32.5"
                 y2="32.5"
                 id="line238" />
              <line
                 style="fill:none;stroke:#000000;stroke-miterlimit:10;"
                 x1="-32"
                 x2="160"
                 y1="36.5"
                 y2="36.5"
                 id="line240" />
              <line
                 style="fill:none;stroke:#000000;stroke-miterlimit:10;"
                 x1="-32"
                 x2="160"
                 y1="40.5"
                 y2="40.5"
                 id="line242" />
              <line
                 style="fill:none;stroke:#000000;stroke-miterlimit:10;"
                 x1="-32"
                 x2="160"
                 y1="44.5"
                 y2="44.5"
                 id="line244" />
              <line
                 style="fill:none;stroke:#000000;stroke-miterlimit:10;"
                 x1="-32"
                 x2="160"
                 y1="48.5"
                 y2="48.5"
                 id="line246" />
              <line
                 style="fill:none;stroke:#000000;stroke-miterlimit:10;"
                 x1="-32"
                 x2="160"
                 y1="52.5"
                 y2="52.5"
                 id="line248" />
              <line
                 style="fill:none;stroke:#000000;stroke-miterlimit:10;"
                 x1="-32"
                 x2="160"
                 y1="56.5"
                 y2="56.5"
                 id="line250" />
              <line
                 style="fill:none;stroke:#000000;stroke-miterlimit:10;"
                 x1="-32"
                 x2="160"
                 y1="60.5"
                 y2="60.5"
                 id="line252" />
              <line
                 style="fill:none;stroke:#000000;stroke-miterlimit:10;"
                 x1="-32"
                 x2="160"
                 y1="64.5"
                 y2="64.5"
                 id="line254" />
              <line
                 style="fill:none;stroke:#000000;stroke-miterlimit:10;"
                 x1="-32"
                 x2="160"
                 y1="68.5"
                 y2="68.5"
                 id="line256" />
              <line
                 style="fill:none;stroke:#000000;stroke-miterlimit:10;"
                 x1="-32"
                 x2="160"
                 y1="72.5"
                 y2="72.5"
                 id="line258" />
              <line
                 style="fill:none;stroke:#000000;stroke-miterlimit:10;"
                 x1="-32"
                 x2="160"
                 y1="76.5"
                 y2="76.5"
                 id="line260" />
              <line
                 style="fill:none;stroke:#000000;stroke-miterlimit:10;"
                 x1="-32"
                 x2="160"
                 y1="80.5"
                 y2="80.5"
                 id="line262" />
              <line
                 style="fill:none;stroke:#000000;stroke-miterlimit:10;"
                 x1="-32"
                 x2="160"
                 y1="84.5"
                 y2="84.5"
                 id="line264" />
              <line
                 style="fill:none;stroke:#000000;stroke-miterlimit:10;"
                 x1="-32"
                 x2="160"
                 y1="88.5"
                 y2="88.5"
                 id="line266" />
              <line
                 style="fill:none;stroke:#000000;stroke-miterlimit:10;"
                 x1="-32"
                 x2="160"
                 y1="92.5"
                 y2="92.5"
                 id="line268" />
              <line
                 style="fill:none;stroke:#000000;stroke-miterlimit:10;"
                 x1="-32"
                 x2="160"
                 y1="96.5"
                 y2="96.5"
                 id="line270" />
              <line
                 style="fill:none;stroke:#000000;stroke-miterlimit:10;"
                 x1="-32"
                 x2="160"
                 y1="100.5"
                 y2="100.5"
                 id="line272" />
              <line
                 style="fill:none;stroke:#000000;stroke-miterlimit:10;"
                 x1="-32"
                 x2="160"
                 y1="104.5"
                 y2="104.5"
                 id="line274" />
              <line
                 style="fill:none;stroke:#000000;stroke-miterlimit:10;"
                 x1="-32"
                 x2="160"
                 y1="108.5"
                 y2="108.5"
                 id="line276" />
              <line
                 style="fill:none;stroke:#000000;stroke-miterlimit:10;"
                 x1="-32"
                 x2="160"
                 y1="112.5"
                 y2="112.5"
                 id="line278" />
              <line
                 style="fill:none;stroke:#000000;stroke-miterlimit:10;"
                 x1="-32"
                 x2="160"
                 y1="116.5"
                 y2="116.5"
                 id="line280" />
              <line
                 style="fill:none;stroke:#000000;stroke-miterlimit:10;"
                 x1="-32"
                 x2="160"
                 y1="120.5"
                 y2="120.5"
                 id="line282" />
              <line
                 style="fill:none;stroke:#000000;stroke-miterlimit:10;"
                 x1="-32"
                 x2="160"
                 y1="124.5"
                 y2="124.5"
                 id="line284" />
              <line
                 style="fill:none;stroke:#000000;stroke-miterlimit:10;"
                 x1="-32"
                 x2="160"
                 y1="128.5"
                 y2="128.5"
                 id="line286" />
              <line
                 style="fill:none;stroke:#000000;stroke-miterlimit:10;"
                 x1="-32"
                 x2="160"
                 y1="132.5"
                 y2="132.5"
                 id="line288" />
              <line
                 style="fill:none;stroke:#000000;stroke-miterlimit:10;"
                 x1="-32"
                 x2="160"
                 y1="136.5"
                 y2="136.5"
                 id="line290" />
              <line
                 style="fill:none;stroke:#000000;stroke-miterlimit:10;"
                 x1="-32"
                 x2="160"
                 y1="140.5"
                 y2="140.5"
                 id="line292" />
              <line
                 style="fill:none;stroke:#000000;stroke-miterlimit:10;"
                 x1="-32"
                 x2="160"
                 y1="144.5"
                 y2="144.5"
                 id="line294" />
              <line
                 style="fill:none;stroke:#000000;stroke-miterlimit:10;"
                 x1="-32"
                 x2="160"
                 y1="148.5"
                 y2="148.5"
                 id="line296" />
              <line
                 style="fill:none;stroke:#000000;stroke-miterlimit:10;"
                 x1="-32"
                 x2="160"
                 y1="152.5"
                 y2="152.5"
                 id="line298" />
              <line
                 style="fill:none;stroke:#000000;stroke-miterlimit:10;"
                 x1="-32"
                 x2="160"
                 y1="156.5"
                 y2="156.5"
                 id="line300" />
            </g>
            <path
               d="M160-32v192H-32V-32H160 M160-32H-32v192h192V-32L160-32z"
               id="path304" />
          </g>
        </g>
        <g
           id="g318">
          <rect
             height="128"
             style="opacity:0.3;fill:#F44336;"
             width="4"
             x="0"
             id="rect310" />
          <rect
             height="128"
             style="opacity:0.3;fill:#F44336;"
             width="4"
             x="124"
             id="rect312" />
          <rect
             height="120"
             style="opacity:0.3;fill:#F44336;"
             transform="matrix(-1.836970e-16 1 -1 -1.836970e-16 66 -62)"
             width="4"
             x="62"
             y="-58"
             id="rect314" />
          <rect
             height="120"
             style="opacity:0.3;fill:#F44336;"
             transform="matrix(-1.836970e-16 1 -1 -1.836970e-16 190 62)"
             width="4"
             x="62"
             y="66"
             id="rect316" />
        </g>
      </g>
    </g>
  </g>
</svg>
