<?xml version="1.0" encoding="UTF-8" standalone="no"?>
<svg
   xmlns:dc="http://purl.org/dc/elements/1.1/"
   xmlns:cc="http://creativecommons.org/ns#"
   xmlns:rdf="http://www.w3.org/1999/02/22-rdf-syntax-ns#"
   xmlns:svg="http://www.w3.org/2000/svg"
   xmlns="http://www.w3.org/2000/svg"
   xmlns:xlink="http://www.w3.org/1999/xlink"
   xmlns:sodipodi="http://sodipodi.sourceforge.net/DTD/sodipodi-0.dtd"
   xmlns:inkscape="http://www.inkscape.org/namespaces/inkscape"
   width="48"
   height="48"
   viewBox="0 0 12.7 12.7"
   version="1.1"
   id="svg8"
   inkscape:version="1.0.2 (e86c870879, 2021-01-15)"
   sodipodi:docname="application-x-addon.svg">
  <defs
     id="defs2">
    <linearGradient
       inkscape:collect="always"
       id="linearGradient919">
      <stop
         style="stop-color:#969696;stop-opacity:1"
         offset="0"
         id="stop915" />
      <stop
         style="stop-color:#5e5e5e;stop-opacity:1"
         offset="1"
         id="stop917" />
    </linearGradient>
    <linearGradient
       inkscape:collect="always"
       xlink:href="#linearGradient919"
       id="linearGradient921"
       x1="4.3650241"
       y1="10.979763"
       x2="8.8635273"
       y2="10.979763"
       gradientUnits="userSpaceOnUse"
       gradientTransform="translate(-0.00113736,-4.2278593e-4)" />
    <linearGradient
       inkscape:collect="always"
       xlink:href="#linearGradient1195"
       id="linearGradient1197"
       x1="0.95329666"
       y1="35.80014"
       x2="5.4042096"
       y2="45.354477"
       gradientUnits="userSpaceOnUse" />
    <linearGradient
       inkscape:collect="always"
       id="linearGradient1195">
      <stop
         style="stop-color:#65a282;stop-opacity:1"
         offset="0"
         id="stop1191" />
      <stop
         style="stop-color:#84bc9e;stop-opacity:1"
         offset="1"
         id="stop1193" />
    </linearGradient>
  </defs>
  <sodipodi:namedview
     id="base"
     pagecolor="#ffffff"
     bordercolor="#666666"
     borderopacity="1.0"
     inkscape:pageopacity="0.0"
     inkscape:pageshadow="2"
     inkscape:zoom="15.979167"
     inkscape:cx="24"
     inkscape:cy="24"
     inkscape:document-units="mm"
     inkscape:current-layer="layer1"
     inkscape:document-rotation="0"
     showgrid="false"
     units="px"
     inkscape:window-width="1680"
     inkscape:window-height="982"
     inkscape:window-x="0"
     inkscape:window-y="37"
     inkscape:window-maximized="1">
    <inkscape:grid
       type="xygrid"
       id="grid833"
       empspacing="1" />
  </sodipodi:namedview>
  <metadata
     id="metadata5">
    <rdf:RDF>
      <cc:Work
         rdf:about="">
        <dc:format>image/svg+xml</dc:format>
        <dc:type
           rdf:resource="http://purl.org/dc/dcmitype/StillImage" />
        <dc:title></dc:title>
      </cc:Work>
    </rdf:RDF>
  </metadata>
  <g
     inkscape:label="Layer 1"
     inkscape:groupmode="layer"
     id="layer1">
    <g
       id="g913"
       transform="matrix(0.99974332,0,0,0.99992575,4.7540213e-4,0)"
       style="stroke-width:1.00017">
      <g
         id="g883"
         transform="matrix(0.99992768,0,0,1,0.26469772,0)"
         style="stroke-width:1.0002">
        <g
           id="g875"
           style="stroke-width:1.0002">
          <g
             id="rect837"
             style="opacity:1;stroke-width:1.0002">
            <path
               style="color:#000000;font-style:normal;font-variant:normal;font-weight:normal;font-stretch:normal;font-size:medium;line-height:normal;font-family:sans-serif;font-variant-ligatures:normal;font-variant-position:normal;font-variant-caps:normal;font-variant-numeric:normal;font-variant-alternates:normal;font-variant-east-asian:normal;font-feature-settings:normal;font-variation-settings:normal;text-indent:0;text-align:start;text-decoration:none;text-decoration-line:none;text-decoration-style:solid;text-decoration-color:#000000;letter-spacing:normal;word-spacing:normal;text-transform:none;writing-mode:lr-tb;direction:ltr;text-orientation:mixed;dominant-baseline:auto;baseline-shift:baseline;text-anchor:start;white-space:normal;shape-padding:0;shape-margin:0;inline-size:0;clip-rule:nonzero;display:inline;overflow:visible;visibility:visible;isolation:auto;mix-blend-mode:normal;color-interpolation:sRGB;color-interpolation-filters:linearRGB;solid-color:#000000;solid-opacity:1;vector-effect:none;fill:#f0f0f0;fill-opacity:1;fill-rule:nonzero;stroke:none;stroke-width:0.264634;stroke-linecap:round;stroke-linejoin:miter;stroke-miterlimit:4;stroke-dasharray:none;stroke-dashoffset:0;stroke-opacity:1;color-rendering:auto;image-rendering:auto;shape-rendering:auto;text-rendering:auto;enable-background:accumulate;stop-color:#000000;stop-opacity:1"
               d="m 3.96875,0 h 4.829e-4 6.6141001 V 12.7 H 1.5875 V 2.38125 Z"
               id="path849"
               sodipodi:nodetypes="ccccccc" />
          </g>
          <path
             id="path843"
             style="fill:#dcdcdc;fill-opacity:1;stroke:none;stroke-width:0.0529273;stroke-linecap:round;stroke-linejoin:miter;stroke-miterlimit:4;stroke-dasharray:none"
             inkscape:transform-center-x="0.10981891"
             inkscape:transform-center-y="-0.47124644"
             d="m 3.9692329,2.3813476 -2.3817325,7.92e-5 V 2.1168238 L 3.7048637,0 h 0.2646704 z"
             sodipodi:nodetypes="cccccc" />
          <path
             id="path853"
             style="opacity:1;fill:#ebebeb;fill-opacity:1;stroke:none;stroke-width:0.0529273;stroke-linecap:round;stroke-linejoin:miter;stroke-miterlimit:4;stroke-dasharray:none"
             inkscape:transform-center-x="0.2421106"
             inkscape:transform-center-y="-0.2421106"
             d="M 10.585156,12.70052 H 1.5875004 V 11.377549 L 10.585156,2.3813476 Z"
             sodipodi:nodetypes="ccccc" />
          <path
             style="color:#000000;font-style:normal;font-variant:normal;font-weight:normal;font-stretch:normal;font-size:medium;line-height:normal;font-family:sans-serif;font-variant-ligatures:normal;font-variant-position:normal;font-variant-caps:normal;font-variant-numeric:normal;font-variant-alternates:normal;font-variant-east-asian:normal;font-feature-settings:normal;font-variation-settings:normal;text-indent:0;text-align:start;text-decoration:none;text-decoration-line:none;text-decoration-style:solid;text-decoration-color:#000000;letter-spacing:normal;word-spacing:normal;text-transform:none;writing-mode:lr-tb;direction:ltr;text-orientation:mixed;dominant-baseline:auto;baseline-shift:baseline;text-anchor:start;white-space:normal;shape-padding:0;shape-margin:0;inline-size:0;clip-rule:nonzero;display:inline;overflow:visible;visibility:visible;isolation:auto;mix-blend-mode:normal;color-interpolation:sRGB;color-interpolation-filters:linearRGB;solid-color:#000000;solid-opacity:1;vector-effect:none;fill:#c8c8c8;fill-opacity:1;fill-rule:nonzero;stroke:none;stroke-width:1.0002;stroke-linecap:round;stroke-linejoin:miter;stroke-miterlimit:4;stroke-dasharray:none;stroke-dashoffset:0;stroke-opacity:1;color-rendering:auto;image-rendering:auto;shape-rendering:auto;text-rendering:auto;enable-background:accumulate;stop-color:#000000"
             d="M 3.7063267,9.2227376e-4 1.58966,2.1175889 v 0 L 1.5900506,12.700142 H 10.586145 V 9.2227376e-4 Z M 3.8473701,0.2613401 l 0.122164,0.003263 6.3509859,-8.81e-6 V 12.43647 H 1.8537225 l -0.00155,-10.0550432 0.00232,-0.1095277 z"
             id="path851"
             sodipodi:nodetypes="ccccccccccccccc" />
        </g>
      </g>
      <g
         id="rect862"
         style="opacity:1;stroke-width:1.00017"
         transform="translate(-0.13024311,0.39820908)">
        <path
           style="color:#000000;font-style:normal;font-variant:normal;font-weight:normal;font-stretch:normal;font-size:medium;line-height:normal;font-family:sans-serif;font-variant-ligatures:normal;font-variant-position:normal;font-variant-caps:normal;font-variant-numeric:normal;font-variant-alternates:normal;font-variant-east-asian:normal;font-feature-settings:normal;font-variation-settings:normal;text-indent:0;text-align:start;text-decoration:none;text-decoration-line:none;text-decoration-style:solid;text-decoration-color:#000000;letter-spacing:normal;word-spacing:normal;text-transform:none;writing-mode:lr-tb;direction:ltr;text-orientation:mixed;dominant-baseline:auto;baseline-shift:baseline;text-anchor:start;white-space:normal;shape-padding:0;shape-margin:0;inline-size:0;clip-rule:nonzero;display:inline;overflow:visible;visibility:visible;isolation:auto;mix-blend-mode:normal;color-interpolation:sRGB;color-interpolation-filters:linearRGB;solid-color:#000000;solid-opacity:1;vector-effect:none;fill:url(#linearGradient921);fill-opacity:1;fill-rule:nonzero;stroke:none;stroke-width:0.264626;stroke-linecap:round;stroke-linejoin:miter;stroke-miterlimit:4;stroke-dasharray:none;stroke-dashoffset:0;stroke-opacity:1;color-rendering:auto;image-rendering:auto;shape-rendering:auto;text-rendering:auto;enable-background:accumulate;stop-color:#000000;stop-opacity:1"
           d="m 1.9823266,9.9209637 h 8.9970054 l -1.3e-4,2.3800023 -8.9968754,0.0013 z"
           id="path867"
           sodipodi:nodetypes="ccccc" />
        <path
           style="color:#000000;font-style:normal;font-variant:normal;font-weight:normal;font-stretch:normal;font-size:medium;line-height:normal;font-family:sans-serif;font-variant-ligatures:normal;font-variant-position:normal;font-variant-caps:normal;font-variant-numeric:normal;font-variant-alternates:normal;font-variant-east-asian:normal;font-feature-settings:normal;font-variation-settings:normal;text-indent:0;text-align:start;text-decoration:none;text-decoration-line:none;text-decoration-style:solid;text-decoration-color:#000000;letter-spacing:normal;word-spacing:normal;text-transform:none;writing-mode:lr-tb;direction:ltr;text-orientation:mixed;dominant-baseline:auto;baseline-shift:baseline;text-anchor:start;white-space:normal;shape-padding:0;shape-margin:0;inline-size:0;clip-rule:nonzero;display:inline;overflow:visible;visibility:visible;isolation:auto;mix-blend-mode:normal;color-interpolation:sRGB;color-interpolation-filters:linearRGB;solid-color:#000000;solid-opacity:1;vector-effect:none;fill:#5e5e5e;fill-opacity:1;fill-rule:nonzero;stroke:none;stroke-width:1.00017;stroke-linecap:round;stroke-linejoin:miter;stroke-miterlimit:4;stroke-dasharray:none;stroke-dashoffset:0;stroke-opacity:1;color-rendering:auto;image-rendering:auto;shape-rendering:auto;text-rendering:auto;enable-background:accumulate;stop-color:#000000;stop-opacity:1"
           d="m 1.984375,9.921875 v 0.132813 2.248046 h 8.996094 V 9.921875 Z m 0.2636719,-9.113e-4 h 8.4666671 l 1.3e-4,2.1180983 H 2.2480469 Z"
           id="path869"
           sodipodi:nodetypes="ccccccccccc" />
      </g>
    </g>
    <g
       aria-label="E X T"
       transform="scale(1.031307,0.96964338)"
       id="text2959"
       style="font-style:normal;font-weight:normal;font-size:7.27808px;line-height:1.25;font-family:sans-serif;fill:#000000;fill-opacity:1;stroke:none;stroke-width:0.264583">
      <path
         d="m 4.2522217,12.517669 h 0.906121 V 12.241102 H 4.5669987 V 12.015481 H 5.1073961 V 11.738914 H 4.5669987 v -0.207425 h 0.591344 v -0.276567 h -0.906121 z"
         style="font-style:normal;font-variant:normal;font-weight:800;font-stretch:normal;font-size:1.81952px;font-family:Cantarell;-inkscape-font-specification:'Cantarell Ultra-Bold';fill:#ffffff;stroke-width:0.264583"
         id="path1259" />
      <path
         d="m 5.5222441,12.517669 h 0.3657235 l 0.2401766,-0.414851 0.2583719,0.414851 H 6.7667957 L 6.2991791,11.849905 6.7158492,11.254922 H 6.3464866 L 6.1354223,11.598811 5.924358,11.254922 H 5.5513564 l 0.4148506,0.60408 z"
         style="font-style:normal;font-variant:normal;font-weight:800;font-stretch:normal;font-size:1.81952px;font-family:Cantarell;-inkscape-font-specification:'Cantarell Ultra-Bold';fill:#ffffff;stroke-width:0.264583"
         id="path1261" />
      <path
         d="m 7.4527528,12.517669 h 0.3093184 v -0.98618 h 0.3930163 v -0.276567 h -1.091712 v 0.276567 h 0.3893773 z"
         style="font-style:normal;font-variant:normal;font-weight:800;font-stretch:normal;font-size:1.81952px;font-family:Cantarell;-inkscape-font-specification:'Cantarell Ultra-Bold';fill:#ffffff;stroke-width:0.264583"
         id="path1263" />
    </g>
    <g
       id="g1189"
       transform="matrix(0.25066281,0,0,0.24875629,0.00693215,0.07740003)"
       style="stroke-width:4.00467">
      <path
         id="rect927"
         style="opacity:1;fill:url(#linearGradient1197);fill-opacity:1;stroke:none;stroke-width:1.06123;stroke-linecap:round;stroke-linejoin:miter;stroke-miterlimit:4;stroke-dasharray:none;stroke-opacity:1"
         transform="rotate(-45.428312)"
         d="M -6.8824682,28.301153 H 7.4149132 V 42.598535 L -6.9573954,42.497157 Z"
         sodipodi:nodetypes="ccccc" />
      <path
         id="rect927-3"
         style="opacity:1;fill:#dcdcdc;fill-opacity:1;stroke:none;stroke-width:1.06123;stroke-linecap:round;stroke-linejoin:miter;stroke-miterlimit:4;stroke-dasharray:none;stroke-opacity:1"
         transform="rotate(-45.428312)"
         d="m -16.831616,28.396743 9.1537481,0.02563 -0.039273,14.021655 -8.2968541,-0.03561 -5.926204,-6.015476 0.04632,-3.041295 z"
         sodipodi:nodetypes="ccccccc" />
      <path
         id="rect927-3-6"
         style="opacity:1;fill:#dcdcdc;fill-opacity:1;stroke:none;stroke-width:1.06123;stroke-linecap:round;stroke-linejoin:miter;stroke-miterlimit:4;stroke-dasharray:none;stroke-opacity:1"
         transform="rotate(-45.428312)"
         d="m -15.273219,43.160357 29.322916,0.224597 0.07841,2.005842 -12.4160201,12.161302 -2.9105597,-0.104986 -4.4446533,-4.511607 z"
         sodipodi:nodetypes="ccccccc" />
      <path
         id="path972"
         style="opacity:1;fill:#398057;fill-opacity:1;stroke:none;stroke-width:1.06123;stroke-linecap:round;stroke-linejoin:miter;stroke-miterlimit:4;stroke-dasharray:none;stroke-opacity:1"
         d="m 27.383119,19.61208 a 1.9843749,1.984375 0 0 1 -1.984374,1.984375 1.9843749,1.984375 0 0 1 -1.984375,-1.984375 1.9843749,1.984375 0 0 1 1.984375,-1.984375 1.9843749,1.984375 0 0 1 1.984374,1.984375 z" />
      <path
         id="path972-7"
         style="opacity:1;fill:#3a8058;fill-opacity:1;stroke:none;stroke-width:1.06123;stroke-linecap:round;stroke-linejoin:miter;stroke-miterlimit:4;stroke-dasharray:none;stroke-opacity:1"
         d="m 22.24288,24.712442 a 1.9843749,1.984375 0 0 1 -1.984375,1.984375 1.9843749,1.984375 0 0 1 -1.984375,-1.984375 1.9843749,1.984375 0 0 1 1.984375,-1.984375 1.9843749,1.984375 0 0 1 1.984375,1.984375 z" />
      <path
         id="path972-5"
         style="opacity:1;fill:#398057;fill-opacity:1;stroke:none;stroke-width:1.06123;stroke-linecap:round;stroke-linejoin:miter;stroke-miterlimit:4;stroke-dasharray:none;stroke-opacity:1"
         d="M 27.48155,29.91626 A 1.9843749,1.984375 0 0 1 25.497175,31.900635 1.9843749,1.984375 0 0 1 23.5128,29.91626 1.9843749,1.984375 0 0 1 25.497175,27.931885 1.9843749,1.984375 0 0 1 27.48155,29.91626 Z" />
      <path
         id="path972-3"
         style="opacity:1;fill:#398057;fill-opacity:1;stroke:none;stroke-width:1.06123;stroke-linecap:round;stroke-linejoin:miter;stroke-miterlimit:4;stroke-dasharray:none;stroke-opacity:1"
         d="m 32.319639,24.597094 a 1.9843749,1.984375 0 0 1 -1.984375,1.984375 1.9843749,1.984375 0 0 1 -1.984375,-1.984375 1.9843749,1.984375 0 0 1 1.984375,-1.984375 1.9843749,1.984375 0 0 1 1.984375,1.984375 z" />
      <path
         id="path972-56"
         style="opacity:1;fill:#c8c8c8;fill-opacity:1;stroke:none;stroke-width:1.06123;stroke-linecap:round;stroke-linejoin:miter;stroke-miterlimit:4;stroke-dasharray:none;stroke-opacity:1"
         d="m 16.659813,30.21385 a 1.9843749,1.984375 0 0 1 -1.984375,1.984375 1.9843749,1.984375 0 0 1 -1.984375,-1.984375 1.9843749,1.984375 0 0 1 1.984375,-1.984375 1.9843749,1.984375 0 0 1 1.984375,1.984375 z" />
      <path
         id="path972-2"
         style="opacity:1;fill:#c8c8c8;fill-opacity:1;stroke:none;stroke-width:1.06123;stroke-linecap:round;stroke-linejoin:miter;stroke-miterlimit:4;stroke-dasharray:none;stroke-opacity:1"
         d="m 21.735617,35.412994 a 1.9843749,1.984375 0 0 1 -1.984375,1.984375 1.9843749,1.984375 0 0 1 -1.984375,-1.984375 1.9843749,1.984375 0 0 1 1.984375,-1.984375 1.9843749,1.984375 0 0 1 1.984375,1.984375 z" />
      <path
         id="path972-9"
         style="opacity:1;fill:#c8c8c8;fill-opacity:1;stroke:none;stroke-width:4.01098;stroke-linecap:round;stroke-linejoin:miter;stroke-miterlimit:4;stroke-dasharray:none;stroke-opacity:1"
         d="m 36.818359,125.45117 c -1.799722,0.009 -3.852917,0.94562 -5.209264,2.12858 l 0.116558,11.03254 c 1.353134,1.14253 3.356887,1.83872 5.127859,1.83888 4.142136,0 7.5,-3.35786 7.5,-7.5 0,-4.14214 -3.357864,-7.5 -7.5,-7.5 -0.01172,-3e-5 -0.02344,-3e-5 -0.03516,0 z"
         transform="scale(0.26458333)"
         sodipodi:nodetypes="scccscss" />
      <path
         id="path972-2-0"
         style="opacity:1;fill:#c8c8c8;fill-opacity:1;stroke:none;stroke-width:1.06123;stroke-linecap:round;stroke-linejoin:miter;stroke-miterlimit:4;stroke-dasharray:none;stroke-opacity:1"
         d="m 33.013899,35.25914 a 1.9843749,1.984375 0 0 1 -1.984375,1.984375 1.9843749,1.984375 0 0 1 -1.984375,-1.984375 1.9843749,1.984375 0 0 1 1.984375,-1.984375 1.9843749,1.984375 0 0 1 1.984375,1.984375 z" />
      <path
         id="path972-2-9"
         style="opacity:1;fill:#c8c8c8;fill-opacity:1;stroke:none;stroke-width:4.01098;stroke-linecap:round;stroke-linejoin:miter;stroke-miterlimit:4;stroke-dasharray:none;stroke-opacity:1"
         d="m 154.73242,125.77344 c -4.12764,0.0204 -7.46294,3.37231 -7.46289,7.5 0,4.14214 3.35786,7.5 7.5,7.5 1.78401,2.4e-4 3.37042,-0.79528 4.72794,-1.95279 l 0.39896,-11.04928 c -1.34942,-1.131 -3.36615,-1.99717 -5.12686,-1.99793 -0.0124,-3e-5 -0.0247,-3e-5 -0.0371,0 z"
         transform="scale(0.26458333)"
         sodipodi:nodetypes="sccccsss" />
      <path
         id="path972-2-3"
         style="opacity:1;fill:#c8c8c8;fill-opacity:1;stroke:none;stroke-width:1.06123;stroke-linecap:round;stroke-linejoin:miter;stroke-miterlimit:4;stroke-dasharray:none;stroke-opacity:1"
         d="m 37.978516,30.254965 a 1.9843749,1.984375 0 0 1 -1.984375,1.984375 1.9843749,1.984375 0 0 1 -1.984375,-1.984375 1.9843749,1.984375 0 0 1 1.984375,-1.984375 1.9843749,1.984375 0 0 1 1.984375,1.984375 z" />
      <path
         id="path972-2-6"
         style="opacity:1;fill:#c8c8c8;fill-opacity:1;stroke:none;stroke-width:1.06124;stroke-linecap:round;stroke-linejoin:miter;stroke-miterlimit:4;stroke-dasharray:none;stroke-opacity:1"
         d="m 41.099778,23.508467 c -1.092104,0.0054 -1.974569,0.892258 -1.974556,1.984375 0,1.09594 0.888434,1.984375 1.984375,1.984375 0.410893,-2.64e-4 0.811564,-0.128132 1.146699,-0.365868 l -0.01447,-3.247865 c -0.332367,-0.231049 -0.727443,-0.354927 -1.132229,-0.355017 -0.0033,-8e-6 -0.0065,-8e-6 -0.0098,0 z"
         sodipodi:nodetypes="cccccsc" />
      <path
         id="path972-2-0-5"
         style="fill:#c8c8c8;fill-opacity:1;stroke:none;stroke-width:1.06123;stroke-linecap:round;stroke-linejoin:miter;stroke-miterlimit:4;stroke-dasharray:none;stroke-opacity:1"
         d="m 33.013899,35.25914 a 1.9843749,1.984375 0 0 1 -1.984375,1.984375 1.9843749,1.984375 0 0 1 -1.984375,-1.984375 1.9843749,1.984375 0 0 1 1.984375,-1.984375 1.9843749,1.984375 0 0 1 1.984375,1.984375 z" />
      <path
         id="path972-2-3-1-2"
         style="fill:#c8c8c8;fill-opacity:1;stroke:none;stroke-width:1.06122;stroke-linecap:round;stroke-linejoin:miter;stroke-miterlimit:4;stroke-dasharray:none;stroke-opacity:1"
         d="m 25.70068,38.31696 c -1.095319,6.2e-4 -1.982993,0.88859 -1.983251,1.983909 -3.48e-4,0.301569 0.06804,0.59925 0.199975,0.870428 l 3.568615,-0.0041 c 0.131318,-0.269916 0.199693,-0.566107 0.199975,-0.866272 -2.58e-4,-1.096125 -0.889189,-1.984427 -1.985314,-1.983909 z"
         sodipodi:nodetypes="sccccss" />
      <path
         id="path972-2-3-1-7"
         style="fill:#c8c8c8;fill-opacity:1;stroke:none;stroke-width:1.06122;stroke-linecap:round;stroke-linejoin:miter;stroke-miterlimit:4;stroke-dasharray:none;stroke-opacity:1"
         d="m 14.646769,38.170523 c -1.06866,0.03727 -1.915616,0.914598 -1.915218,1.983909 6.6e-5,0.355197 0.09547,0.703865 0.276253,1.009613 h 3.416057 c 0.180784,-0.305748 0.276187,-0.654416 0.276254,-1.009613 -2.58e-4,-1.096123 -0.889188,-1.984427 -1.985313,-1.983909 -0.02267,-3.88e-4 -0.04536,-3.88e-4 -0.06803,0 z"
         sodipodi:nodetypes="scccccss" />
      <path
         id="path972-2-3-1-7-9"
         style="fill:#c8c8c8;fill-opacity:1;stroke:none;stroke-width:1.06122;stroke-linecap:round;stroke-linejoin:miter;stroke-miterlimit:4;stroke-dasharray:none;stroke-opacity:1"
         d="m 35.516703,38.300554 c -1.06866,0.03727 -1.915616,0.914598 -1.915218,1.983909 3.03e-4,0.303294 0.07012,0.602483 0.204098,0.874583 l 3.56243,-0.0041 c 0.132645,-0.27101 0.201742,-0.568699 0.202036,-0.870428 -2.57e-4,-1.096124 -0.889188,-1.984427 -1.985312,-1.983909 -0.02267,-3.88e-4 -0.04536,-3.88e-4 -0.06803,0 z"
         sodipodi:nodetypes="scccccss" />
    </g>
  </g>
</svg>
