<?xml version="1.0" encoding="UTF-8" standalone="no"?>
<svg
   xmlns:dc="http://purl.org/dc/elements/1.1/"
   xmlns:cc="http://creativecommons.org/ns#"
   xmlns:rdf="http://www.w3.org/1999/02/22-rdf-syntax-ns#"
   xmlns:svg="http://www.w3.org/2000/svg"
   xmlns="http://www.w3.org/2000/svg"
   xmlns:xlink="http://www.w3.org/1999/xlink"
   xmlns:sodipodi="http://sodipodi.sourceforge.net/DTD/sodipodi-0.dtd"
   xmlns:inkscape="http://www.inkscape.org/namespaces/inkscape"
   width="48"
   height="48"
   viewBox="0 0 12.7 12.7"
   version="1.1"
   id="svg8"
   inkscape:version="1.0.2 (e86c870879, 2021-01-15)"
   sodipodi:docname="gear2.svg">
  <defs
     id="defs2">
    <linearGradient
       inkscape:collect="always"
       xlink:href="#linearGradient1125"
       id="linearGradient1127"
       x1="24.041096"
       y1="9.2154522"
       x2="38.447945"
       y2="23.530575"
       gradientUnits="userSpaceOnUse"
       gradientTransform="translate(-6.0802047,3.5339595)" />
    <linearGradient
       inkscape:collect="always"
       id="linearGradient1125">
      <stop
         style="stop-color:#646464;stop-opacity:1"
         offset="0"
         id="stop1121" />
      <stop
         style="stop-color:#8c8c8c;stop-opacity:1"
         offset="1"
         id="stop1123" />
    </linearGradient>
  </defs>
  <sodipodi:namedview
     id="base"
     pagecolor="#ffffff"
     bordercolor="#666666"
     borderopacity="1.0"
     inkscape:pageopacity="0.0"
     inkscape:pageshadow="2"
     inkscape:zoom="15.979167"
     inkscape:cx="24"
     inkscape:cy="24"
     inkscape:document-units="mm"
     inkscape:current-layer="layer1"
     inkscape:document-rotation="0"
     showgrid="false"
     units="px"
     inkscape:window-width="1680"
     inkscape:window-height="982"
     inkscape:window-x="0"
     inkscape:window-y="37"
     inkscape:window-maximized="1">
    <inkscape:grid
       type="xygrid"
       id="grid833"
       empspacing="1" />
  </sodipodi:namedview>
  <metadata
     id="metadata5">
    <rdf:RDF>
      <cc:Work
         rdf:about="">
        <dc:format>image/svg+xml</dc:format>
        <dc:type
           rdf:resource="http://purl.org/dc/dcmitype/StillImage" />
        <dc:title />
      </cc:Work>
    </rdf:RDF>
  </metadata>
  <g
     inkscape:label="Layer 1"
     inkscape:groupmode="layer"
     id="layer1">
    <g
       id="g913"
       transform="matrix(0.99974332,0,0,0.99992575,4.7540213e-4,0)"
       style="stroke-width:1.00017">
      <g
         id="g883"
         transform="matrix(0.99992768,0,0,1,0.26469772,0)"
         style="stroke-width:1.0002">
        <g
           id="g875"
           style="stroke-width:1.0002">
          <g
             id="rect837"
             style="opacity:1;stroke-width:1.0002">
            <path
               style="color:#000000;font-style:normal;font-variant:normal;font-weight:normal;font-stretch:normal;font-size:medium;line-height:normal;font-family:sans-serif;font-variant-ligatures:normal;font-variant-position:normal;font-variant-caps:normal;font-variant-numeric:normal;font-variant-alternates:normal;font-variant-east-asian:normal;font-feature-settings:normal;font-variation-settings:normal;text-indent:0;text-align:start;text-decoration:none;text-decoration-line:none;text-decoration-style:solid;text-decoration-color:#000000;letter-spacing:normal;word-spacing:normal;text-transform:none;writing-mode:lr-tb;direction:ltr;text-orientation:mixed;dominant-baseline:auto;baseline-shift:baseline;text-anchor:start;white-space:normal;shape-padding:0;shape-margin:0;inline-size:0;clip-rule:nonzero;display:inline;overflow:visible;visibility:visible;isolation:auto;mix-blend-mode:normal;color-interpolation:sRGB;color-interpolation-filters:linearRGB;solid-color:#000000;solid-opacity:1;vector-effect:none;fill:#f0f0f0;fill-opacity:1;fill-rule:nonzero;stroke:none;stroke-width:0.264634;stroke-linecap:round;stroke-linejoin:miter;stroke-miterlimit:4;stroke-dasharray:none;stroke-dashoffset:0;stroke-opacity:1;color-rendering:auto;image-rendering:auto;shape-rendering:auto;text-rendering:auto;enable-background:accumulate;stop-color:#000000;stop-opacity:1"
               d="m 3.96875,0 h 4.829e-4 6.6141001 V 12.7 H 1.5875 V 2.38125 Z"
               id="path849"
               sodipodi:nodetypes="ccccccc" />
          </g>
          <path
             id="path843"
             style="fill:#dcdcdc;fill-opacity:1;stroke:none;stroke-width:0.0529273;stroke-linecap:round;stroke-linejoin:miter;stroke-miterlimit:4;stroke-dasharray:none"
             inkscape:transform-center-x="0.10981891"
             inkscape:transform-center-y="-0.47124644"
             d="m 3.9692329,2.3813476 -2.3817325,7.92e-5 V 2.1168238 L 3.7048637,0 h 0.2646704 z"
             sodipodi:nodetypes="cccccc" />
          <path
             id="path853"
             style="opacity:1;fill:#ebebeb;fill-opacity:1;stroke:none;stroke-width:0.0529273;stroke-linecap:round;stroke-linejoin:miter;stroke-miterlimit:4;stroke-dasharray:none"
             inkscape:transform-center-x="0.2421106"
             inkscape:transform-center-y="-0.2421106"
             d="M 10.585156,12.70052 H 1.5875004 V 11.377549 L 10.585156,2.3813476 Z"
             sodipodi:nodetypes="ccccc" />
          <path
             style="color:#000000;font-style:normal;font-variant:normal;font-weight:normal;font-stretch:normal;font-size:medium;line-height:normal;font-family:sans-serif;font-variant-ligatures:normal;font-variant-position:normal;font-variant-caps:normal;font-variant-numeric:normal;font-variant-alternates:normal;font-variant-east-asian:normal;font-feature-settings:normal;font-variation-settings:normal;text-indent:0;text-align:start;text-decoration:none;text-decoration-line:none;text-decoration-style:solid;text-decoration-color:#000000;letter-spacing:normal;word-spacing:normal;text-transform:none;writing-mode:lr-tb;direction:ltr;text-orientation:mixed;dominant-baseline:auto;baseline-shift:baseline;text-anchor:start;white-space:normal;shape-padding:0;shape-margin:0;inline-size:0;clip-rule:nonzero;display:inline;overflow:visible;visibility:visible;isolation:auto;mix-blend-mode:normal;color-interpolation:sRGB;color-interpolation-filters:linearRGB;solid-color:#000000;solid-opacity:1;vector-effect:none;fill:#c8c8c8;fill-opacity:1;fill-rule:nonzero;stroke:none;stroke-width:1.0002;stroke-linecap:round;stroke-linejoin:miter;stroke-miterlimit:4;stroke-dasharray:none;stroke-dashoffset:0;stroke-opacity:1;color-rendering:auto;image-rendering:auto;shape-rendering:auto;text-rendering:auto;enable-background:accumulate;stop-color:#000000"
             d="M 3.7063267,9.2227376e-4 1.58966,2.1175889 v 0 L 1.5900506,12.700142 H 10.586145 V 9.2227376e-4 Z M 3.8473701,0.2613401 l 0.122164,0.003263 6.3509859,-8.81e-6 V 12.43647 H 1.8537225 l -0.00155,-10.0550432 0.00232,-0.1095277 z"
             id="path851"
             sodipodi:nodetypes="ccccccccccccccc" />
        </g>
      </g>
    </g>
    <g
       id="g1254"
       transform="matrix(0.24584075,0,0,0.24584075,0.35766049,0.98409738)"
       style="stroke-width:4.06767">
      <path
         id="path943"
         style="color:#000000;font-style:normal;font-variant:normal;font-weight:normal;font-stretch:normal;font-size:medium;line-height:normal;font-family:sans-serif;font-variant-ligatures:normal;font-variant-position:normal;font-variant-caps:normal;font-variant-numeric:normal;font-variant-alternates:normal;font-variant-east-asian:normal;font-feature-settings:normal;font-variation-settings:normal;text-indent:0;text-align:start;text-decoration:none;text-decoration-line:none;text-decoration-style:solid;text-decoration-color:#000000;letter-spacing:normal;word-spacing:normal;text-transform:none;writing-mode:lr-tb;direction:ltr;text-orientation:mixed;dominant-baseline:auto;baseline-shift:baseline;text-anchor:start;white-space:normal;shape-padding:0;shape-margin:0;inline-size:0;clip-rule:nonzero;display:inline;overflow:visible;visibility:visible;opacity:1;isolation:auto;mix-blend-mode:normal;color-interpolation:sRGB;color-interpolation-filters:linearRGB;solid-color:#000000;solid-opacity:1;vector-effect:none;fill:url(#linearGradient1127);fill-opacity:1;fill-rule:nonzero;stroke:none;stroke-width:4.06767;stroke-linecap:round;stroke-linejoin:bevel;stroke-miterlimit:4;stroke-dasharray:none;stroke-dashoffset:0;stroke-opacity:1;color-rendering:auto;image-rendering:auto;shape-rendering:auto;text-rendering:auto;enable-background:accumulate;stop-color:#000000;stop-opacity:1"
         d="m 23.693579,9.7054678 -0.3492,2.4252982 c -0.833838,0.195161 -1.61901,0.521662 -2.330752,0.958647 l -1.98672,-1.501277 -2.150988,2.109021 1.511477,2.009282 c -0.426111,0.687972 -0.749991,1.444602 -0.950485,2.248556 l -2.46661,0.412917 0.05114,3.012373 2.389125,0.271831 c 0.198342,0.84868 0.532867,1.646593 0.980962,2.368452 l -1.487199,1.9483 2.096232,2.163285 2.015647,-1.499726 c 0.720315,0.441874 1.515752,0.770368 2.360715,0.964331 l 0.346099,2.455273 3.011074,0.02635 0.353848,-2.526071 c 0.786232,-0.201387 1.526232,-0.522011 2.200579,-0.940043 l 1.986204,1.512647 2.159252,-2.100238 -1.525425,-2.045457 c 0.430334,-0.702849 0.752115,-1.477283 0.947385,-2.299202 l 2.405139,-0.294054 0.08214,-3.011855 -2.501739,-0.397413 C 32.64399,17.175102 32.325178,16.419792 31.903394,15.73279 l 1.476866,-1.918843 -2.087448,-2.171554 -1.994469,1.47182 C 28.60628,12.68381 27.844487,12.356984 27.03474,12.155569 L 26.705169,9.7437076 Z m 1.44329,6.1854662 c 2.214542,0 3.967239,1.753454 3.967239,3.968953 0,2.215496 -1.752697,3.968951 -3.967239,3.968951 -2.214541,0 -3.96724,-1.753455 -3.96724,-3.968951 0,-2.215499 1.752699,-3.968953 3.96724,-3.968953 z" />
      <path
         id="path943-0"
         style="color:#000000;font-style:normal;font-variant:normal;font-weight:normal;font-stretch:normal;font-size:medium;line-height:normal;font-family:sans-serif;font-variant-ligatures:normal;font-variant-position:normal;font-variant-caps:normal;font-variant-numeric:normal;font-variant-alternates:normal;font-variant-east-asian:normal;font-feature-settings:normal;font-variation-settings:normal;text-indent:0;text-align:start;text-decoration:none;text-decoration-line:none;text-decoration-style:solid;text-decoration-color:#000000;letter-spacing:normal;word-spacing:normal;text-transform:none;writing-mode:lr-tb;direction:ltr;text-orientation:mixed;dominant-baseline:auto;baseline-shift:baseline;text-anchor:start;white-space:normal;shape-padding:0;shape-margin:0;inline-size:0;clip-rule:nonzero;display:inline;overflow:visible;visibility:visible;isolation:auto;mix-blend-mode:normal;color-interpolation:sRGB;color-interpolation-filters:linearRGB;solid-color:#000000;solid-opacity:1;vector-effect:none;fill:#c8c8c8;fill-opacity:1;fill-rule:nonzero;stroke:none;stroke-width:4.06765;stroke-linecap:round;stroke-linejoin:bevel;stroke-miterlimit:4;stroke-dasharray:none;stroke-dashoffset:0;stroke-opacity:1;color-rendering:auto;image-rendering:auto;shape-rendering:auto;text-rendering:auto;enable-background:accumulate;stop-color:#000000"
         d="m 9.926819,19.666099 -0.7555095,1.732194 c -0.6615392,-0.02516 -1.3138615,0.0571 -1.9337321,0.236678 L 7.1027021,21.460305 v 3.583761 c 0.7265556,-0.537649 1.6836818,-0.745448 2.6375651,-0.484209 1.6511388,0.452198 2.5999278,2.114236 2.1476718,3.761528 -0.452257,1.64729 -2.1171056,2.593152 -3.7682447,2.140955 C 7.7399447,30.358338 7.399653,30.187962 7.1027021,29.970898 v 5.200197 l 0.9322427,0.264068 0.7792807,-1.806091 c 0.6273146,0.01082 1.2448405,-0.07647 1.8329625,-0.249598 l 1.172022,1.530139 2.038635,-1.120344 -0.719853,-1.832446 c 0.464327,-0.434718 0.862267,-0.944941 1.175639,-1.516187 l 1.853117,0.272333 0.676444,-2.222603 -1.784387,-0.806151 c 0.01639,-0.636336 -0.06709,-1.262902 -0.241329,-1.859835 l 1.492932,-1.125513 -1.11311,-2.040702 -1.787488,0.687296 c -0.428136,-0.461334 -0.929791,-0.860018 -1.492415,-1.175122 l 0.247013,-1.860868 z"
         sodipodi:nodetypes="cccccsssccccccccccccccccccc" />
      <path
         id="path943-0-9"
         style="color:#000000;font-style:normal;font-variant:normal;font-weight:normal;font-stretch:normal;font-size:medium;line-height:normal;font-family:sans-serif;font-variant-ligatures:normal;font-variant-position:normal;font-variant-caps:normal;font-variant-numeric:normal;font-variant-alternates:normal;font-variant-east-asian:normal;font-feature-settings:normal;font-variation-settings:normal;text-indent:0;text-align:start;text-decoration:none;text-decoration-line:none;text-decoration-style:solid;text-decoration-color:#000000;letter-spacing:normal;word-spacing:normal;text-transform:none;writing-mode:lr-tb;direction:ltr;text-orientation:mixed;dominant-baseline:auto;baseline-shift:baseline;text-anchor:start;white-space:normal;shape-padding:0;shape-margin:0;inline-size:0;clip-rule:nonzero;display:inline;overflow:visible;visibility:visible;isolation:auto;mix-blend-mode:normal;color-interpolation:sRGB;color-interpolation-filters:linearRGB;solid-color:#000000;solid-opacity:1;vector-effect:none;fill:#c8c8c8;fill-opacity:1;fill-rule:nonzero;stroke:none;stroke-width:4.06766;stroke-linecap:round;stroke-linejoin:bevel;stroke-miterlimit:4;stroke-dasharray:none;stroke-dashoffset:0;stroke-opacity:1;color-rendering:auto;image-rendering:auto;shape-rendering:auto;text-rendering:auto;enable-background:accumulate;stop-color:#000000"
         d="m 33.861188,27.938155 -0.755444,1.731981 c -0.66154,-0.02516 -1.313606,0.05728 -1.933476,0.236857 l -1.174817,-1.521924 -2.034275,1.128902 0.71678,1.802599 c -0.458142,0.42452 -0.854077,0.920962 -1.167677,1.477787 l -1.923367,-0.196656 -0.576797,2.250237 1.725817,0.689961 c -0.02536,0.67152 0.06118,1.333101 0.247914,1.961326 l -1.506552,1.144942 1.121329,2.03651 1.80899,-0.70351 c 0.446857,0.475633 0.97287,0.882304 1.563272,1.199056 l -0.243155,1.896244 2.239646,0.634437 0.779481,-1.805958 c 0.627314,0.01081 1.2445,-0.07648 1.832622,-0.249605 l 1.17211,1.530273 2.038644,-1.120685 -0.719795,-1.832345 c 0.464328,-0.434718 0.862331,-0.944828 1.175704,-1.516076 l 1.853266,0.272507 0.676063,-2.222637 -1.784145,-0.806331 c 0.01639,-0.636335 -0.06713,-1.263031 -0.241369,-1.859964 l 1.492834,-1.125151 -1.113091,-2.040864 -1.787502,0.687084 c -0.428136,-0.461334 -0.929405,-0.859894 -1.492029,-1.174998 l 0.246618,-1.860592 z m -0.186558,4.893799 c 1.651138,0.452198 2.59999,2.113837 2.147734,3.761129 -0.452256,1.647291 -2.116986,2.593148 -3.768125,2.14095 -1.651138,-0.452197 -2.599994,-2.113838 -2.147737,-3.761129 0.452257,-1.647292 2.116989,-2.593147 3.768128,-2.14095 z" />
    </g>
  </g>
</svg>
