<?xml version="1.0" encoding="UTF-8" standalone="no"?>
<svg
   xmlns:dc="http://purl.org/dc/elements/1.1/"
   xmlns:cc="http://creativecommons.org/ns#"
   xmlns:rdf="http://www.w3.org/1999/02/22-rdf-syntax-ns#"
   xmlns:svg="http://www.w3.org/2000/svg"
   xmlns="http://www.w3.org/2000/svg"
   xmlns:xlink="http://www.w3.org/1999/xlink"
   xmlns:sodipodi="http://sodipodi.sourceforge.net/DTD/sodipodi-0.dtd"
   xmlns:inkscape="http://www.inkscape.org/namespaces/inkscape"
   width="48"
   height="48"
   viewBox="0 0 12.7 12.7"
   version="1.1"
   id="svg8"
   inkscape:version="1.0.2 (e86c870879, 2021-01-15)"
   sodipodi:docname="application-pdf.svg">
  <defs
     id="defs2">
    <linearGradient
       inkscape:collect="always"
       id="linearGradient919">
      <stop
         style="stop-color:#f24f47;stop-opacity:1"
         offset="0"
         id="stop915" />
      <stop
         style="stop-color:#dd2e25;stop-opacity:1"
         offset="1"
         id="stop917" />
    </linearGradient>
    <linearGradient
       inkscape:collect="always"
       xlink:href="#linearGradient919"
       id="linearGradient921"
       x1="4.3650241"
       y1="10.979763"
       x2="8.8635273"
       y2="10.979763"
       gradientUnits="userSpaceOnUse"
       gradientTransform="translate(-0.00113736,-4.2278593e-4)" />
  </defs>
  <sodipodi:namedview
     id="base"
     pagecolor="#ffffff"
     bordercolor="#666666"
     borderopacity="1.0"
     inkscape:pageopacity="0.0"
     inkscape:pageshadow="2"
     inkscape:zoom="15.979167"
     inkscape:cx="24"
     inkscape:cy="24"
     inkscape:document-units="mm"
     inkscape:current-layer="layer1"
     inkscape:document-rotation="0"
     showgrid="true"
     units="px"
     inkscape:window-width="1680"
     inkscape:window-height="982"
     inkscape:window-x="0"
     inkscape:window-y="37"
     inkscape:window-maximized="1">
    <inkscape:grid
       type="xygrid"
       id="grid833"
       empspacing="1" />
  </sodipodi:namedview>
  <metadata
     id="metadata5">
    <rdf:RDF>
      <cc:Work
         rdf:about="">
        <dc:format>image/svg+xml</dc:format>
        <dc:type
           rdf:resource="http://purl.org/dc/dcmitype/StillImage" />
        <dc:title />
      </cc:Work>
    </rdf:RDF>
  </metadata>
  <g
     inkscape:label="Layer 1"
     inkscape:groupmode="layer"
     id="layer1">
    <g
       id="g913"
       transform="matrix(0.99974332,0,0,0.99992575,4.7540213e-4,0)"
       style="stroke-width:1.00017">
      <g
         id="g883"
         transform="matrix(0.99992768,0,0,1,0.26469772,0)"
         style="stroke-width:1.0002">
        <g
           id="g875"
           style="stroke-width:1.0002">
          <g
             id="rect837"
             style="opacity:1;stroke-width:1.0002">
            <path
               style="color:#000000;font-style:normal;font-variant:normal;font-weight:normal;font-stretch:normal;font-size:medium;line-height:normal;font-family:sans-serif;font-variant-ligatures:normal;font-variant-position:normal;font-variant-caps:normal;font-variant-numeric:normal;font-variant-alternates:normal;font-variant-east-asian:normal;font-feature-settings:normal;font-variation-settings:normal;text-indent:0;text-align:start;text-decoration:none;text-decoration-line:none;text-decoration-style:solid;text-decoration-color:#000000;letter-spacing:normal;word-spacing:normal;text-transform:none;writing-mode:lr-tb;direction:ltr;text-orientation:mixed;dominant-baseline:auto;baseline-shift:baseline;text-anchor:start;white-space:normal;shape-padding:0;shape-margin:0;inline-size:0;clip-rule:nonzero;display:inline;overflow:visible;visibility:visible;isolation:auto;mix-blend-mode:normal;color-interpolation:sRGB;color-interpolation-filters:linearRGB;solid-color:#000000;solid-opacity:1;vector-effect:none;fill:#f0f0f0;fill-opacity:1;fill-rule:nonzero;stroke:none;stroke-width:0.264634;stroke-linecap:round;stroke-linejoin:miter;stroke-miterlimit:4;stroke-dasharray:none;stroke-dashoffset:0;stroke-opacity:1;color-rendering:auto;image-rendering:auto;shape-rendering:auto;text-rendering:auto;enable-background:accumulate;stop-color:#000000;stop-opacity:1"
               d="m 3.96875,0 h 4.829e-4 6.6141001 V 12.7 H 1.5875 V 2.38125 Z"
               id="path849"
               sodipodi:nodetypes="ccccccc" />
          </g>
          <path
             id="path843"
             style="fill:#dcdcdc;fill-opacity:1;stroke:none;stroke-width:0.0529273;stroke-linecap:round;stroke-linejoin:miter;stroke-miterlimit:4;stroke-dasharray:none"
             inkscape:transform-center-x="0.10981891"
             inkscape:transform-center-y="-0.47124644"
             d="m 3.9692329,2.3813476 -2.3817325,7.92e-5 V 2.1168238 L 3.7048637,0 h 0.2646704 z"
             sodipodi:nodetypes="cccccc" />
          <path
             id="path853"
             style="opacity:1;fill:#ebebeb;fill-opacity:1;stroke:none;stroke-width:0.0529273;stroke-linecap:round;stroke-linejoin:miter;stroke-miterlimit:4;stroke-dasharray:none"
             inkscape:transform-center-x="0.2421106"
             inkscape:transform-center-y="-0.2421106"
             d="M 10.585156,12.70052 H 1.5875004 V 11.377549 L 10.585156,2.3813476 Z"
             sodipodi:nodetypes="ccccc" />
          <path
             style="color:#000000;font-style:normal;font-variant:normal;font-weight:normal;font-stretch:normal;font-size:medium;line-height:normal;font-family:sans-serif;font-variant-ligatures:normal;font-variant-position:normal;font-variant-caps:normal;font-variant-numeric:normal;font-variant-alternates:normal;font-variant-east-asian:normal;font-feature-settings:normal;font-variation-settings:normal;text-indent:0;text-align:start;text-decoration:none;text-decoration-line:none;text-decoration-style:solid;text-decoration-color:#000000;letter-spacing:normal;word-spacing:normal;text-transform:none;writing-mode:lr-tb;direction:ltr;text-orientation:mixed;dominant-baseline:auto;baseline-shift:baseline;text-anchor:start;white-space:normal;shape-padding:0;shape-margin:0;inline-size:0;clip-rule:nonzero;display:inline;overflow:visible;visibility:visible;isolation:auto;mix-blend-mode:normal;color-interpolation:sRGB;color-interpolation-filters:linearRGB;solid-color:#000000;solid-opacity:1;vector-effect:none;fill:#c8c8c8;fill-opacity:1;fill-rule:nonzero;stroke:none;stroke-width:1.0002;stroke-linecap:round;stroke-linejoin:miter;stroke-miterlimit:4;stroke-dasharray:none;stroke-dashoffset:0;stroke-opacity:1;color-rendering:auto;image-rendering:auto;shape-rendering:auto;text-rendering:auto;enable-background:accumulate;stop-color:#000000"
             d="M 3.7063267,9.2227376e-4 1.58966,2.1175889 v 0 L 1.5900506,12.700142 H 10.586145 V 9.2227376e-4 Z M 3.8473701,0.2613401 l 0.122164,0.003263 6.3509859,-8.81e-6 V 12.43647 H 1.8537225 l -0.00155,-10.0550432 0.00232,-0.1095277 z"
             id="path851"
             sodipodi:nodetypes="ccccccccccccccc" />
        </g>
      </g>
      <g
         id="rect862"
         style="opacity:1;stroke-width:1.00017"
         transform="translate(-0.13024311,0.39820908)">
        <path
           style="color:#000000;font-style:normal;font-variant:normal;font-weight:normal;font-stretch:normal;font-size:medium;line-height:normal;font-family:sans-serif;font-variant-ligatures:normal;font-variant-position:normal;font-variant-caps:normal;font-variant-numeric:normal;font-variant-alternates:normal;font-variant-east-asian:normal;font-feature-settings:normal;font-variation-settings:normal;text-indent:0;text-align:start;text-decoration:none;text-decoration-line:none;text-decoration-style:solid;text-decoration-color:#000000;letter-spacing:normal;word-spacing:normal;text-transform:none;writing-mode:lr-tb;direction:ltr;text-orientation:mixed;dominant-baseline:auto;baseline-shift:baseline;text-anchor:start;white-space:normal;shape-padding:0;shape-margin:0;inline-size:0;clip-rule:nonzero;display:inline;overflow:visible;visibility:visible;isolation:auto;mix-blend-mode:normal;color-interpolation:sRGB;color-interpolation-filters:linearRGB;solid-color:#000000;solid-opacity:1;vector-effect:none;fill:url(#linearGradient921);fill-opacity:1;fill-rule:nonzero;stroke:none;stroke-width:0.264626;stroke-linecap:round;stroke-linejoin:miter;stroke-miterlimit:4;stroke-dasharray:none;stroke-dashoffset:0;stroke-opacity:1;color-rendering:auto;image-rendering:auto;shape-rendering:auto;text-rendering:auto;enable-background:accumulate;stop-color:#000000;stop-opacity:1"
           d="m 1.9823266,9.9209637 h 8.9970054 l -1.3e-4,2.3800023 -8.9968754,0.0013 z"
           id="path867"
           sodipodi:nodetypes="ccccc" />
        <path
           style="color:#000000;font-style:normal;font-variant:normal;font-weight:normal;font-stretch:normal;font-size:medium;line-height:normal;font-family:sans-serif;font-variant-ligatures:normal;font-variant-position:normal;font-variant-caps:normal;font-variant-numeric:normal;font-variant-alternates:normal;font-variant-east-asian:normal;font-feature-settings:normal;font-variation-settings:normal;text-indent:0;text-align:start;text-decoration:none;text-decoration-line:none;text-decoration-style:solid;text-decoration-color:#000000;letter-spacing:normal;word-spacing:normal;text-transform:none;writing-mode:lr-tb;direction:ltr;text-orientation:mixed;dominant-baseline:auto;baseline-shift:baseline;text-anchor:start;white-space:normal;shape-padding:0;shape-margin:0;inline-size:0;clip-rule:nonzero;display:inline;overflow:visible;visibility:visible;isolation:auto;mix-blend-mode:normal;color-interpolation:sRGB;color-interpolation-filters:linearRGB;solid-color:#000000;solid-opacity:1;vector-effect:none;fill:#dd2e25;fill-opacity:1;fill-rule:nonzero;stroke:none;stroke-width:1.00017;stroke-linecap:round;stroke-linejoin:miter;stroke-miterlimit:4;stroke-dasharray:none;stroke-dashoffset:0;stroke-opacity:1;color-rendering:auto;image-rendering:auto;shape-rendering:auto;text-rendering:auto;enable-background:accumulate;stop-color:#000000;stop-opacity:1"
           d="m 1.984375,9.921875 v 0.132813 2.248046 h 8.996094 V 9.921875 Z m 0.2636719,-9.113e-4 h 8.4666671 l 1.3e-4,2.1180983 H 2.2480469 Z"
           id="path869"
           sodipodi:nodetypes="ccccccccccc" />
      </g>
    </g>
    <g
       aria-label="P D F"
       transform="scale(1.031307,0.96964338)"
       id="text2959"
       style="font-style:normal;font-weight:normal;font-size:7.27808px;line-height:1.25;font-family:sans-serif;fill:#000000;fill-opacity:1;stroke:none;stroke-width:0.264583">
      <path
         d="m 4.3556734,12.459565 h 0.314777 V 12.088383 H 4.774163 c 0.3420698,0 0.5676903,-0.18741 0.5676903,-0.471256 0,-0.26383 -0.1928691,-0.420309 -0.5149242,-0.420309 H 4.3556734 Z m 0.4457824,-0.98618 c 0.1273664,0 0.2128839,0.06914 0.2128839,0.174674 0,0.101893 -0.070961,0.163757 -0.1837715,0.163757 H 4.6704504 v -0.338431 z"
         style="font-style:normal;font-variant:normal;font-weight:800;font-stretch:normal;font-size:1.81952px;font-family:Cantarell;-inkscape-font-specification:'Cantarell Ultra-Bold';fill:#ffffff;stroke-width:0.264583"
         id="path878" />
      <path
         d="m 5.7858149,12.459565 h 0.4494214 c 0.4330458,0 0.7187104,-0.260191 0.7187104,-0.656847 0,-0.380279 -0.2583718,-0.6059 -0.6950566,-0.6059 H 5.7858149 Z m 0.3093184,-0.271108 v -0.72053 h 0.1455616 c 0.2419961,0 0.3857382,0.138283 0.3857382,0.371182 0,0.22562 -0.1255469,0.349348 -0.3548064,0.349348 z"
         style="font-style:normal;font-variant:normal;font-weight:800;font-stretch:normal;font-size:1.81952px;font-family:Cantarell;-inkscape-font-specification:'Cantarell Ultra-Bold';fill:#ffffff;stroke-width:0.264583"
         id="path880" />
      <path
         d="M 7.4124643,12.459565 H 7.7326998 V 11.991949 H 8.2476239 V 11.715381 H 7.7326998 V 11.473385 H 8.3131267 V 11.196818 H 7.4124643 Z"
         style="font-style:normal;font-variant:normal;font-weight:800;font-stretch:normal;font-size:1.81952px;font-family:Cantarell;-inkscape-font-specification:'Cantarell Ultra-Bold';fill:#ffffff;stroke-width:0.264583"
         id="path882" />
    </g>
    <path
       d="M 8.9768071,6.7853401 C 8.8006811,6.5948627 8.4631081,6.5069495 7.978763,6.5069495 c -0.2641877,0 -0.5430531,0.029304 -0.8072407,0.073261 C 6.9953972,6.4190367 6.8486259,6.2285593 6.7018548,6.0380811 6.599115,5.8915598 6.496375,5.7450386 6.4083124,5.5838648 6.5550835,5.1736047 6.6431461,4.7340407 6.6725007,4.2944762 c 0,-0.3956077 -0.1614484,-0.8205195 -0.6017619,-0.8205195 -0.1467711,0 -0.2935421,0.087913 -0.3669273,0.2197821 C 5.513009,4.0160857 5.5863946,4.6754322 5.8946139,5.3640828 5.7918747,5.6717775 5.674457,5.9794724 5.5423631,6.3164717 5.4249466,6.6095151 5.2928523,6.8879054 5.1314042,7.1516439 4.6764136,7.3274695 3.7224019,7.7670338 3.634339,8.2505543 c -0.029354,0.1465216 0.014678,0.2930428 0.1320944,0.380956 0.1027395,0.087913 0.2495106,0.1465216 0.3962818,0.131869 0.5724074,0 1.1448143,-0.7912154 1.5410963,-1.4798665 C 5.9239677,7.2102518 6.144125,7.1369919 6.3789588,7.0783832 6.6284697,7.0197752 6.8633033,6.9611663 7.0834596,6.9172095 c 0.6164387,0.5274772 1.1594915,0.6153902 1.4236795,0.6153902 0.366928,0 0.513699,-0.1611738 0.55773,-0.293043 0.05871,-0.1611735 0.02936,-0.3369993 -0.08806,-0.4542166 z m -0.396282,0.2783911 c -0.01467,0.1025647 -0.132094,0.1758255 -0.278866,0.1758255 -0.04403,0 -0.08806,0 -0.1320932,-0.014654 -0.2935422,-0.073261 -0.5724073,-0.2197821 -0.8072411,-0.41026 0.1908028,-0.029304 0.3962818,-0.043956 0.5870841,-0.043956 0.1320944,0 0.2641882,0.014654 0.3962822,0.029304 0.132094,0.029305 0.278865,0.087913 0.234834,0.2637386 z M 5.9533224,3.8256077 c 0.029354,-0.043956 0.073386,-0.073261 0.1320943,-0.087913 0.146771,0 0.1761248,0.1611735 0.1761248,0.3076954 C 6.2468667,4.3823892 6.1881571,4.7047362 6.0854167,5.0270833 5.8359052,4.3970414 5.8652593,3.9721294 5.9533224,3.8256077 Z m 0.821918,2.8132114 C 6.6137915,6.6681243 6.452344,6.71208 6.2908957,6.7560359 6.1734788,6.7853402 6.0560619,6.8292967 5.9239677,6.8586011 5.9826766,6.7267317 6.0413855,6.5948627 6.1000937,6.4776454 6.1734784,6.3164717 6.2321877,6.1552986 6.2908957,5.9941248 6.3496037,6.0820375 6.3936355,6.1552986 6.452344,6.2285593 6.5550835,6.3750807 6.6725007,6.5069495 6.7752404,6.6388191 Z M 4.9993101,7.4886432 C 4.6323829,8.0747286 4.2654547,8.4556844 4.0599753,8.4556844 c -0.029354,0 -0.073386,-0.014652 -0.088062,-0.029304 -0.044032,-0.029306 -0.05871,-0.087913 -0.044032,-0.1318696 0.029355,-0.2197826 0.4549904,-0.5274774 1.0714288,-0.8058676 z"
       fill="#ffffff"
       id="path4"
       style="fill:#fd352b;fill-opacity:1;stroke-width:0.264583" />
  </g>
</svg>
