<?xml version="1.0" encoding="UTF-8" standalone="no"?>
<svg
   xmlns:dc="http://purl.org/dc/elements/1.1/"
   xmlns:cc="http://creativecommons.org/ns#"
   xmlns:rdf="http://www.w3.org/1999/02/22-rdf-syntax-ns#"
   xmlns:svg="http://www.w3.org/2000/svg"
   xmlns="http://www.w3.org/2000/svg"
   xmlns:xlink="http://www.w3.org/1999/xlink"
   xmlns:sodipodi="http://sodipodi.sourceforge.net/DTD/sodipodi-0.dtd"
   xmlns:inkscape="http://www.inkscape.org/namespaces/inkscape"
   width="48"
   height="48"
   viewBox="0 0 12.7 12.7"
   version="1.1"
   id="svg8"
   inkscape:version="1.0.2 (e86c870879, 2021-01-15)"
   sodipodi:docname="text-x-csharp.svg">
  <defs
     id="defs2">
    <linearGradient
       inkscape:collect="always"
       id="linearGradient919">
      <stop
         style="stop-color:#189f20;stop-opacity:1"
         offset="0"
         id="stop915" />
      <stop
         style="stop-color:#009404;stop-opacity:1"
         offset="1"
         id="stop917" />
    </linearGradient>
    <linearGradient
       inkscape:collect="always"
       xlink:href="#linearGradient919"
       id="linearGradient921"
       x1="4.3650241"
       y1="10.979763"
       x2="8.8635273"
       y2="10.979763"
       gradientUnits="userSpaceOnUse"
       gradientTransform="translate(-0.00113736,-4.2278593e-4)" />
  </defs>
  <sodipodi:namedview
     id="base"
     pagecolor="#ffffff"
     bordercolor="#666666"
     borderopacity="1.0"
     inkscape:pageopacity="0.0"
     inkscape:pageshadow="2"
     inkscape:zoom="15.979167"
     inkscape:cx="24"
     inkscape:cy="24"
     inkscape:document-units="mm"
     inkscape:current-layer="layer1"
     inkscape:document-rotation="0"
     showgrid="true"
     units="px"
     inkscape:window-width="1680"
     inkscape:window-height="982"
     inkscape:window-x="0"
     inkscape:window-y="37"
     inkscape:window-maximized="1">
    <inkscape:grid
       type="xygrid"
       id="grid833"
       empspacing="1" />
  </sodipodi:namedview>
  <metadata
     id="metadata5">
    <rdf:RDF>
      <cc:Work
         rdf:about="">
        <dc:format>image/svg+xml</dc:format>
        <dc:type
           rdf:resource="http://purl.org/dc/dcmitype/StillImage" />
        <dc:title />
      </cc:Work>
    </rdf:RDF>
  </metadata>
  <g
     inkscape:label="Layer 1"
     inkscape:groupmode="layer"
     id="layer1">
    <g
       id="g913"
       transform="matrix(0.99974332,0,0,0.99992575,4.7540213e-4,0)"
       style="stroke-width:1.00017">
      <g
         id="g883"
         transform="matrix(0.99992768,0,0,1,0.26469772,0)"
         style="stroke-width:1.0002">
        <g
           id="g875"
           style="stroke-width:1.0002">
          <g
             id="rect837"
             style="opacity:1;stroke-width:1.0002">
            <path
               style="color:#000000;font-style:normal;font-variant:normal;font-weight:normal;font-stretch:normal;font-size:medium;line-height:normal;font-family:sans-serif;font-variant-ligatures:normal;font-variant-position:normal;font-variant-caps:normal;font-variant-numeric:normal;font-variant-alternates:normal;font-variant-east-asian:normal;font-feature-settings:normal;font-variation-settings:normal;text-indent:0;text-align:start;text-decoration:none;text-decoration-line:none;text-decoration-style:solid;text-decoration-color:#000000;letter-spacing:normal;word-spacing:normal;text-transform:none;writing-mode:lr-tb;direction:ltr;text-orientation:mixed;dominant-baseline:auto;baseline-shift:baseline;text-anchor:start;white-space:normal;shape-padding:0;shape-margin:0;inline-size:0;clip-rule:nonzero;display:inline;overflow:visible;visibility:visible;isolation:auto;mix-blend-mode:normal;color-interpolation:sRGB;color-interpolation-filters:linearRGB;solid-color:#000000;solid-opacity:1;vector-effect:none;fill:#f0f0f0;fill-opacity:1;fill-rule:nonzero;stroke:none;stroke-width:0.264634;stroke-linecap:round;stroke-linejoin:miter;stroke-miterlimit:4;stroke-dasharray:none;stroke-dashoffset:0;stroke-opacity:1;color-rendering:auto;image-rendering:auto;shape-rendering:auto;text-rendering:auto;enable-background:accumulate;stop-color:#000000;stop-opacity:1"
               d="m 3.96875,0 h 4.829e-4 6.6141001 V 12.7 H 1.5875 V 2.38125 Z"
               id="path849"
               sodipodi:nodetypes="ccccccc" />
          </g>
          <path
             id="path843"
             style="fill:#dcdcdc;fill-opacity:1;stroke:none;stroke-width:0.0529273;stroke-linecap:round;stroke-linejoin:miter;stroke-miterlimit:4;stroke-dasharray:none"
             inkscape:transform-center-x="0.10981891"
             inkscape:transform-center-y="-0.47124644"
             d="m 3.9692329,2.3813476 -2.3817325,7.92e-5 V 2.1168238 L 3.7048637,0 h 0.2646704 z"
             sodipodi:nodetypes="cccccc" />
          <path
             id="path853"
             style="opacity:1;fill:#ebebeb;fill-opacity:1;stroke:none;stroke-width:0.0529273;stroke-linecap:round;stroke-linejoin:miter;stroke-miterlimit:4;stroke-dasharray:none"
             inkscape:transform-center-x="0.2421106"
             inkscape:transform-center-y="-0.2421106"
             d="M 10.585156,12.70052 H 1.5875004 V 11.377549 L 10.585156,2.3813476 Z"
             sodipodi:nodetypes="ccccc" />
          <path
             style="color:#000000;font-style:normal;font-variant:normal;font-weight:normal;font-stretch:normal;font-size:medium;line-height:normal;font-family:sans-serif;font-variant-ligatures:normal;font-variant-position:normal;font-variant-caps:normal;font-variant-numeric:normal;font-variant-alternates:normal;font-variant-east-asian:normal;font-feature-settings:normal;font-variation-settings:normal;text-indent:0;text-align:start;text-decoration:none;text-decoration-line:none;text-decoration-style:solid;text-decoration-color:#000000;letter-spacing:normal;word-spacing:normal;text-transform:none;writing-mode:lr-tb;direction:ltr;text-orientation:mixed;dominant-baseline:auto;baseline-shift:baseline;text-anchor:start;white-space:normal;shape-padding:0;shape-margin:0;inline-size:0;clip-rule:nonzero;display:inline;overflow:visible;visibility:visible;isolation:auto;mix-blend-mode:normal;color-interpolation:sRGB;color-interpolation-filters:linearRGB;solid-color:#000000;solid-opacity:1;vector-effect:none;fill:#c8c8c8;fill-opacity:1;fill-rule:nonzero;stroke:none;stroke-width:1.0002;stroke-linecap:round;stroke-linejoin:miter;stroke-miterlimit:4;stroke-dasharray:none;stroke-dashoffset:0;stroke-opacity:1;color-rendering:auto;image-rendering:auto;shape-rendering:auto;text-rendering:auto;enable-background:accumulate;stop-color:#000000"
             d="M 3.7063267,9.2227376e-4 1.58966,2.1175889 v 0 L 1.5900506,12.700142 H 10.586145 V 9.2227376e-4 Z M 3.8473701,0.2613401 l 0.122164,0.003263 6.3509859,-8.81e-6 V 12.43647 H 1.8537225 l -0.00155,-10.0550432 0.00232,-0.1095277 z"
             id="path851"
             sodipodi:nodetypes="ccccccccccccccc" />
        </g>
      </g>
      <g
         id="rect862"
         style="opacity:1;stroke-width:1.00017"
         transform="translate(-0.13024311,0.39820908)">
        <path
           style="color:#000000;font-style:normal;font-variant:normal;font-weight:normal;font-stretch:normal;font-size:medium;line-height:normal;font-family:sans-serif;font-variant-ligatures:normal;font-variant-position:normal;font-variant-caps:normal;font-variant-numeric:normal;font-variant-alternates:normal;font-variant-east-asian:normal;font-feature-settings:normal;font-variation-settings:normal;text-indent:0;text-align:start;text-decoration:none;text-decoration-line:none;text-decoration-style:solid;text-decoration-color:#000000;letter-spacing:normal;word-spacing:normal;text-transform:none;writing-mode:lr-tb;direction:ltr;text-orientation:mixed;dominant-baseline:auto;baseline-shift:baseline;text-anchor:start;white-space:normal;shape-padding:0;shape-margin:0;inline-size:0;clip-rule:nonzero;display:inline;overflow:visible;visibility:visible;isolation:auto;mix-blend-mode:normal;color-interpolation:sRGB;color-interpolation-filters:linearRGB;solid-color:#000000;solid-opacity:1;vector-effect:none;fill:url(#linearGradient921);fill-opacity:1;fill-rule:nonzero;stroke:none;stroke-width:0.264626;stroke-linecap:round;stroke-linejoin:miter;stroke-miterlimit:4;stroke-dasharray:none;stroke-dashoffset:0;stroke-opacity:1;color-rendering:auto;image-rendering:auto;shape-rendering:auto;text-rendering:auto;enable-background:accumulate;stop-color:#000000;stop-opacity:1"
           d="m 1.9823266,9.9209637 h 8.9970054 l -1.3e-4,2.3800023 -8.9968754,0.0013 z"
           id="path867"
           sodipodi:nodetypes="ccccc" />
        <path
           style="color:#000000;font-style:normal;font-variant:normal;font-weight:normal;font-stretch:normal;font-size:medium;line-height:normal;font-family:sans-serif;font-variant-ligatures:normal;font-variant-position:normal;font-variant-caps:normal;font-variant-numeric:normal;font-variant-alternates:normal;font-variant-east-asian:normal;font-feature-settings:normal;font-variation-settings:normal;text-indent:0;text-align:start;text-decoration:none;text-decoration-line:none;text-decoration-style:solid;text-decoration-color:#000000;letter-spacing:normal;word-spacing:normal;text-transform:none;writing-mode:lr-tb;direction:ltr;text-orientation:mixed;dominant-baseline:auto;baseline-shift:baseline;text-anchor:start;white-space:normal;shape-padding:0;shape-margin:0;inline-size:0;clip-rule:nonzero;display:inline;overflow:visible;visibility:visible;isolation:auto;mix-blend-mode:normal;color-interpolation:sRGB;color-interpolation-filters:linearRGB;solid-color:#000000;solid-opacity:1;vector-effect:none;fill:#009404;fill-opacity:1;fill-rule:nonzero;stroke:none;stroke-width:1.00017;stroke-linecap:round;stroke-linejoin:miter;stroke-miterlimit:4;stroke-dasharray:none;stroke-dashoffset:0;stroke-opacity:1;color-rendering:auto;image-rendering:auto;shape-rendering:auto;text-rendering:auto;enable-background:accumulate;stop-color:#000000;stop-opacity:1"
           d="m 1.984375,9.921875 v 0.132813 2.248046 h 8.996094 V 9.921875 Z m 0.2636719,-9.113e-4 h 8.4666671 l 1.3e-4,2.1180983 H 2.2480469 Z"
           id="path869"
           sodipodi:nodetypes="ccccccccccc" />
      </g>
    </g>
    <g
       aria-label="C  S H A R P"
       transform="scale(1.031307,0.96964338)"
       id="text2959"
       style="font-style:normal;font-weight:normal;font-size:5.25937px;line-height:1.25;font-family:sans-serif;fill:#000000;fill-opacity:1;stroke:none;stroke-width:0.264583">
      <path
         d="m 3.418655,12.266379 c 0.099928,0 0.213004,-0.0263 0.2826905,-0.06443 l -0.049964,-0.164355 c -0.052594,0.01841 -0.1196504,0.02893 -0.1775034,0.02893 -0.1840776,0 -0.2892648,-0.107817 -0.2892648,-0.28532 0,-0.166985 0.093354,-0.25245 0.2603384,-0.25245 0.072316,0 0.1551511,0.01315 0.205115,0.03419 l 0.063112,-0.178818 c -0.088094,-0.03813 -0.1735589,-0.05654 -0.2655977,-0.05654 -0.2945241,0 -0.4996392,0.189337 -0.4996392,0.475972 0,0.277431 0.1919667,0.462823 0.4707128,0.462823 z"
         style="font-style:normal;font-variant:normal;font-weight:800;font-stretch:normal;font-size:1.31484px;font-family:Cantarell;-inkscape-font-specification:'Cantarell Ultra-Bold';fill:#ffffff;stroke-width:0.264583"
         id="path892" />
      <path
         d="m 4.5165442,12.266379 c 0.2419305,0 0.3760442,-0.115705 0.3760442,-0.298468 0,-0.335284 -0.4509901,-0.234042 -0.4509901,-0.36947 0,-0.04602 0.051279,-0.071 0.1406879,-0.071 0.073631,0 0.1551511,0.01315 0.2195782,0.0355 l 0.063112,-0.181448 c -0.076261,-0.03419 -0.1775034,-0.05391 -0.2708571,-0.05391 -0.2314118,0 -0.3891926,0.120965 -0.3891926,0.305043 0,0.310302 0.4483604,0.222208 0.4483604,0.362895 0,0.04208 -0.039445,0.06574 -0.1275395,0.06574 -0.082835,0 -0.1827627,-0.01578 -0.2734867,-0.05391 l -0.063112,0.186707 c 0.093354,0.04208 0.2143189,0.07232 0.3273952,0.07232 z"
         style="font-style:normal;font-variant:normal;font-weight:800;font-stretch:normal;font-size:1.31484px;font-family:Cantarell;-inkscape-font-specification:'Cantarell Ultra-Bold';fill:#ffffff;stroke-width:0.264583"
         id="path894" />
      <path
         d="m 5.2226124,12.253231 h 0.2314119 v -0.360266 h 0.3536919 v 0.360266 H 6.039128 V 11.340732 H 5.8077162 V 11.68785 H 5.4540243 V 11.340732 H 5.2226124 Z"
         style="font-style:normal;font-variant:normal;font-weight:800;font-stretch:normal;font-size:1.31484px;font-family:Cantarell;-inkscape-font-specification:'Cantarell Ultra-Bold';fill:#ffffff;stroke-width:0.264583"
         id="path896" />
      <path
         d="m 6.3389103,12.253231 h 0.2432454 l 0.055223,-0.188022 h 0.3181912 l 0.059168,0.188022 H 7.2658725 L 6.9542554,11.340732 H 6.6636758 Z m 0.3602662,-0.393137 0.094668,-0.318191 0.098613,0.318191 z"
         style="font-style:normal;font-variant:normal;font-weight:800;font-stretch:normal;font-size:1.31484px;font-family:Cantarell;-inkscape-font-specification:'Cantarell Ultra-Bold';fill:#ffffff;stroke-width:0.264583"
         id="path898" />
      <path
         d="m 7.5669682,12.253231 h 0.2274674 v -0.311617 h 0.1012426 l 0.1775034,0.311617 H 8.3466683 L 8.119201,11.89428 c 0.1025575,-0.05522 0.164355,-0.153837 0.164355,-0.277431 0,-0.176189 -0.1262246,-0.276117 -0.3405435,-0.276117 H 7.5669682 Z m 0.3444881,-0.713958 c 0.085465,0 0.1354285,0.04076 0.1354285,0.109132 0,0.0618 -0.036816,0.09993 -0.1038723,0.09993 H 7.7944356 v -0.20906 z"
         style="font-style:normal;font-variant:normal;font-weight:800;font-stretch:normal;font-size:1.31484px;font-family:Cantarell;-inkscape-font-specification:'Cantarell Ultra-Bold';fill:#ffffff;stroke-width:0.264583"
         id="path900" />
      <path
         d="m 8.6490791,12.253231 h 0.2274673 v -0.268227 h 0.074946 c 0.2471899,0 0.4102301,-0.135429 0.4102301,-0.340544 0,-0.190652 -0.1393731,-0.303728 -0.3720997,-0.303728 H 8.6490791 Z m 0.3221358,-0.712643 c 0.092039,0 0.1538363,0.04996 0.1538363,0.126224 0,0.07363 -0.051279,0.118336 -0.1327988,0.118336 h -0.115706 v -0.24456 z"
         style="font-style:normal;font-variant:normal;font-weight:800;font-stretch:normal;font-size:1.31484px;font-family:Cantarell;-inkscape-font-specification:'Cantarell Ultra-Bold';fill:#ffffff;stroke-width:0.264583"
         id="path902" />
    </g>
    <g
       aria-label="C#"
       id="text1071"
       style="font-style:normal;font-weight:normal;font-size:10.5834px;line-height:1.25;font-family:sans-serif;fill:#189f20;fill-opacity:1;stroke:none;stroke-width:1.08349"
       transform="matrix(0.24419637,0,0,0.24419813,-1.4712953,-0.29797318)">
      <path
         d="M 31.055161,20.323459 V 22.5064 q -1.045351,-0.973614 -2.234182,-1.455294 -1.178584,-0.481682 -2.510895,-0.481682 -2.623628,0 -4.017429,1.609021 -1.393803,1.598773 -1.393803,4.632343 0,3.023323 1.393803,4.632346 1.393801,1.598772 4.017429,1.598772 1.332311,0 2.510895,-0.481683 1.188831,-0.48168 2.234182,-1.455294 v 2.162446 q -1.086344,0.737896 -2.305922,1.106843 -1.209328,0.368947 -2.562138,0.368947 -3.474257,0 -5.472722,-2.12145 -1.998468,-2.131697 -1.998468,-5.810927 0,-3.689477 1.998468,-5.810927 1.998465,-2.131696 5.472722,-2.131696 1.373306,0 2.582636,0.368947 1.219576,0.3587 2.285424,1.086347 z"
         style="fill:#189f20;fill-opacity:1;stroke-width:1.08349"
         id="path1102" />
      <path
         d="m 41.195352,25.301353 h -2.618836 l -0.755953,3.005811 h 2.636834 z m -1.349916,-5.120677 -0.93594,3.734764 h 2.627833 l 0.94494,-3.734764 h 1.439909 l -0.92694,3.734764 h 2.807822 v 1.385913 h -3.158799 l -0.737955,3.005811 h 2.861819 v 1.376912 h -3.212796 l -0.935942,3.725766 h -1.439909 l 0.926942,-3.725766 h -2.636834 l -0.926941,3.725766 h -1.448908 l 0.93594,-3.725766 h -2.834821 v -1.376912 h 3.1678 L 37.11861,25.301353 H 34.220791 V 23.91544 h 3.248795 l 0.917942,-3.734764 z"
         style="fill:#189f20;fill-opacity:1;stroke-width:1.08349"
         id="path1104" />
    </g>
  </g>
</svg>
