<?xml version="1.0" encoding="UTF-8" standalone="no"?>
<!-- Created with Inkscape (http://www.inkscape.org/) -->

<svg
   width="48"
   height="48"
   viewBox="0 0 12.7 12.7"
   version="1.1"
   id="svg5"
   xml:space="preserve"
   inkscape:version="1.2.2 (b0a8486541, 2022-12-01)"
   sodipodi:docname="network-error.svg"
   xmlns:inkscape="http://www.inkscape.org/namespaces/inkscape"
   xmlns:sodipodi="http://sodipodi.sourceforge.net/DTD/sodipodi-0.dtd"
   xmlns="http://www.w3.org/2000/svg"
   xmlns:svg="http://www.w3.org/2000/svg"><sodipodi:namedview
     id="namedview7"
     pagecolor="#ffffff"
     bordercolor="#000000"
     borderopacity="0.25"
     inkscape:showpageshadow="2"
     inkscape:pageopacity="0.0"
     inkscape:pagecheckerboard="0"
     inkscape:deskcolor="#d1d1d1"
     inkscape:document-units="mm"
     showgrid="false"
     inkscape:zoom="16.125"
     inkscape:cx="12.620155"
     inkscape:cy="25.488372"
     inkscape:window-width="1680"
     inkscape:window-height="985"
     inkscape:window-x="0"
     inkscape:window-y="36"
     inkscape:window-maximized="1"
     inkscape:current-layer="layer1" /><defs
     id="defs2" /><g
     inkscape:label="Layer 1"
     inkscape:groupmode="layer"
     id="layer1"><g
       id="g6048"
       transform="translate(0.01569052,0.00472498)"><g
         id="g6008"
         style="stroke-width:1.00013;stroke-dasharray:none"><path
           style="fill:none;stroke:#c8c8c8;stroke-width:1.24354;stroke-linecap:round;stroke-linejoin:round;stroke-dasharray:none;stroke-opacity:1"
           d="M 4.1197672,10.653031 4.0977378,3.8834437"
           id="path6002"
           sodipodi:nodetypes="cc" /></g><g
         id="g6008-3"
         transform="rotate(-179.98888,6.3642158,6.5694557)"
         style="fill:none;stroke:#c8c8c8;stroke-opacity:1"><path
           style="fill:none;stroke:#c8c8c8;stroke-width:1.24354;stroke-linecap:round;stroke-linejoin:round;stroke-dasharray:none;stroke-opacity:1"
           d="M 4.1197672,10.653031 4.1114385,3.8599043"
           id="path6002-6"
           sodipodi:nodetypes="cc" /></g></g><g
       id="path1065"><path
         style="color:#000000;fill:#1d1d1b;stroke-width:1.27;stroke-linecap:round;stroke-linejoin:round;-inkscape-stroke:none"
         d="m 10.584018,7.7379402 4.294044,-3.208189"
         id="path1069" /></g><path
       id="path1077-3"
       style="color:#000000;fill:#ff0048;fill-opacity:1;stroke:none;stroke-linecap:round;stroke-linejoin:round;stroke-opacity:1;-inkscape-stroke:none"
       d="m 6.2288929,1.6927907 a 0.63499999,0.63499999 0 0 0 -0.33538,0.1245402 L 4.1008579,3.1562672 2.3526439,1.8405853 a 0.63499999,0.63499999 0 0 0 -0.888835,0.1250569 0.63499999,0.63499999 0 0 0 0.125057,0.8909017 l 1.451591,1.0914063 -1.441772,1.07642 a 0.63499999,0.63499999 0 0 0 -0.126607,0.888835 0.63499999,0.63499999 0 0 0 0.888317,0.128674 l 1.737879,-1.298112 1.768367,1.329635 a 0.63499999,0.63499999 0 0 0 0.890385,-0.125057 0.63499999,0.63499999 0 0 0 -0.127124,-0.888835 L 5.1581569,3.9520843 6.6536729,2.8348398 A 0.63499999,0.63499999 0 0 0 6.7823479,1.9460052 0.63499999,0.63499999 0 0 0 6.2288929,1.6927907 Z" /><path
       id="path1077-3-6"
       style="color:#000000;fill:#ff0048;fill-opacity:1;stroke:none;stroke-linecap:round;stroke-linejoin:round;stroke-opacity:1;-inkscape-stroke:none"
       d="m 10.721411,6.8090973 a 0.63499999,0.63499999 0 0 0 -0.33538,0.1245402 L 8.5933757,8.2725738 6.8451617,6.9568919 a 0.63499999,0.63499999 0 0 0 -0.888835,0.1250569 0.63499999,0.63499999 0 0 0 0.125057,0.8909017 l 1.451591,1.0914063 -1.441772,1.0764202 a 0.63499999,0.63499999 0 0 0 -0.126607,0.888835 0.63499999,0.63499999 0 0 0 0.888317,0.128674 L 8.5907917,9.8600738 10.359159,11.189709 A 0.63499999,0.63499999 0 0 0 11.249544,11.064652 0.63499999,0.63499999 0 0 0 11.12242,10.175817 L 9.6506747,9.0683909 11.146191,7.9511464 A 0.63499999,0.63499999 0 0 0 11.274866,7.0623118 0.63499999,0.63499999 0 0 0 10.721411,6.8090973 Z" /></g></svg>
