<?xml version="1.0" encoding="UTF-8" standalone="no"?>
<!-- Created with Inkscape (http://www.inkscape.org/) -->

<svg
   width="22"
   height="22"
   viewBox="0 0 5.8208332 5.8208333"
   version="1.1"
   id="svg7157"
   inkscape:version="1.2.2 (b0a8486541, 2022-12-01)"
   sodipodi:docname="nm-vpn-connecting01.svg"
   xmlns:inkscape="http://www.inkscape.org/namespaces/inkscape"
   xmlns:sodipodi="http://sodipodi.sourceforge.net/DTD/sodipodi-0.dtd"
   xmlns="http://www.w3.org/2000/svg"
   xmlns:svg="http://www.w3.org/2000/svg">
  <sodipodi:namedview
     id="namedview7159"
     pagecolor="#ffffff"
     bordercolor="#000000"
     borderopacity="0.25"
     inkscape:showpageshadow="2"
     inkscape:pageopacity="0.0"
     inkscape:pagecheckerboard="0"
     inkscape:deskcolor="#d1d1d1"
     inkscape:document-units="mm"
     showgrid="true"
     inkscape:zoom="35.181818"
     inkscape:cx="9.7351422"
     inkscape:cy="11"
     inkscape:window-width="1680"
     inkscape:window-height="985"
     inkscape:window-x="0"
     inkscape:window-y="36"
     inkscape:window-maximized="1"
     inkscape:current-layer="layer1">
    <inkscape:grid
       type="xygrid"
       id="grid7641" />
  </sodipodi:namedview>
  <defs
     id="defs7154" />
  <g
     inkscape:label="Layer 1"
     inkscape:groupmode="layer"
     id="layer1">
    <g
       id="g571"
       transform="matrix(0.19466807,0,0,0.20875588,0.05885763,-4.1123106)"
       style="stroke-width:4.9606">
      <path
         id="path1427"
         style="color:#000000;opacity:1;fill:#b2b2b2;fill-opacity:1;stroke-width:1.31249;stroke-linecap:square;-inkscape-stroke:none"
         d="m 6.3480924,0.41780996 c -1.6168003,0 -2.9185649,1.48522484 -2.9185649,3.33002934 v 1.8572509 c 0,1.8448045 1.3017646,3.3300293 2.9185649,3.3300293 1.6168,0 2.9185648,-1.4852248 2.9185648,-3.3300293 V 3.7478393 c 0,-1.8448045 -1.3017648,-3.33002934 -2.9185648,-3.33002934 z m 0.040715,1.22421464 c 1.0065143,0 1.7905131,1.0754697 1.7905131,2.3765992 v 1.254187 c 0,1.3011295 -0.7839988,2.3765991 -1.7905131,2.3765991 -1.0065143,0 -1.7905128,-1.0754696 -1.7905128,-2.3765991 v -1.254187 c 0,-1.3011295 0.7839985,-2.3765992 1.7905128,-2.3765992 z"
         sodipodi:nodetypes="ssssssssssssss" />
      <path
         id="path1714"
         style="opacity:1;fill:#858584;fill-opacity:1;stroke-width:1.31249;stroke-linecap:square"
         d="M 7.5597806,2.4370719 8.7650355,1.6507292 c 0.4525351,0.9010134 0.6877696,1.7413265 0.6341956,3.267178 l -1.351625,0.00549 C 8.2237506,3.7100852 7.9479113,2.8013656 7.5597806,2.4370719 Z"
         sodipodi:nodetypes="ccccc" />
      <path
         style="color:#000000;fill:#1d1d1b;stroke-width:5.53479;stroke-linecap:round;stroke-linejoin:round;-inkscape-stroke:none"
         d="m 6.3602661,7.0415243 a 0.15181247,0.15294606 0 0 0 -0.132438,0.076556 L 5.3789242,8.596709 4.5321925,10.077526 a 0.15181247,0.15294606 0 0 0 0.130266,0.229669 h 1.6956367 1.6978076 a 0.15181247,0.15294606 0 0 0 0.130266,-0.229669 L 7.339436,8.5988967 6.4905321,7.1180805 a 0.15181247,0.15294606 0 0 0 -0.130266,-0.076556 z m -0.00222,0.4593374 0.7186367,1.2489601 0.7164658,1.2511472 H 6.3580429 4.9251103 L 5.6415772,8.7498218 Z"
         id="path942" />
      <path
         style="color:#000000;opacity:1;fill:#6b6b6a;fill-opacity:0.960784;stroke-width:4.9606;stroke-linecap:square;-inkscape-stroke:none"
         d="m 6.3474035,0.27477995 c -1.7595415,0 -3.169989,1.55205455 -3.169989,3.46289065 v 1.8574219 c 0,1.9108361 1.4104475,3.4609375 3.169989,3.4609375 1.7595417,0 3.1699891,-1.5501014 3.1699891,-3.4609375 V 3.7376706 c 0,-1.9108361 -1.4104474,-3.46289065 -3.1699891,-3.46289065 z m 0,0.26367187 c 1.6096203,0 2.9110971,1.42044598 2.9110971,3.19921878 v 1.8574219 c 0,1.7787728 -1.3014768,3.1972656 -2.9110971,3.1972656 -1.6096202,0 -2.911097,-1.4184928 -2.911097,-3.1972656 V 3.7376706 c 0,-1.7787728 1.3014768,-3.19921878 2.911097,-3.19921878 z"
         id="path1429" />
      <path
         style="color:#000000;opacity:1;fill:#6b6b6a;fill-opacity:0.960784;stroke-width:4.9606;stroke-linecap:square;-inkscape-stroke:none"
         d="m 6.3467668,1.6321833 c -1.037349,0 -1.8445637,1.0787294 -1.8445636,2.3808594 v 1.2519531 c 0,1.30213 0.8072146,2.3808593 1.8445636,2.3808593 1.0373488,0 1.8464268,-1.0787293 1.8464268,-2.3808593 V 4.0130427 c 0,-1.30213 -0.809078,-2.3808594 -1.8464268,-2.3808594 z m 0,0.2695312 c 0.8653744,0 1.5893057,0.9250158 1.5893057,2.1113282 v 1.2519531 c 0,1.1863123 -0.7239313,2.1113281 -1.5893057,2.1113281 -0.8653745,0 -1.5874427,-0.9250158 -1.5874427,-2.1113281 V 4.0130427 c 0,-1.1863124 0.7220682,-2.1113282 1.5874427,-2.1113282 z"
         id="path1597" />
      <rect
         style="fill:#ffed00;fill-opacity:1;stroke:#6b6b6a;stroke-width:1.31249;stroke-linecap:square;stroke-linejoin:miter;stroke-dasharray:none;stroke-opacity:0.960784"
         id="rect2433"
         width="9.260416"
         height="7.4083333"
         x="1.7130475"
         y="4.8845439"
         rx="0"
         ry="0" />
      <path
         id="path12003"
         style="color:#000000;fill:#1d1d1b;stroke-width:1.51162;stroke-linecap:round;stroke-linejoin:round;-inkscape-stroke:none"
         d="M 6.3453491,6.0812826 A 1.0583334,1.0583334 0 0 0 5.2870158,7.1396159 1.0583334,1.0583334 0 0 0 5.8539062,8.0759928 L 5.5112915,8.6738892 4.6627645,10.153902 H 6.3593018 L 8.0553223,10.154419 7.207312,8.6744059 6.8579793,8.064624 A 1.0583334,1.0583334 0 0 0 7.4036825,7.1396159 1.0583334,1.0583334 0 0 0 6.3453491,6.0812826 Z" />
    </g>
    <g
       id="g1706"
       transform="matrix(0.217386,0,0,0.21739128,3.3590908,2.5883152)"
       style="stroke-width:1.00001">
      <path
         id="path1427-3"
         style="color:#000000;fill:#b2b2b2;fill-opacity:1;stroke-width:0.264586;stroke-linecap:square;-inkscape-stroke:none"
         d="m 6.3548387,0.40785666 c -1.6168396,0 -2.9186358,1.48775134 -2.9186358,3.33569404 V 5.603961 c 0,1.8479427 1.3017962,3.335694 2.9186358,3.335694 1.6168393,0 2.9186357,-1.4877513 2.9186357,-3.335694 V 3.7435507 c 0,-1.8479427 -1.3017964,-3.33569404 -2.9186357,-3.33569404 z m 0.040716,1.22629714 c 1.0065388,0 1.7905566,1.0772992 1.7905566,2.380642 v 1.2563205 c 0,1.3033429 -0.7840178,2.380642 -1.7905566,2.380642 -1.0065387,0 -1.7905563,-1.0772991 -1.7905563,-2.380642 V 4.0147958 c 0,-1.3033428 0.7840176,-2.380642 1.7905563,-2.380642 z"
         sodipodi:nodetypes="ssssssssssssss" />
      <path
         id="path1714-6"
         style="fill:#858584;fill-opacity:1;stroke-width:0.264586;stroke-linecap:square"
         d="M 7.5665564,2.4305536 8.7718406,1.6428732 c 0.4525461,0.9025461 0.6877863,1.7442887 0.634211,3.2727358 l -1.3516579,0.0055 C 8.2305425,3.7057324 7.9546965,2.795467 7.5665564,2.4305536 Z"
         sodipodi:nodetypes="ccccc" />
      <path
         style="color:#000000;fill:#1d1d1b;stroke-width:1.11576;stroke-linecap:round;stroke-linejoin:round;-inkscape-stroke:none"
         d="M 6.3670127,7.0428386 A 0.15181616,0.15320624 0 0 0 6.2345715,7.1195248 L 5.385647,8.6006688 4.5388947,10.084005 a 0.15181616,0.15320624 0 0 0 0.1302692,0.23006 h 1.6956779 1.6978488 a 0.15181616,0.15320624 0 0 0 0.1302692,-0.23006 L 7.3462064,8.6028602 6.4972819,7.119525 A 0.15181616,0.15320624 0 0 0 6.3670127,7.0428386 Z M 6.3647927,7.5029574 7.0834468,8.7540421 7.79993,10.007318 H 6.3647895 4.9318221 L 5.6483064,8.7540421 Z"
         id="path942-7" />
      <path
         style="color:#000000;fill:#676766;fill-opacity:1;stroke-width:1.00001;stroke-linecap:square;-inkscape-stroke:none"
         d="m 6.3541498,0.26458334 c -1.7595842,0 -3.170066,1.55469476 -3.170066,3.46878136 v 1.8605816 c 0,1.9140866 1.4104818,3.4668249 3.170066,3.4668249 1.7595845,0 3.1700661,-1.5527383 3.1700661,-3.4668249 V 3.7333647 c 0,-1.9140866 -1.4104816,-3.46878136 -3.1700661,-3.46878136 z m 0,0.2641204 c 1.6096594,0 2.9111679,1.42286226 2.9111679,3.20466096 v 1.8605816 c 0,1.7817986 -1.3015085,3.2027044 -2.9111679,3.2027044 -1.6096593,0 -2.9111677,-1.4209058 -2.9111677,-3.2027044 V 3.7333647 c 0,-1.7817987 1.3015084,-3.20466096 2.9111677,-3.20466096 z"
         id="path1429-5" />
      <path
         style="color:#000000;fill:#676766;fill-opacity:1;stroke-width:1.00001;stroke-linecap:square;-inkscape-stroke:none"
         d="m 6.3535131,1.6242958 c -1.0373742,0 -1.8446085,1.0805644 -1.8446084,2.3849094 V 5.263288 c 0,1.3043451 0.8072342,2.3849094 1.8446084,2.3849094 1.037374,0 1.8464717,-1.0805643 1.8464717,-2.3849094 V 4.0092052 c 0,-1.304345 -0.8090977,-2.3849094 -1.8464717,-2.3849094 z m 0,0.2699897 c 0.8653954,0 1.5893443,0.9265893 1.5893443,2.1149197 V 5.263288 c 0,1.1883304 -0.7239489,2.1149197 -1.5893443,2.1149197 -0.8653955,0 -1.5874813,-0.9265893 -1.5874813,-2.1149197 V 4.0092052 c 0,-1.1883304 0.7220858,-2.1149197 1.5874813,-2.1149197 z"
         id="path1597-3" />
      <rect
         style="fill:#c8c8c8;fill-opacity:1;stroke:#6b6b6a;stroke-width:0.264587;stroke-linecap:square;stroke-linejoin:miter;stroke-dasharray:none;stroke-opacity:0.960784"
         id="rect2433-5"
         width="9.2606411"
         height="7.4209356"
         x="1.7196811"
         y="4.8821888"
         rx="0"
         ry="0" />
      <path
         id="path1686"
         style="color:#000000;fill:#000000;stroke-width:0.477362;stroke-linecap:round;stroke-linejoin:round;-inkscape-stroke:none;paint-order:stroke markers fill"
         d="M 6.358785,6.0833496 A 1.0583333,1.0583333 0 0 0 5.3004517,7.1416829 1.0583333,1.0583333 0 0 0 5.6968099,7.9664388 L 5.3221558,8.597408 4.5346069,9.9249756 a 0.26912111,0.26017116 8.9978927e-6 0 0 0.2335775,0.3896404 l 1.5828491,-0.0047 1.5838827,-0.0036 A 0.26912111,0.26017116 8.9978927e-6 0 0 8.1669434,9.9151571 L 7.3716431,8.5922404 7.0037069,7.9798747 A 1.0583333,1.0583333 0 0 0 7.4171183,7.1416829 1.0583333,1.0583333 0 0 0 6.358785,6.0833496 Z" />
    </g>
  </g>
</svg>
