<?xml version="1.0" encoding="UTF-8" standalone="no"?>
<svg
   enable-background="new 0 0 515.91 728.5"
   height="512"
   id="Layer_1"
   version="1.1"
   viewBox="0 0 512.00003 512"
   width="512"
   xml:space="preserve"
   sodipodi:docname="debian-gray.svg"
   inkscape:version="1.2.2 (b0a8486541, 2022-12-01)"
   xmlns:inkscape="http://www.inkscape.org/namespaces/inkscape"
   xmlns:sodipodi="http://sodipodi.sourceforge.net/DTD/sodipodi-0.dtd"
   xmlns="http://www.w3.org/2000/svg"
   xmlns:svg="http://www.w3.org/2000/svg"
   xmlns:rdf="http://www.w3.org/1999/02/22-rdf-syntax-ns#"
   xmlns:cc="http://creativecommons.org/ns#"
   xmlns:dc="http://purl.org/dc/elements/1.1/"><metadata
     id="metadata10"><rdf:RDF><cc:Work
         rdf:about=""><dc:format>image/svg+xml</dc:format><dc:type
           rdf:resource="http://purl.org/dc/dcmitype/StillImage" /><dc:title /></cc:Work></rdf:RDF></metadata><sodipodi:namedview
     pagecolor="#ffffff"
     bordercolor="#666666"
     borderopacity="1"
     objecttolerance="10"
     gridtolerance="10"
     guidetolerance="10"
     inkscape:pageopacity="0"
     inkscape:pageshadow="2"
     inkscape:window-width="1680"
     inkscape:window-height="985"
     id="namedview8"
     showgrid="true"
     inkscape:zoom="1.5117188"
     inkscape:cx="255.66925"
     inkscape:cy="256"
     inkscape:window-x="0"
     inkscape:window-y="36"
     inkscape:window-maximized="1"
     inkscape:current-layer="Layer_1"
     inkscape:document-rotation="0"
     inkscape:showpageshadow="2"
     inkscape:pagecheckerboard="0"
     inkscape:deskcolor="#d1d1d1"><inkscape:grid
       type="xygrid"
       id="grid294" /></sodipodi:namedview><defs
     id="defs7"><filter
       inkscape:collect="always"
       style="color-interpolation-filters:sRGB"
       id="filter1301"
       x="-0.003"
       width="1.006"
       y="-0.0029999998"
       height="1.006"><feGaussianBlur
         inkscape:collect="always"
         stdDeviation="0.53769591"
         id="feGaussianBlur1303" /></filter></defs><g
     id="g1351"
     transform="matrix(0.97656271,0,0,0.97656283,5.9999639,5.9999509)"
     style="stroke-width:1.00076"><g
       id="g7966"
       transform="translate(-2045.7803,196.99031)"
       style="stroke:#000000;stroke-width:10.2085;stroke-miterlimit:4;stroke-dasharray:none;stroke-opacity:1"><path
         d="m -733.62329,72.267944 c 0,203.804876 -165.21649,369.021366 -369.02141,369.021366 -203.8048,0 -369.0213,-165.21649 -369.0213,-369.021366 0,-203.804874 165.2165,-369.021364 369.0213,-369.021364 203.80492,0 369.02141,165.21649 369.02141,369.021364 z"
         id="path4894"
         style="fill:#f2f2f2;fill-opacity:1;fill-rule:nonzero;stroke:#000000;stroke-width:14.7607;stroke-miterlimit:4;stroke-dasharray:none;stroke-opacity:1"
         transform="matrix(0.69372678,0,0,0.69372678,3066.7144,8.875483)" /></g><path
       d="m 77.009828,433.42229 c 98.404312,98.40431 257.949192,98.40431 356.353492,0 98.40429,-98.40431 98.4043,-257.9492 0,-356.353503 z"
       id="path3752"
       style="opacity:0.15;fill:#000000;fill-opacity:1;fill-rule:nonzero;stroke:none;stroke-width:0.985044;filter:url(#filter1301)" /><path
       d="m 375.76644,227.987 c 0.38395,10.30933 -3.0084,15.31885 -6.07661,24.17737 l -5.51703,2.74375 c -4.51041,8.76463 0.44761,5.56429 -2.78217,12.53246 -7.04948,6.25984 -21.36106,19.5817 -25.9441,20.8021 -3.34982,-0.0725 2.26589,-3.95136 2.99987,-5.46616 -9.42632,6.46891 -7.56575,9.71192 -21.98419,13.65046 l -0.41816,-0.94306 c -35.54476,16.72703 -84.92376,-16.41551 -84.27516,-61.62966 -0.37552,2.86751 -1.07962,2.15062 -1.86467,3.30271 -1.835,-23.25989 10.74472,-46.62226 31.96036,-56.17625 20.75088,-10.26664 45.07772,-6.0593 59.93181,7.80448 -8.15889,-10.69335 -24.41221,-22.03101 -43.66098,-20.98131 -18.86482,0.30724 -36.51827,12.29351 -42.40639,25.31244 -9.66099,6.0806 -10.78744,23.45192 -14.99497,26.63519 -5.67076,41.64687 10.65521,59.63264 38.27617,80.80173 4.33509,2.9272 1.22047,3.37526 1.80064,5.60268 -9.17436,-4.29269 -17.57213,-10.77868 -24.48451,-18.71976 3.66987,5.36374 7.62489,10.57815 12.74137,14.67457 -8.65777,-2.92299 -20.21743,-20.96426 -23.58441,-21.69821 14.91379,26.70348 60.49893,46.83141 84.38191,36.8421 -11.05158,0.40966 -25.0863,0.22615 -37.4949,-4.36092 -5.22735,-2.68403 -12.30617,-8.23551 -11.03929,-9.27243 32.58386,12.16547 66.23402,9.20842 94.42264,-13.38588 7.17738,-5.58989 15.01147,-15.09272 17.27745,-15.22073 -3.40949,5.12905 0.58449,2.46638 -2.03554,6.99378 7.13475,-11.52545 -3.11072,-4.6938 7.38227,-19.90176 l 3.87463,5.33391 c -1.45094,-9.5754 11.88356,-21.19042 10.52664,-36.32156 3.05959,-4.6255 3.40954,4.984 0.16644,15.62613 4.50189,-11.80704 1.19048,-13.70595 2.34274,-23.45199 1.24163,3.27715 2.89313,6.75485 3.73378,10.21544 -2.93588,-11.41446 2.99977,-19.2147 4.47628,-25.85004 -1.45945,-0.64007 -4.52757,5.04367 -5.23587,-8.43179 0.10632,-5.85444 1.63434,-3.06806 2.21895,-4.51033 -1.14363,-0.6614 -4.16057,-5.15037 -5.99112,-13.7571 1.31847,-2.02686 3.55026,5.24423 5.35956,5.53868 -1.16502,-6.84018 -3.16633,-12.0588 -3.2516,-17.31158 -5.29134,-11.05178 -1.8733,1.4764 -6.15758,-4.74502 -5.63264,-17.55484 4.66833,-4.07508 5.3682,-12.04603 8.52589,12.35325 13.38579,31.51249 15.62598,39.44506 -1.70688,-9.67354 -4.45923,-19.04833 -7.82555,-28.11593 2.5982,1.09669 -4.17764,-19.89746 3.37485,-5.99526 -8.06034,-29.63495 -34.46934,-57.32843 -58.7707,-70.317493 2.96578,2.71816 6.71661,6.1318 5.37683,6.669489 -12.09297,-7.190055 -9.96774,-7.757576 -11.70041,-10.795777 -9.83573,-4.006805 -10.49275,0.328584 -17.00037,0.0089 -18.56185,-9.848435 -22.13771,-8.802967 -39.21882,-14.964664 l 0.77663,3.635559 c -12.2932,-4.096411 -14.32453,1.544679 -27.60777,0.0089 -0.80653,-0.627274 4.25824,-2.287158 8.43153,-2.888839 -11.88789,1.570327 -11.33328,-2.346903 -22.9656,0.430995 2.86334,-2.009816 5.90154,-3.345393 8.95691,-5.052221 -9.69079,0.588824 -23.14479,5.64109 -18.99287,1.041148 -15.80946,7.057796 -43.89145,16.961724 -59.64976,31.738685 l -0.4949,-3.311305 c -7.22012,8.666503 -31.48714,25.884233 -33.42015,37.119463 l -1.9331,0.44807 c -3.7505,6.36223 -6.18692,13.56935 -9.16543,20.11082 -4.91161,8.3763 -7.20309,3.22592 -6.50319,4.54019 -9.66475,19.59449 -14.47382,36.05696 -18.61733,49.56659 2.95292,4.41645 0.0731,26.59252 1.18627,44.33937 -4.8475,87.66318 61.52296,172.77041 134.07245,192.41612 10.63341,3.81054 26.44287,3.67399 39.893,4.04947 -15.86529,-4.54016 -17.91367,-2.40236 -33.37751,-7.79171 -11.14971,-5.25705 -13.59066,-11.25231 -21.49329,-18.10954 l 3.12776,5.52586 c -15.48942,-5.48321 -9.0076,-6.78463 -21.61288,-10.77436 l 3.3412,-4.35673 c -5.02248,-0.38404 -13.30031,-8.45738 -15.56186,-12.94211 l -5.49623,0.21762 c -6.59709,-8.13307 -10.11713,-14.00886 -9.85677,-18.56185 l -1.7752,3.16619 c -2.00985,-3.45209 -24.28409,-30.5439 -12.72897,-24.23713 -2.1464,-1.95432 -5.00109,-3.1875 -8.09443,-8.81577 l 2.35127,-2.68404 c -5.5516,-7.15594 -10.23275,-16.32588 -9.87429,-19.38114 2.96567,4.00251 5.02236,4.75355 7.06209,5.44056 -14.04323,-34.83657 -14.83261,-1.91592 -25.4618,-35.45956 l 2.24451,-0.17923 c -1.7196,-2.60721 -2.77363,-5.41921 -4.15625,-8.18856 l 0.98151,-9.75032 c -10.10461,-11.67481 -2.82492,-49.69033 -1.36125,-70.53509 1.00277,-8.47444 8.4362,-17.49934 14.08125,-31.65327 l -3.43886,-0.5889 c 6.5796,-11.46996 37.5589,-46.08039 51.91335,-44.30525 6.95123,-8.73045 -1.3826,-0.0341 -2.74384,-2.22746 15.27181,-15.80102 20.07236,-11.16268 30.37764,-14.00885 11.10706,-6.59262 -9.53717,2.57734 -4.27143,-2.5133 19.21469,-4.9029 13.61192,-11.15419 38.67266,-13.64193 2.64562,1.50203 -6.13199,2.32133 -8.33388,4.27139 16.00195,-7.834395 50.64633,-6.046472 73.15969,4.34391 26.10181,12.20814 55.44645,48.2779 56.60713,82.21412 l 1.3186,0.35419 c -0.66579,13.49252 2.06523,29.09731 -2.67564,43.42621 l 3.20476,-6.78894"
       id="path14-1"
       style="fill:#c7053d;fill-opacity:1;stroke-width:1.10826" /></g></svg>
