<?xml version="1.0" encoding="UTF-8" standalone="no"?>
<svg
   xmlns:dc="http://purl.org/dc/elements/1.1/"
   xmlns:cc="http://creativecommons.org/ns#"
   xmlns:rdf="http://www.w3.org/1999/02/22-rdf-syntax-ns#"
   xmlns:svg="http://www.w3.org/2000/svg"
   xmlns="http://www.w3.org/2000/svg"
   xmlns:xlink="http://www.w3.org/1999/xlink"
   xmlns:sodipodi="http://sodipodi.sourceforge.net/DTD/sodipodi-0.dtd"
   xmlns:inkscape="http://www.inkscape.org/namespaces/inkscape"
   enable-background="new 0 0 515.91 728.5"
   height="512"
   id="Layer_1"
   version="1.1"
   viewBox="0 0 512.00003 512"
   width="512"
   xml:space="preserve"
   sodipodi:docname="debian-circle-minimal.svg"
   inkscape:version="1.0.2 (e86c870879, 2021-01-15)"><metadata
     id="metadata9"><rdf:RDF><cc:Work
         rdf:about=""><dc:format>image/svg+xml</dc:format><dc:type
           rdf:resource="http://purl.org/dc/dcmitype/StillImage" /><dc:title /></cc:Work></rdf:RDF></metadata><sodipodi:namedview
     pagecolor="#ffffff"
     bordercolor="#666666"
     borderopacity="1"
     objecttolerance="10"
     gridtolerance="10"
     guidetolerance="10"
     inkscape:pageopacity="0"
     inkscape:pageshadow="2"
     inkscape:window-width="1680"
     inkscape:window-height="982"
     id="namedview7"
     showgrid="false"
     inkscape:zoom="1.4980469"
     inkscape:cx="256"
     inkscape:cy="256"
     inkscape:window-x="0"
     inkscape:window-y="37"
     inkscape:window-maximized="1"
     inkscape:current-layer="Layer_1"
     inkscape:document-rotation="0" /><defs
     id="defs7"><linearGradient
       inkscape:collect="always"
       id="linearGradient903"><stop
         style="stop-color:#eb396b;stop-opacity:1"
         offset="0"
         id="stop899" /><stop
         style="stop-color:#ff709b;stop-opacity:1"
         offset="1"
         id="stop901" /></linearGradient><linearGradient
       inkscape:collect="always"
       xlink:href="#linearGradient903"
       id="linearGradient905"
       x1="-1102.4951"
       y1="439.57584"
       x2="-1102.5734"
       y2="-295.88721"
       gradientUnits="userSpaceOnUse" /></defs><g
     id="g7966"
     transform="translate(-2045.7803,196.99031)"><path
       d="m -733.62329,72.267944 c 0,203.804876 -165.21649,369.021366 -369.02141,369.021366 -203.8048,0 -369.0213,-165.21649 -369.0213,-369.021366 0,-203.804874 165.2165,-369.021364 369.0213,-369.021364 203.80492,0 369.02141,165.21649 369.02141,369.021364 z"
       id="path4894"
       style="fill:url(#linearGradient905);fill-opacity:1;fill-rule:nonzero;stroke:none"
       transform="matrix(0.69372678,0,0,0.69372678,3066.7144,8.875483)" /></g><path
     d="m 271.03933,424.92315 c -53.83156,-18.52348 -85.80372,-41.28318 -120.85389,-92.03155 -8.61942,-13.9857 -24.42869,-45.20195 -23.84082,-85.93736 -1.39055,-40.6276 20.0599,-87.41723 60.08522,-112.39572 38.65123,-26.35979 88.5322,-26.75352 118.20223,-16.34833 30.59969,10.87369 43.02055,28.98454 43.37254,28.12231 -0.94081,0.22569 16.39673,14.19208 24.11531,44.56459 8.61942,29.1912 -0.14412,77.58211 -42.21692,97.39634 -19.35484,9.93641 -44.48913,11.71797 -64.19596,4.6309 -19.70792,-7.61131 -34.00863,-24.31666 -38.76842,-41.77085 -10.38248,-38.52736 20.15807,-59.87966 33.63652,-62.079 54.83355,-17.49171 82.59205,64.62775 18.47358,71.60076 29.22872,9.33617 59.36072,-19.36722 53.62097,-48.61551 -1.15562,-29.24762 -38.14153,-58.27118 -78.94886,-46.36409 -10.65684,2.8125 -26.79975,9.97394 -39.43487,26.06014 -12.94918,16.01076 -18.82625,41.09611 -12.0875,65.47041 6.56296,24.50373 26.52471,47.97774 54.32495,58.51277 28.07241,9.91806 59.36058,7.0872 85.17166,-5.77469 55.1264,-26.09768 66.15385,-89.68837 55.20865,-124.67696 -9.67742,-37.60858 -31.01068,-54.82322 -29.91366,-55.08534 -0.39019,1.01287 -15.75067,-21.31735 -53.69792,-34.890295 -37.10405,-12.936397 -94.95037,-12.017617 -141.26416,19.066615 -47.40836,29.07863 -73.090959,86.26107 -71.23082,132.32307 -0.64715,46.79589 17.59191,82.60755 27.52425,98.52164 40.08133,58.49741 86.00411,76.77018 142.71833,79.6992 z"
     fill="#ffffff"
     fill-opacity="0.8"
     stroke-width="1.40964"
     id="path22"
     style="fill:#fee7ed;fill-opacity:1" /></svg>
