<?xml version="1.0" encoding="UTF-8" standalone="no"?>
<svg
   xmlns:dc="http://purl.org/dc/elements/1.1/"
   xmlns:cc="http://creativecommons.org/ns#"
   xmlns:rdf="http://www.w3.org/1999/02/22-rdf-syntax-ns#"
   xmlns:svg="http://www.w3.org/2000/svg"
   xmlns="http://www.w3.org/2000/svg"
   xmlns:sodipodi="http://sodipodi.sourceforge.net/DTD/sodipodi-0.dtd"
   xmlns:inkscape="http://www.inkscape.org/namespaces/inkscape"
   enable-background="new 0 0 515.91 728.5"
   height="512"
   id="Layer_1"
   version="1.1"
   viewBox="0 0 512.00003 512"
   width="512"
   xml:space="preserve"
   sodipodi:docname="debian2.svg"
   inkscape:version="1.0.2 (e86c870879, 2021-01-15)"><metadata
     id="metadata10"><rdf:RDF><cc:Work
         rdf:about=""><dc:format>image/svg+xml</dc:format><dc:type
           rdf:resource="http://purl.org/dc/dcmitype/StillImage" /><dc:title /></cc:Work></rdf:RDF></metadata><sodipodi:namedview
     pagecolor="#ffffff"
     bordercolor="#666666"
     borderopacity="1"
     objecttolerance="10"
     gridtolerance="10"
     guidetolerance="10"
     inkscape:pageopacity="0"
     inkscape:pageshadow="2"
     inkscape:window-width="1680"
     inkscape:window-height="982"
     id="namedview8"
     showgrid="false"
     inkscape:zoom="1.4980469"
     inkscape:cx="256"
     inkscape:cy="256"
     inkscape:window-x="0"
     inkscape:window-y="37"
     inkscape:window-maximized="1"
     inkscape:current-layer="Layer_1"
     inkscape:document-rotation="0" /><defs
     id="defs7"><filter
       inkscape:collect="always"
       style="color-interpolation-filters:sRGB"
       id="filter1578"
       x="-0.012"
       width="1.024"
       y="-0.012"
       height="1.024"><feGaussianBlur
         inkscape:collect="always"
         stdDeviation="2.1850967"
         id="feGaussianBlur1580" /></filter></defs><g
     id="g7966"
     transform="translate(-2045.7803,196.99031)"><path
       d="m -733.62329,72.267944 c 0,203.804876 -165.21649,369.021366 -369.02141,369.021366 -203.8048,0 -369.0213,-165.21649 -369.0213,-369.021366 0,-203.804874 165.2165,-369.021364 369.0213,-369.021364 203.80492,0 369.02141,165.21649 369.02141,369.021364 z"
       id="path4894"
       style="fill:#d70751;fill-opacity:1;fill-rule:nonzero;stroke:none"
       transform="matrix(0.69372678,0,0,0.69372678,3066.7144,8.875483)" /><path
       d="m 2320.8656,225.77537 c -53.8315,-18.52348 -85.8037,-41.28318 -120.8539,-92.03155 -8.6194,-13.9857 -24.4286,-45.201948 -23.8408,-85.937358 -1.3905,-40.6275997 20.0599,-87.41723 60.0852,-112.39572 38.6513,-26.35979 88.5322,-26.75352 118.2023,-16.34833 30.5997,10.87369 43.0205,28.98454 43.3725,28.12231 -0.9408,0.22569 16.3967,14.19208 24.1153,44.5645903 8.6194,29.1911997 -0.1441,77.5821097 -42.2169,97.3963397 -19.3548,9.93641 -44.4891,11.717968 -64.196,4.6309 -19.7079,-7.61131 -34.0086,-24.31666 -38.7684,-41.77085 -10.3825,-38.52736 20.1581,-59.8796597 33.6365,-62.079 54.8336,-17.49171 82.5921,64.62775 18.4736,71.60076 29.2287,9.33617 59.3607,-19.36722 53.621,-48.61551 -1.1556,-29.24762 -38.1415,-58.27118 -78.9489,-46.36409 -10.6568,2.8125 -26.7997,9.97394 -39.4348,26.0601403 -12.9492,16.01076 -18.8263,41.0961097 -12.0875,65.4704097 6.5629,24.50373 26.5247,47.977738 54.3249,58.512768 28.0724,9.91806 59.3606,7.0872 85.1717,-5.77469 55.1264,-26.097678 66.1538,-89.688368 55.2086,-124.676958 -9.6774,-37.60858 -31.0107,-54.82322 -29.9136,-55.08534 -0.3902,1.01287 -15.7507,-21.31735 -53.698,-34.890292 -37.104,-12.9364 -94.9503,-12.01762 -141.2641,19.066612 -47.4084,29.07863 -73.091,86.2610703 -71.2308,132.32307 -0.6472,46.79589 17.5919,82.607548 27.5242,98.521638 40.0813,58.49741 86.0041,76.77018 142.7183,79.6992 z"
       fill="#ffffff"
       fill-opacity="0.8"
       stroke-width="1.40964"
       id="path22"
       style="fill:#fee7ed;fill-opacity:1" /></g><path
     d="m 74.980696,437.01935 c 99.974224,99.97422 262.064454,99.97422 362.038674,0 99.97421,-99.97422 99.97422,-262.06445 0,-362.03867 L 74.980696,437.01935 z"
     id="path3752"
     style="fill:#000000;fill-opacity:0.30366492;fill-rule:nonzero;stroke:none;opacity:0.6;filter:url(#filter1578)" /></svg>
