<?xml version="1.0" encoding="UTF-8" standalone="no"?>
<svg
   enable-background="new 0 0 515.91 728.5"
   height="512"
   id="Layer_1"
   version="1.1"
   viewBox="0 0 512.00003 512"
   width="512"
   xml:space="preserve"
   sodipodi:docname="debian-minimal-circle-shade2.svg"
   inkscape:version="1.2.2 (b0a8486541, 2022-12-01)"
   xmlns:inkscape="http://www.inkscape.org/namespaces/inkscape"
   xmlns:sodipodi="http://sodipodi.sourceforge.net/DTD/sodipodi-0.dtd"
   xmlns="http://www.w3.org/2000/svg"
   xmlns:svg="http://www.w3.org/2000/svg"
   xmlns:rdf="http://www.w3.org/1999/02/22-rdf-syntax-ns#"
   xmlns:cc="http://creativecommons.org/ns#"
   xmlns:dc="http://purl.org/dc/elements/1.1/"><metadata
     id="metadata10"><rdf:RDF><cc:Work
         rdf:about=""><dc:format>image/svg+xml</dc:format><dc:type
           rdf:resource="http://purl.org/dc/dcmitype/StillImage" /></cc:Work></rdf:RDF></metadata><sodipodi:namedview
     pagecolor="#ffffff"
     bordercolor="#666666"
     borderopacity="1"
     objecttolerance="10"
     gridtolerance="10"
     guidetolerance="10"
     inkscape:pageopacity="0"
     inkscape:pageshadow="2"
     inkscape:window-width="1680"
     inkscape:window-height="985"
     id="namedview8"
     showgrid="false"
     inkscape:zoom="1.5117188"
     inkscape:cx="255.66925"
     inkscape:cy="256"
     inkscape:window-x="0"
     inkscape:window-y="36"
     inkscape:window-maximized="1"
     inkscape:current-layer="Layer_1"
     inkscape:document-rotation="0"
     inkscape:showpageshadow="2"
     inkscape:pagecheckerboard="0"
     inkscape:deskcolor="#d1d1d1" /><defs
     id="defs7"><filter
       inkscape:collect="always"
       style="color-interpolation-filters:sRGB"
       id="filter1301"
       x="-0.0029999999"
       width="1.006"
       y="-0.0029999998"
       height="1.006"><feGaussianBlur
         inkscape:collect="always"
         stdDeviation="0.53769591"
         id="feGaussianBlur1303" /></filter></defs><g
     id="g1351"
     transform="matrix(0.97736044,0,0,0.97725048,4.9848601,4.9842856)"><g
       id="g7966"
       transform="translate(-2045.7803,196.99031)"
       style="stroke:#000000;stroke-width:10.2007;stroke-miterlimit:4;stroke-dasharray:none;stroke-opacity:1"><path
         d="m 2558.4006,59.868823 c 0,141.285517 -114.5214,255.820077 -255.7907,255.820077 -141.2693,0 -255.7907,-114.53456 -255.7907,-255.820077 0,-141.285525 114.5214,-255.820073 255.7907,-255.820073 141.2693,0 255.7907,114.534548 255.7907,255.820073 z"
         id="path4894"
         style="fill:#d70751;fill-opacity:1;fill-rule:nonzero;stroke:#000000;stroke-width:10.2322;stroke-miterlimit:4;stroke-dasharray:none;stroke-opacity:1" /><path
         d="m 2123.8485,237.20874 c 98.4043,98.40431 257.9492,98.40431 356.3535,0 98.4043,-98.40431 98.4043,-257.949202 0,-356.3535 z"
         id="path3752"
         style="fill:#000000;fill-opacity:1;fill-rule:nonzero;stroke:none;stroke-width:0.984296;filter:url(#filter1301);opacity:0.15" /></g><g
       id="g1282"
       transform="matrix(16.239103,0,0,16.24093,-3796.3194,-2519.2118)"
       style="fill:#ffffff"><path
         id="path1214"
         style="color:#000000;fill:#f2f2f2;fill-opacity:1;fill-rule:evenodd;stroke-width:0.960882;-inkscape-stroke:none"
         d="m 249.89327,159.61568 c -0.11345,-4.1e-4 -0.22703,0.001 -0.34055,0.005 -1.21081,0.0369 -2.42143,0.29403 -3.54913,0.77979 -5.78931,2.49379 -7.75735,9.4376 -5.2095,14.79807 2.03381,4.27898 6.41968,6.92548 11.07787,7.0993 l 0.154,-4.04419 c -3.17917,-0.11864 -6.19776,-1.97064 -7.53236,-4.77852 -1.62211,-3.4128 -0.36635,-7.85145 3.1409,-9.36222 2.52757,-1.08876 5.80465,-0.14036 6.77478,2.39107 0.30188,0.78771 0.28806,1.7967 -0.0212,2.57193 -0.30926,0.77523 -0.79479,1.27753 -1.57407,1.49345 -0.2924,0.081 -0.782,0.10744 -1.09803,-0.0338 -0.21279,-0.0951 -0.44712,-0.33065 -0.46565,-0.42327 l 0.001,-1.7e-4 8.2e-4,5.7e-4 c -0.0469,-0.24942 -0.0772,-0.51615 -0.0982,-0.77027 l -4.00182,0.30489 c 0.018,0.218 0.0424,0.43479 0.0724,0.65061 4e-5,3.3e-4 -5e-5,6.9e-4 0,0.001 0.0897,1.75797 1.30293,3.15196 2.59932,3.78478 1.29664,0.63294 2.71884,0.76333 4.09174,0.38292 2.0913,-0.57945 3.57735,-2.15561 4.27467,-3.90363 0.69732,-1.74803 0.72599,-3.70588 0.0408,-5.49373 -1.3665,-3.56573 -4.82097,-5.43946 -8.33799,-5.45238 z"
         sodipodi:nodetypes="cccsccsssssscccccscsssscc" /></g></g></svg>
