<?xml version="1.0" encoding="UTF-8" standalone="no"?>
<svg
   xmlns:dc="http://purl.org/dc/elements/1.1/"
   xmlns:cc="http://creativecommons.org/ns#"
   xmlns:rdf="http://www.w3.org/1999/02/22-rdf-syntax-ns#"
   xmlns:svg="http://www.w3.org/2000/svg"
   xmlns="http://www.w3.org/2000/svg"
   xmlns:sodipodi="http://sodipodi.sourceforge.net/DTD/sodipodi-0.dtd"
   xmlns:inkscape="http://www.inkscape.org/namespaces/inkscape"
   width="48"
   height="48"
   viewBox="0 0 12.7 12.7"
   version="1.1"
   id="svg2242"
   sodipodi:docname="ac-adapter.svg"
   inkscape:version="1.0.2 (e86c870879, 2021-01-15)">
  <sodipodi:namedview
     pagecolor="#ffffff"
     bordercolor="#666666"
     borderopacity="1"
     objecttolerance="10"
     gridtolerance="10"
     guidetolerance="10"
     inkscape:pageopacity="0"
     inkscape:pageshadow="2"
     inkscape:window-width="1680"
     inkscape:window-height="985"
     id="namedview13"
     showgrid="true"
     inkscape:zoom="16.041667"
     inkscape:cx="24"
     inkscape:cy="24"
     inkscape:window-x="0"
     inkscape:window-y="36"
     inkscape:window-maximized="1"
     inkscape:current-layer="svg2242"
     inkscape:document-rotation="0">
    <inkscape:grid
       type="xygrid"
       id="grid844"
       empspacing="1" />
  </sodipodi:namedview>
  <defs
     id="defs2236">
    <marker
       style="overflow:visible"
       id="Arrow1Lstart"
       refX="0"
       refY="0"
       orient="auto">
      <path
         transform="matrix(0.8,0,0,0.8,10,0)"
         style="fill-rule:evenodd;stroke:#000000;stroke-width:1pt"
         d="M 0,0 5,-5 -12.5,0 5,5 Z"
         id="path1628" />
    </marker>
  </defs>
  <metadata
     id="metadata2239">
    <rdf:RDF>
      <cc:Work
         rdf:about="">
        <dc:format>image/svg+xml</dc:format>
        <dc:type
           rdf:resource="http://purl.org/dc/dcmitype/StillImage" />
        <dc:title></dc:title>
      </cc:Work>
    </rdf:RDF>
  </metadata>
  <rect
     style="fill:none;stroke:#00d900;stroke-width:9.53401;stroke-linejoin:miter;stroke-miterlimit:4;stroke-dasharray:none"
     id="rect3152"
     width="0"
     height="0"
     x="43.729687"
     y="-54.709492"
     ry="0" />
  <path
     id="rect1301"
     style="fill:#333333;fill-opacity:1;stroke:none;stroke-width:0;stroke-linejoin:miter;stroke-miterlimit:4;stroke-dasharray:none"
     d="M 1.3987828,5.5796634 H 2.0213916 V 6.2375967 H 1.3987828 Z M 0.52916667,6.3852995 H 1.1689805 V 6.8928457 H 0.52916667 Z M 2.7881338,4.7379701 H 3.5821685 V 5.4329612 H 2.7881338 Z M 0.92719797,6.0919314 H 1.6871247 V 6.6326632 H 0.92719797 Z M 1.7816522,5.0754356 H 2.5339171 V 5.7822704 H 1.7816522 Z M 2.2139108,4.9225434 h 0.574223 v 0.5104169 h -0.574223 z m 1.1830573,0.078568 H 4.132131 V 5.6538025 H 3.3969681 Z M 3.9333424,5.5628292 H 4.6827537 V 6.3934143 H 3.9333424 Z M 4.394015,6.1635023 h 0.5541425 v 0.639374 H 4.394015 Z m 0.5541427,0 H 5.5792338 V 6.8028765 H 4.9481577 Z M 9.0461395,6.9886179 H 12.170833 V 8.1885573 H 9.0461395 Z m 0,-2.5403228 H 12.170833 V 5.6482342 H 9.0461395 Z m -3.4979516,0 h 3.497952 V 8.1885573 H 5.5481879 Z M 6.552803,3.175 h 3.2715878 v 6.35 H 6.552803 Z" />
</svg>
