<?xml version="1.0" encoding="UTF-8" standalone="no"?>
<svg
   xmlns:dc="http://purl.org/dc/elements/1.1/"
   xmlns:cc="http://creativecommons.org/ns#"
   xmlns:rdf="http://www.w3.org/1999/02/22-rdf-syntax-ns#"
   xmlns:svg="http://www.w3.org/2000/svg"
   xmlns="http://www.w3.org/2000/svg"
   xmlns:sodipodi="http://sodipodi.sourceforge.net/DTD/sodipodi-0.dtd"
   xmlns:inkscape="http://www.inkscape.org/namespaces/inkscape"
   width="48"
   height="48"
   viewBox="0 0 12.7 12.7"
   version="1.1"
   id="svg2242"
   sodipodi:docname="battery-level-10.svg"
   inkscape:version="1.0.2 (e86c870879, 2021-01-15)">
  <sodipodi:namedview
     pagecolor="#ffffff"
     bordercolor="#666666"
     borderopacity="1"
     objecttolerance="10"
     gridtolerance="10"
     guidetolerance="10"
     inkscape:pageopacity="0"
     inkscape:pageshadow="2"
     inkscape:window-width="1680"
     inkscape:window-height="985"
     id="namedview10"
     showgrid="true"
     inkscape:zoom="16.041667"
     inkscape:cx="24"
     inkscape:cy="24"
     inkscape:window-x="0"
     inkscape:window-y="36"
     inkscape:window-maximized="1"
     inkscape:current-layer="svg2242">
    <inkscape:grid
       type="xygrid"
       id="grid845" />
  </sodipodi:namedview>
  <defs
     id="defs2236">
    <marker
       style="overflow:visible"
       id="Arrow1Lstart"
       refX="0"
       refY="0"
       orient="auto">
      <path
         transform="matrix(0.8,0,0,0.8,10,0)"
         style="fill-rule:evenodd;stroke:#000000;stroke-width:1pt"
         d="M 0,0 5,-5 -12.5,0 5,5 Z"
         id="path1628" />
    </marker>
  </defs>
  <metadata
     id="metadata2239">
    <rdf:RDF>
      <cc:Work
         rdf:about="">
        <dc:format>image/svg+xml</dc:format>
        <dc:type
           rdf:resource="http://purl.org/dc/dcmitype/StillImage" />
        <dc:title></dc:title>
      </cc:Work>
    </rdf:RDF>
  </metadata>
  <rect
     style="fill:none;stroke:#00d900;stroke-width:9.53401;stroke-linejoin:miter;stroke-miterlimit:4;stroke-dasharray:none"
     id="rect3152"
     width="0"
     height="0"
     x="43.729687"
     y="-54.709492"
     ry="0" />
  <g
     id="g843"
     transform="matrix(1.9130435,0,0,1.9158809,0.27608696,0.12241085)">
    <path
       id="rect1435"
       style="color:#000000;font-style:normal;font-variant:normal;font-weight:normal;font-stretch:normal;font-size:medium;line-height:normal;font-family:sans-serif;font-variant-ligatures:normal;font-variant-position:normal;font-variant-caps:normal;font-variant-numeric:normal;font-variant-alternates:normal;font-variant-east-asian:normal;font-feature-settings:normal;font-variation-settings:normal;text-indent:0;text-align:start;text-decoration:none;text-decoration-line:none;text-decoration-style:solid;text-decoration-color:#000000;letter-spacing:normal;word-spacing:normal;text-transform:none;writing-mode:lr-tb;direction:ltr;text-orientation:mixed;dominant-baseline:auto;baseline-shift:baseline;text-anchor:start;white-space:normal;shape-padding:0;shape-margin:0;inline-size:0;clip-rule:nonzero;display:inline;overflow:visible;visibility:visible;isolation:auto;mix-blend-mode:normal;color-interpolation:sRGB;color-interpolation-filters:linearRGB;solid-color:#000000;solid-opacity:1;vector-effect:none;fill:#ff0000;fill-opacity:1;fill-rule:nonzero;stroke:none;stroke-width:3.40498;stroke-linecap:butt;stroke-linejoin:round;stroke-miterlimit:4;stroke-dasharray:none;stroke-dashoffset:0;stroke-opacity:1;color-rendering:auto;image-rendering:auto;shape-rendering:auto;text-rendering:auto;enable-background:accumulate;stop-color:#000000"
       d="M 2.1035156,5.5 C 1.2203263,5.5 0.5,6.2261856 0.5,7.109375 v 9.830078 c 0,0.88319 0.7203263,1.609375 1.6035156,1.609375 H 20.517578 c 0.883189,0 1.609375,-0.726185 1.609375,-1.609375 V 14.324219 H 23.5 V 9.71875 H 22.126953 V 7.109375 C 22.126953,6.2261856 21.400767,5.5 20.517578,5.5 Z m 0,0.8984375 H 20.517578 c 0.399675,0 0.710938,0.3112642 0.710938,0.7109375 V 9.71875 h -0.01172 v 4.605469 h 0.01172 v 2.615234 c 0,0.399675 -0.311265,0.703125 -0.710938,0.703125 H 2.1035156 c -0.3996746,0 -0.7050784,-0.30345 -0.7050781,-0.703125 V 7.109375 c 0,-0.3996745 0.305405,-0.7109375 0.7050781,-0.7109375 z"
       transform="scale(0.26458333)" />
    <path
       id="rect1486"
       style="fill:#ff0000;fill-opacity:1;stroke:none;stroke-width:0.0753769;stroke-linejoin:round;stroke-miterlimit:4;stroke-dasharray:none;stroke-opacity:1"
       d="M 0.60796197,1.9410086 H 1.0846881 c 0,0 0,0 0,0 v 2.4749545 c 0,0 0,1e-7 0,1e-7 H 0.60796197 c 0,0 0,-1e-7 0,-1e-7 V 1.9410086 c 0,0 0,0 0,0 z" />
  </g>
</svg>
