<?xml version="1.0" encoding="UTF-8" standalone="no"?>
<svg
   xmlns:dc="http://purl.org/dc/elements/1.1/"
   xmlns:cc="http://creativecommons.org/ns#"
   xmlns:rdf="http://www.w3.org/1999/02/22-rdf-syntax-ns#"
   xmlns:svg="http://www.w3.org/2000/svg"
   xmlns="http://www.w3.org/2000/svg"
   xmlns:sodipodi="http://sodipodi.sourceforge.net/DTD/sodipodi-0.dtd"
   xmlns:inkscape="http://www.inkscape.org/namespaces/inkscape"
   width="48"
   height="48"
   viewBox="0 0 12.7 12.7"
   version="1.1"
   id="svg2242"
   sodipodi:docname="battery-level-90.svg"
   inkscape:version="1.0.2 (e86c870879, 2021-01-15)">
  <sodipodi:namedview
     pagecolor="#ffffff"
     bordercolor="#666666"
     borderopacity="1"
     objecttolerance="10"
     gridtolerance="10"
     guidetolerance="10"
     inkscape:pageopacity="0"
     inkscape:pageshadow="2"
     inkscape:window-width="1680"
     inkscape:window-height="985"
     id="namedview10"
     showgrid="true"
     inkscape:zoom="16.041667"
     inkscape:cx="19.680643"
     inkscape:cy="24"
     inkscape:window-x="0"
     inkscape:window-y="36"
     inkscape:window-maximized="1"
     inkscape:current-layer="svg2242">
    <inkscape:grid
       type="xygrid"
       id="grid845" />
  </sodipodi:namedview>
  <defs
     id="defs2236">
    <marker
       style="overflow:visible"
       id="Arrow1Lstart"
       refX="0"
       refY="0"
       orient="auto">
      <path
         transform="matrix(0.8,0,0,0.8,10,0)"
         style="fill-rule:evenodd;stroke:#000000;stroke-width:1pt"
         d="M 0,0 5,-5 -12.5,0 5,5 Z"
         id="path1628" />
    </marker>
  </defs>
  <metadata
     id="metadata2239">
    <rdf:RDF>
      <cc:Work
         rdf:about="">
        <dc:format>image/svg+xml</dc:format>
        <dc:type
           rdf:resource="http://purl.org/dc/dcmitype/StillImage" />
        <dc:title></dc:title>
      </cc:Work>
    </rdf:RDF>
  </metadata>
  <rect
     style="fill:none;stroke:#00d900;stroke-width:9.53401;stroke-linejoin:miter;stroke-miterlimit:4;stroke-dasharray:none"
     id="rect3152"
     width="0"
     height="0"
     x="43.729687"
     y="-54.709492"
     ry="0" />
  <g
     id="g843"
     transform="matrix(0.95652174,0,0,0.95794044,0.40262681,1.5164138)">
    <path
       id="rect1435"
       style="color:#000000;font-style:normal;font-variant:normal;font-weight:normal;font-stretch:normal;font-size:medium;line-height:normal;font-family:sans-serif;font-variant-ligatures:normal;font-variant-position:normal;font-variant-caps:normal;font-variant-numeric:normal;font-variant-alternates:normal;font-variant-east-asian:normal;font-feature-settings:normal;font-variation-settings:normal;text-indent:0;text-align:start;text-decoration:none;text-decoration-line:none;text-decoration-style:solid;text-decoration-color:#000000;letter-spacing:normal;word-spacing:normal;text-transform:none;writing-mode:lr-tb;direction:ltr;text-orientation:mixed;dominant-baseline:auto;baseline-shift:baseline;text-anchor:start;white-space:normal;shape-padding:0;shape-margin:0;inline-size:0;clip-rule:nonzero;display:inline;overflow:visible;visibility:visible;isolation:auto;mix-blend-mode:normal;color-interpolation:sRGB;color-interpolation-filters:linearRGB;solid-color:#000000;solid-opacity:1;vector-effect:none;fill:#00d900;fill-opacity:1;fill-rule:nonzero;stroke:none;stroke-width:1.8018;stroke-linecap:butt;stroke-linejoin:round;stroke-miterlimit:4;stroke-dasharray:none;stroke-dashoffset:0;stroke-opacity:1;color-rendering:auto;image-rendering:auto;shape-rendering:auto;text-rendering:auto;enable-background:accumulate;stop-color:#000000"
       d="m 0.98081867,1.4552083 c -0.46735434,0 -0.848527,0.3842732 -0.848527,0.8516276 v 5.2017496 c 0,0.4673547 0.38117266,0.8516276 0.848527,0.8516276 H 10.724927 c 0.467354,0 0.851627,-0.3842729 0.851627,-0.8516276 V 6.1246909 h 0.726571 V 3.6876302 H 11.576554 V 2.3068359 c 0,-0.4673544 -0.384273,-0.8516276 -0.851627,-0.8516276 z m 0,0.4754232 H 10.724927 c 0.211494,0 0.376204,0.1647106 0.376204,0.3762044 v 1.3807943 h -0.0062 v 2.4370607 h 0.0062 v 1.3838946 c 0,0.2114947 -0.164711,0.3720703 -0.376204,0.3720703 H 0.98081867 c -0.21149448,0 -0.37310399,-0.1605756 -0.37310383,-0.3720703 V 2.3068359 c 0,-0.2114944 0.16161015,-0.3762044 0.37310383,-0.3762044 z" />
    <path
       id="rect1486"
       style="fill:#00d900;fill-opacity:1;stroke:none;stroke-width:0.45226;stroke-linejoin:round;stroke-miterlimit:4;stroke-dasharray:none;stroke-opacity:1"
       d="m 1.0836323,2.4268089 h 8.5810702 c 0,0 0,0 0,0 V 7.376718 c 0,0 0,2e-7 0,2e-7 H 1.0836323 c 0,0 0,-2e-7 0,-2e-7 V 2.4268089 c 0,0 0,0 0,0 z" />
  </g>
</svg>
