/* XPM */
static char * hide_inactive_xpm[] = {
"20 24 3 1",
" 	c #E9EAED",
".	c #EDEDED",
"+	c #8D969F",
"  ..................",
"  ..................",
"  ..................",
"  ..................",
"  ..................",
"  ..................",
" ...................",
" ...................",
" ...................",
" ...................",
" ...................",
" ...................",
"  ..................",
"  .           ......",
"      ++++++++......",
"   .  ++++++++......",
" .          . ......",
"    ........  ......",
"....................",
"....................",
"....................",
"....................",
"....................",
"...................."};
