/* XPM */
static char * hide_active_xpm[] = {
"20 24 4 1",
" 	c #4D98F5",
".	c #4F99F5",
"+	c #E9E9E9",
"@	c #EDEDED",
"                    ",
"                    ",
"                    ",
"                    ",
"                    ",
"                    ",
"                    ",
".                   ",
"                    ",
"                    ",
"                    ",
"                    ",
"                    ",
"                    ",
"      ++++++++      ",
"      @+++++++      ",
".                   ",
"                    ",
"                    ",
"                    ",
"                    ",
"                    ",
"                    ",
"                    "};
