/* XPM */
static char * menu_inactive_xpm[] = {
"20 24 4 1",
" 	c #EDEDED",
".	c #87919B",
"+	c #E5E7ED",
"@	c #E9EAED",
"                    ",
"                    ",
"                    ",
"                    ",
"                    ",
"                    ",
"                    ",
"                    ",
"      ........      ",
"      ........      ",
"       ++++++@      ",
"      ........      ",
"      ........      ",
"       ++++++@@     ",
"      ........      ",
"      ........      ",
"                    ",
"                    ",
"                    ",
"                    ",
"                    ",
"                    ",
"                    ",
"                    "};
