/* XPM */
static char * stick_toggled_prelight_xpm[] = {
"20 24 4 1",
" 	c #4D98F5",
".	c #EAEBEE",
"+	c #EEEEEE",
"@	c #EDEDED",
"                    ",
"                    ",
"                    ",
"                    ",
"                    ",
"                    ",
"                    ",
"     .........+     ",
"     .        .     ",
"     .        .     ",
"     .  ...+  .     ",
"     .  .@@.  .     ",
"     .  .@@.  .     ",
"     .  +...  .     ",
"     .        .     ",
"     .        .     ",
"     +.........     ",
"                    ",
"                    ",
"                    ",
"                    ",
"                    ",
"                    ",
"                    "};
