/* XPM */
static char * stick_toggled_active_xpm[] = {
"20 24 5 1",
" 	c #4D98F5",
".	c #EAEBEE",
"+	c #5B9DF5",
"@	c #EEEEEE",
"#	c #EDEDED",
"                    ",
"                    ",
"                    ",
"                    ",
"                    ",
"                    ",
"                    ",
"                    ",
"      ........      ",
"      .++++++.      ",
"      .+..@.+.      ",
"      .+.##.+.      ",
"      .+.##.+.      ",
"      .+....+.      ",
"      .++++++.      ",
"      ........      ",
"                    ",
"                    ",
"                    ",
"                    ",
"                    ",
"                    ",
"                    ",
"                    "};
