/* XPM */
static char * title_3_active_xpm[] = {
"8 32 2 1",
" 	c #2A69B7",
".	c #4D98F5",
"        ",
"........",
"........",
"........",
"........",
"........",
"........",
"........",
"........",
"........",
"........",
"........",
"........",
"........",
"........",
"........",
"........",
"........",
"........",
"........",
"........",
"........",
"........",
"........",
"........",
"........",
"........",
"........",
"........",
"........",
"........",
"........"};
