/* XPM */
static char * title_4_inactive_xpm[] = {
"8 32 2 1",
" 	c #A5A5A5",
".	c #EDEDED",
"        ",
"........",
"........",
"........",
"........",
"........",
"........",
"........",
"........",
"........",
"........",
"........",
"........",
"........",
"........",
"........",
"........",
"........",
"........",
"........",
"........",
"........",
"........",
"........",
"........",
"........",
"........",
"........",
"........",
"........",
"........",
"........"};
